<svg xmlns="http://www.w3.org/2000/svg" xmlns:xlink="http://www.w3.org/1999/xlink" width="64" zoomAndPan="magnify" viewBox="0 0 48 48" height="64" preserveAspectRatio="xMidYMid meet" version="1.2"><defs><clipPath id="48c432e305"><path d="M 13 13 L 46.628906 13 L 46.628906 46 L 13 46 Z M 13 13 "/></clipPath><clipPath id="22082160e9"><path d="M 1.078125 0.585938 L 46 0.585938 L 46 45 L 1.078125 45 Z M 1.078125 0.585938 "/></clipPath></defs><g id="bf6ec0fe4a"><g clip-rule="nonzero" clip-path="url(#48c432e305)"><path style=" stroke:none;fill-rule:nonzero;fill:#ffffff;fill-opacity:1;" d="M 45.308594 40.019531 L 31.5625 26.277344 C 33.027344 22.898438 32.386719 18.832031 29.625 16.070312 C 27.425781 13.871094 24.390625 13.019531 21.539062 13.503906 L 26.929688 18.894531 L 25.128906 24.640625 L 19.382812 26.441406 L 13.992188 21.050781 C 13.511719 23.902344 14.359375 26.933594 16.5625 29.136719 C 19.320312 31.894531 23.390625 32.535156 26.769531 31.074219 L 40.511719 44.816406 C 41.835938 46.140625 43.980469 46.140625 45.304688 44.816406 L 45.308594 44.816406 C 46.632812 43.492188 46.632812 41.34375 45.308594 40.019531 "/></g><g clip-rule="nonzero" clip-path="url(#22082160e9)"><path style=" stroke:none;fill-rule:nonzero;fill:#ffffff;fill-opacity:1;" d="M 23.109375 34.820312 C 16.371094 34.820312 10.90625 29.359375 10.90625 22.621094 C 10.90625 15.878906 16.371094 10.417969 23.109375 10.417969 C 29.847656 10.417969 35.308594 15.878906 35.308594 22.621094 C 35.308594 23.582031 35.1875 24.511719 34.976562 25.410156 L 38.90625 29.332031 C 39.382812 28.207031 39.746094 27.023438 39.976562 25.789062 L 45.140625 24.8125 L 45.140625 20.425781 L 39.976562 19.449219 C 39.53125 17.066406 38.601562 14.855469 37.285156 12.929688 L 40.238281 8.589844 L 37.136719 5.488281 L 32.800781 8.445312 C 30.871094 7.125 28.664062 6.195312 26.28125 5.75 L 25.300781 0.585938 L 20.917969 0.585938 L 19.9375 5.75 C 17.554688 6.195312 15.34375 7.125 13.417969 8.445312 L 9.078125 5.488281 L 5.980469 8.589844 L 8.933594 12.929688 C 7.613281 14.855469 6.683594 17.066406 6.238281 19.449219 L 1.074219 20.425781 L 1.074219 24.8125 L 6.238281 25.789062 C 6.683594 28.171875 7.613281 30.382812 8.933594 32.3125 L 5.980469 36.648438 L 9.078125 39.75 L 13.417969 36.792969 C 15.34375 38.113281 17.554688 39.042969 19.9375 39.488281 L 20.917969 44.652344 L 25.300781 44.652344 L 26.28125 39.488281 C 27.515625 39.257812 28.699219 38.890625 29.824219 38.414062 L 25.894531 34.488281 C 25 34.699219 24.070312 34.820312 23.109375 34.820312 "/></g></g></svg>