<svg xmlns="http://www.w3.org/2000/svg" xmlns:xlink="http://www.w3.org/1999/xlink" width="64" zoomAndPan="magnify" viewBox="0 0 48 48" height="64" preserveAspectRatio="xMidYMid meet" version="1.2"><defs><clipPath id="540300147d"><path d="M 21 25 L 35 25 L 35 46.226562 L 21 46.226562 Z M 21 25 "/></clipPath><clipPath id="dd1f4d35d2"><path d="M 0.488281 11 L 13 11 L 13 13 L 0.488281 13 Z M 0.488281 11 "/></clipPath><clipPath id="bebfa40bca"><path d="M 20 8 L 47.507812 8 L 47.507812 22 L 20 22 Z M 20 8 "/></clipPath></defs><g id="492429c549"><g clip-rule="nonzero" clip-path="url(#540300147d)"><path style=" stroke:none;fill-rule:nonzero;fill:#ffffff;fill-opacity:1;" d="M 26.105469 33.820312 L 29.570312 44.613281 C 29.882812 45.59375 30.789062 46.21875 31.765625 46.21875 C 32 46.21875 32.238281 46.183594 32.472656 46.105469 C 33.6875 45.71875 34.355469 44.417969 33.964844 43.203125 L 30.304688 31.792969 C 30.175781 31.390625 29.9375 31.03125 29.617188 30.753906 L 23.203125 25.199219 C 22.9375 26.335938 22.484375 28.066406 21.800781 30.089844 Z M 26.105469 33.820312 "/></g><path style=" stroke:none;fill-rule:nonzero;fill:#ffffff;fill-opacity:1;" d="M 32.992188 21.210938 C 33.238281 21.367188 33.507812 21.441406 33.78125 21.441406 C 34.269531 21.441406 34.75 21.195312 35.03125 20.75 C 35.273438 20.367188 35.316406 19.910156 35.1875 19.507812 L 31.765625 20.4375 Z M 32.992188 21.210938 "/><path style=" stroke:none;fill-rule:nonzero;fill:#ffffff;fill-opacity:1;" d="M 20.28125 12.664062 C 20.503906 12.664062 20.726562 12.703125 20.9375 12.78125 C 21.425781 12.957031 21.8125 13.3125 22.035156 13.78125 C 22.253906 14.25 22.28125 14.777344 22.105469 15.261719 L 21.46875 17.023438 L 24.0625 16.316406 C 24.050781 16.066406 24.035156 15.808594 24.011719 15.542969 L 24.882812 16.09375 L 28.753906 15.042969 L 21.832031 10.671875 C 21.808594 10.65625 21.785156 10.644531 21.761719 10.632812 C 21.738281 10.621094 21.71875 10.609375 21.699219 10.597656 C 21.097656 10.246094 20.445312 10.082031 19.851562 10.101562 C 18.230469 10.160156 17.09375 12.167969 17.230469 14.074219 C 17.210938 15.085938 17.21875 16.265625 17.167969 17.511719 L 18.453125 13.945312 C 18.730469 13.179688 19.464844 12.664062 20.28125 12.664062 Z M 20.28125 12.664062 "/><path style=" stroke:none;fill-rule:nonzero;fill:#ffffff;fill-opacity:1;" d="M 20.140625 23.597656 L 19.222656 23.847656 L 19.921875 25.476562 C 20.226562 26.1875 19.894531 27.011719 19.183594 27.316406 L 17.292969 28.125 C 16.933594 29.21875 16.5 30.414062 15.976562 31.644531 L 6.238281 30.960938 C 5.019531 30.875 3.957031 31.792969 3.871094 33.015625 C 3.785156 34.238281 4.707031 35.296875 5.929688 35.382812 L 17.214844 36.175781 C 17.265625 36.179688 17.320312 36.179688 17.371094 36.179688 C 18.226562 36.179688 19.007812 35.6875 19.375 34.90625 C 21.589844 30.1875 22.636719 25.707031 22.945312 24.214844 Z M 20.140625 23.597656 "/><path style=" stroke:none;fill-rule:nonzero;fill:#ffffff;fill-opacity:1;" d="M 26.09375 10.824219 C 28.371094 10.53125 29.984375 8.449219 29.691406 6.171875 C 29.632812 5.714844 29.5 5.28125 29.308594 4.886719 L 21.503906 7.550781 C 21.941406 9.65625 23.929688 11.097656 26.09375 10.824219 Z M 26.09375 10.824219 "/><path style=" stroke:none;fill-rule:nonzero;fill:#ffffff;fill-opacity:1;" d="M 29.601562 3.6875 C 29.5 3.386719 29.171875 3.222656 28.871094 3.328125 L 28.625 3.410156 C 27.761719 1.589844 25.652344 0.667969 23.699219 1.335938 C 21.746094 2.003906 20.644531 4.023438 21.074219 5.992188 L 20.828125 6.074219 C 20.527344 6.175781 20.367188 6.507812 20.46875 6.808594 C 20.574219 7.109375 20.902344 7.269531 21.203125 7.167969 L 29.242188 4.417969 C 29.542969 4.316406 29.707031 3.988281 29.601562 3.6875 Z M 29.601562 3.6875 "/><path style=" stroke:none;fill-rule:nonzero;fill:#ffffff;fill-opacity:1;" d="M 7.160156 11.097656 L 15.191406 11.097656 L 15.191406 11.390625 L 7.160156 11.390625 Z M 7.160156 11.097656 "/><path style=" stroke:none;fill-rule:nonzero;fill:#ffffff;fill-opacity:1;" d="M 5.488281 12.867188 L 13.515625 12.867188 L 13.515625 13.160156 L 5.488281 13.160156 Z M 5.488281 12.867188 "/><g clip-rule="nonzero" clip-path="url(#dd1f4d35d2)"><path style=" stroke:none;fill-rule:nonzero;fill:#ffffff;fill-opacity:1;" d="M 0.492188 11.980469 L 12.011719 11.980469 L 12.011719 12.277344 L 0.492188 12.277344 Z M 0.492188 11.980469 "/></g><path style=" stroke:none;fill-rule:nonzero;fill:#ffffff;fill-opacity:1;" d="M 19 26.890625 C 19.480469 26.6875 19.699219 26.136719 19.496094 25.660156 L 18.773438 23.96875 L 14.835938 25.039062 L 15.78125 27.246094 C 15.984375 27.726562 16.535156 27.945312 17.015625 27.742188 Z M 19 26.890625 "/><g clip-rule="nonzero" clip-path="url(#bebfa40bca)"><path style=" stroke:none;fill-rule:nonzero;fill:#ffffff;fill-opacity:1;" d="M 40.503906 14.9375 C 40.128906 13.585938 40.921875 12.1875 42.273438 11.816406 L 46.042969 10.773438 C 44.515625 8.90625 41.980469 8.007812 39.503906 8.691406 C 37.027344 9.375 35.3125 11.449219 34.960938 13.835938 L 21.277344 17.554688 L 20.503906 19.703125 L 26.910156 21.117188 C 27.003906 21.140625 27.09375 21.167969 27.183594 21.203125 L 36.308594 18.722656 C 37.835938 20.59375 40.371094 21.492188 42.847656 20.808594 C 45.324219 20.125 47.039062 18.050781 47.390625 15.664062 L 43.621094 16.707031 C 42.273438 17.078125 40.875 16.285156 40.503906 14.9375 Z M 40.503906 14.9375 "/></g><path style=" stroke:none;fill-rule:nonzero;fill:#ffffff;fill-opacity:1;" d="M 19.171875 23.382812 L 17.511719 23.015625 C 16.964844 22.894531 16.5 22.546875 16.230469 22.058594 C 15.960938 21.570312 15.914062 20.988281 16.105469 20.464844 L 16.707031 18.796875 L 4.402344 22.140625 C 3.050781 22.511719 2.257812 23.910156 2.632812 25.257812 C 3.003906 26.609375 4.402344 27.402344 5.75 27.027344 Z M 5.960938 25.101562 C 5.691406 25.589844 5.074219 25.765625 4.585938 25.496094 C 4.101562 25.222656 3.925781 24.609375 4.195312 24.121094 C 4.46875 23.632812 5.082031 23.457031 5.570312 23.730469 C 6.058594 24 6.234375 24.617188 5.960938 25.101562 Z M 5.960938 25.101562 "/><path style=" stroke:none;fill-rule:nonzero;fill:#ffffff;fill-opacity:1;" d="M 19.890625 20.042969 L 21.667969 15.105469 C 21.945312 14.339844 21.546875 13.492188 20.78125 13.214844 C 20.011719 12.9375 19.167969 13.335938 18.890625 14.105469 L 16.539062 20.621094 C 16.394531 21.019531 16.429688 21.460938 16.632812 21.835938 C 16.839844 22.207031 17.195312 22.472656 17.609375 22.566406 L 26.171875 24.457031 C 26.277344 24.480469 26.386719 24.492188 26.492188 24.492188 C 27.167969 24.492188 27.78125 24.019531 27.933594 23.332031 C 28.109375 22.535156 27.605469 21.746094 26.808594 21.570312 Z M 19.890625 20.042969 "/></g></svg>