<svg xmlns="http://www.w3.org/2000/svg" xmlns:xlink="http://www.w3.org/1999/xlink" width="64" zoomAndPan="magnify" viewBox="0 0 48 48" height="64" preserveAspectRatio="xMidYMid meet" version="1.2"><defs><clipPath id="9b457bacbe"><path d="M 14 22 L 46.90625 22 L 46.90625 44 L 14 44 Z M 14 22 "/></clipPath><clipPath id="53191e4b3d"><path d="M 5 1 L 46.90625 1 L 46.90625 17 L 5 17 Z M 5 1 "/></clipPath><clipPath id="19d881642e"><path d="M 1.355469 19 L 18 19 L 18 46.929688 L 1.355469 46.929688 Z M 1.355469 19 "/></clipPath></defs><g id="098805a086"><g clip-rule="nonzero" clip-path="url(#9b457bacbe)"><path style=" stroke:none;fill-rule:nonzero;fill:#ffffff;fill-opacity:1;" d="M 44.308594 22.757812 C 43.074219 22.582031 41.933594 23.453125 41.757812 24.683594 C 41.261719 28.292969 39.636719 31.558594 37.046875 34.136719 C 31.824219 39.351562 23.960938 40.375 17.710938 37.171875 L 14.617188 40.660156 C 17.90625 42.5625 21.59375 43.519531 25.292969 43.519531 C 30.707031 43.519531 36.117188 41.464844 40.246094 37.335938 C 43.523438 34.058594 45.59375 29.898438 46.230469 25.3125 C 46.40625 24.078125 45.550781 22.933594 44.308594 22.757812 Z M 44.308594 22.757812 "/></g><g clip-rule="nonzero" clip-path="url(#53191e4b3d)"><path style=" stroke:none;fill-rule:nonzero;fill:#ffffff;fill-opacity:1;" d="M 44.292969 3.746094 C 43.050781 3.746094 42.039062 4.757812 42.039062 6.011719 L 42.039062 9.214844 L 40.246094 7.417969 C 31.992188 -0.824219 18.578125 -0.824219 10.324219 7.417969 C 7.75 9.992188 5.980469 13.074219 5.015625 16.339844 C 5.886719 15.726562 6.925781 15.386719 8.027344 15.386719 L 10.207031 15.386719 C 10.996094 13.65625 12.109375 12.039062 13.527344 10.621094 C 20.007812 4.140625 30.566406 4.140625 37.042969 10.621094 L 38.835938 12.414062 L 35.632812 12.414062 C 34.375 12.414062 33.367188 13.429688 33.367188 14.671875 C 33.367188 15.925781 34.382812 16.9375 35.632812 16.9375 L 44.292969 16.9375 C 45.550781 16.9375 46.558594 15.921875 46.558594 14.671875 L 46.558594 6.011719 C 46.5625 4.753906 45.550781 3.746094 44.292969 3.746094 Z M 44.292969 3.746094 "/></g><path style=" stroke:none;fill-rule:nonzero;fill:#ffffff;fill-opacity:1;" d="M 25.195312 10.625 C 23.949219 10.625 22.9375 11.640625 22.9375 12.886719 L 22.9375 22.375 C 22.9375 23.390625 23.613281 24.28125 24.585938 24.554688 L 31.550781 26.507812 C 31.753906 26.5625 31.957031 26.59375 32.160156 26.59375 C 33.148438 26.59375 34.058594 25.9375 34.332031 24.9375 C 34.671875 23.730469 33.96875 22.484375 32.761719 22.148438 L 27.453125 20.65625 L 27.453125 12.886719 C 27.457031 11.636719 26.445312 10.625 25.195312 10.625 Z M 25.195312 10.625 "/><g clip-rule="nonzero" clip-path="url(#19d881642e)"><path style=" stroke:none;fill-rule:nonzero;fill:#ffffff;fill-opacity:1;" d="M 16.101562 29.757812 L 12.296875 29.757812 L 17.039062 21.289062 C 17.5 20.46875 16.90625 19.453125 15.964844 19.453125 L 8.03125 19.453125 C 7.515625 19.453125 7.054688 19.773438 6.875 20.257812 L 1.65625 34.234375 C 1.355469 35.042969 1.949219 35.902344 2.8125 35.902344 L 5.589844 35.902344 L 2.59375 45.074219 C 2.238281 46.144531 3.609375 46.929688 4.359375 46.089844 L 17.03125 31.8125 C 17.734375 31.011719 17.167969 29.757812 16.101562 29.757812 Z M 16.101562 29.757812 "/></g></g></svg>