<svg xmlns="http://www.w3.org/2000/svg" xmlns:xlink="http://www.w3.org/1999/xlink" width="64" zoomAndPan="magnify" viewBox="0 0 48 48" height="64" preserveAspectRatio="xMidYMid meet" version="1.2"><g id="a091aa57a9"><path style=" stroke:none;fill-rule:nonzero;fill:#ffffff;fill-opacity:1;" d="M 21.554688 4.316406 C 20.960938 3.953125 20.40625 4.230469 19.78125 3.820312 C 19.671875 2.738281 19.601562 1.53125 19.84375 0.332031 C 21.085938 0.0273438 25.859375 0.00390625 27.28125 0.292969 C 27.597656 1.4375 27.460938 2.617188 27.367188 3.726562 C 26.875 4.289062 26.234375 3.941406 25.703125 4.230469 C 25.371094 4.570312 25.417969 4.984375 25.636719 5.421875 C 26.238281 5.730469 26.902344 5.707031 27.535156 5.839844 C 29.550781 6.273438 31.488281 6.949219 33.304688 7.945312 C 33.804688 8.214844 34.304688 8.554688 34.660156 7.742188 C 34.671875 7.230469 34.015625 7.144531 33.894531 6.492188 C 33.855469 6.253906 34.238281 5.6875 35.300781 4.640625 C 35.625 4.539062 35.882812 4.6875 36.132812 4.867188 C 37.105469 5.578125 38.085938 6.273438 39.042969 7 C 39.824219 7.597656 39.824219 7.757812 39.265625 8.601562 C 39.210938 8.683594 39.152344 8.765625 39.089844 8.84375 C 38.3125 9.902344 38.3125 9.902344 37.03125 9.300781 C 36.335938 9.722656 36.503906 10.125 37.023438 10.582031 C 38.585938 11.9375 39.890625 13.519531 40.960938 15.292969 C 48.421875 27.621094 40.878906 43.703125 26.636719 45.855469 C 14.128906 47.75 2.992188 37.976562 3.230469 25.324219 C 3.414062 15.710938 10.601562 7.359375 20.082031 5.761719 C 20.519531 5.6875 20.960938 5.597656 21.351562 5.519531 C 21.71875 5.121094 21.566406 4.722656 21.554688 4.316406 Z M 39.902344 25.847656 C 39.945312 16.859375 32.726562 9.492188 23.808594 9.417969 C 14.628906 9.34375 7.183594 16.675781 7.179688 25.800781 C 7.171875 34.75 14.574219 42.160156 23.542969 42.183594 C 32.53125 42.199219 39.863281 34.878906 39.902344 25.847656 Z M 39.902344 25.847656 "/><path style=" stroke:none;fill-rule:nonzero;fill:#ffffff;fill-opacity:1;" d="M 8.507812 25.738281 C 13.539062 25.738281 18.480469 25.738281 23.585938 25.738281 C 23.585938 20.652344 23.585938 15.722656 23.585938 10.804688 C 29.535156 10.164062 38.03125 15.34375 38.6875 24.625 C 39.332031 33.628906 32.257812 41.175781 23.335938 40.96875 C 13.117188 40.726562 8.074219 31.84375 8.507812 25.738281 Z M 8.507812 25.738281 "/></g></svg>