<svg xmlns="http://www.w3.org/2000/svg" xmlns:xlink="http://www.w3.org/1999/xlink" width="64" zoomAndPan="magnify" viewBox="0 0 48 48" height="64" preserveAspectRatio="xMidYMid meet" version="1.2"><defs><clipPath id="b22bf5bf6b"><path d="M 1.460938 0 L 46.277344 0 L 46.277344 47 L 1.460938 47 Z M 1.460938 0 "/></clipPath></defs><g id="2f7d6d1de5"><g clip-rule="nonzero" clip-path="url(#b22bf5bf6b)"><path style=" stroke:none;fill-rule:evenodd;fill:#ffffff;fill-opacity:1;" d="M 40.683594 7.453125 C 43.210938 10.132812 45.03125 13.339844 46.066406 16.777344 C 43.691406 18.015625 42.074219 20.515625 42.074219 23.371094 C 42.074219 26.253906 43.691406 28.730469 46.089844 29.96875 C 45.585938 31.660156 44.878906 33.328125 43.941406 34.945312 C 43.007812 36.5625 41.921875 38.003906 40.707031 39.292969 C 38.433594 37.851562 35.476562 37.699219 32.976562 39.113281 C 30.5 40.554688 29.136719 43.207031 29.261719 45.886719 C 25.777344 46.71875 22.085938 46.746094 18.5 45.886719 C 18.625 43.207031 17.261719 40.554688 14.785156 39.113281 C 12.308594 37.675781 9.328125 37.851562 7.050781 39.292969 C 4.527344 36.613281 2.707031 33.402344 1.671875 29.96875 C 4.046875 28.730469 5.664062 26.226562 5.664062 23.371094 C 5.664062 20.492188 4.046875 18.015625 1.644531 16.777344 C 2.148438 15.085938 2.859375 13.417969 3.792969 11.800781 C 4.726562 10.183594 5.8125 8.742188 7.027344 7.453125 C 9.300781 8.894531 12.257812 9.046875 14.757812 7.628906 C 17.234375 6.191406 18.597656 3.539062 18.472656 0.859375 C 21.960938 0.0234375 25.648438 0 29.238281 0.859375 C 29.109375 3.539062 30.476562 6.191406 32.953125 7.628906 C 35.425781 9.070312 38.410156 8.894531 40.683594 7.453125 Z M 35.578125 30.144531 C 39.320312 23.675781 37.09375 15.386719 30.625 11.648438 C 24.160156 7.910156 15.871094 10.132812 12.132812 16.601562 C 8.390625 23.070312 10.613281 31.355469 17.082031 35.097656 C 23.550781 38.835938 31.839844 36.613281 35.578125 30.144531 Z M 35.578125 30.144531 "/></g><path style=" stroke:none;fill-rule:evenodd;fill:#ffffff;fill-opacity:1;" d="M 20.59375 28.351562 C 20.59375 28.957031 20.34375 29.488281 19.964844 29.867188 C 19.710938 30.117188 19.359375 30.320312 19.003906 30.421875 L 19.003906 32.214844 C 19.003906 32.519531 18.75 32.773438 18.449219 32.773438 C 18.144531 32.773438 17.890625 32.519531 17.890625 32.214844 L 17.890625 30.421875 C 17.511719 30.320312 17.183594 30.117188 16.933594 29.867188 C 16.554688 29.488281 16.300781 28.929688 16.300781 28.351562 C 16.300781 27.769531 16.554688 27.214844 16.933594 26.835938 C 17.183594 26.582031 17.539062 26.378906 17.890625 26.277344 L 17.890625 14.554688 C 17.890625 14.25 18.144531 14 18.449219 14 C 18.75 14 19.003906 14.25 19.003906 14.554688 L 19.003906 26.277344 C 19.382812 26.378906 19.710938 26.582031 19.964844 26.835938 C 20.34375 27.214844 20.59375 27.769531 20.59375 28.351562 Z M 20.59375 28.351562 "/><path style=" stroke:none;fill-rule:evenodd;fill:#ffffff;fill-opacity:1;" d="M 24.410156 25.46875 L 24.410156 32.242188 C 24.410156 32.542969 24.160156 32.796875 23.855469 32.796875 C 23.550781 32.796875 23.300781 32.542969 23.300781 32.242188 L 23.300781 25.46875 C 22.921875 25.367188 22.589844 25.167969 22.339844 24.914062 C 21.960938 24.535156 21.707031 23.980469 21.707031 23.398438 C 21.707031 22.816406 21.960938 22.261719 22.339844 21.882812 C 22.589844 21.628906 22.945312 21.425781 23.300781 21.324219 L 23.300781 14.554688 C 23.300781 14.25 23.550781 14 23.855469 14 C 24.160156 14 24.410156 14.25 24.410156 14.554688 L 24.410156 21.324219 C 24.789062 21.425781 25.117188 21.628906 25.371094 21.882812 C 25.75 22.261719 26.003906 22.816406 26.003906 23.398438 C 26.003906 23.980469 25.75 24.535156 25.371094 24.914062 C 25.117188 25.167969 24.765625 25.367188 24.410156 25.46875 Z M 24.410156 25.46875 "/><path style=" stroke:none;fill-rule:evenodd;fill:#ffffff;fill-opacity:1;" d="M 31.410156 18.421875 C 31.410156 19.027344 31.15625 19.558594 30.777344 19.9375 C 30.527344 20.1875 30.171875 20.390625 29.816406 20.492188 L 29.816406 32.214844 C 29.816406 32.519531 29.566406 32.773438 29.261719 32.773438 C 28.960938 32.773438 28.707031 32.519531 28.707031 32.214844 L 28.707031 20.492188 C 28.328125 20.390625 28 20.1875 27.746094 19.9375 C 27.367188 19.558594 27.113281 19 27.113281 18.421875 C 27.113281 17.839844 27.367188 17.28125 27.746094 16.902344 C 28 16.652344 28.351562 16.449219 28.707031 16.347656 L 28.707031 14.554688 C 28.707031 14.25 28.960938 14 29.261719 14 C 29.566406 14 29.816406 14.25 29.816406 14.554688 L 29.816406 16.347656 C 30.199219 16.449219 30.527344 16.652344 30.777344 16.902344 C 31.15625 17.28125 31.410156 17.839844 31.410156 18.421875 Z M 31.410156 18.421875 "/></g></svg>