<svg xmlns="http://www.w3.org/2000/svg" xmlns:xlink="http://www.w3.org/1999/xlink" width="64" zoomAndPan="magnify" viewBox="0 0 48 48" height="64" preserveAspectRatio="xMidYMid meet" version="1.2"><defs><clipPath id="8f6f9ef1fe"><path d="M 1.105469 0.644531 L 46.65625 0.644531 L 46.65625 46.195312 L 1.105469 46.195312 Z M 1.105469 0.644531 "/></clipPath></defs><g id="adb7678599"><g clip-rule="nonzero" clip-path="url(#8f6f9ef1fe)"><path style=" stroke:none;fill-rule:evenodd;fill:#ffffff;fill-opacity:1;" d="M 8.847656 34.308594 C 9.417969 34.445312 9.960938 34.671875 10.457031 34.976562 L 11.328125 34.59375 C 11.4375 34.542969 11.558594 34.566406 11.644531 34.652344 L 12.601562 35.609375 C 12.6875 35.695312 12.710938 35.816406 12.660156 35.925781 L 12.335938 36.660156 C 12.296875 36.746094 12.300781 36.835938 12.347656 36.917969 C 12.617188 37.382812 12.820312 37.882812 12.941406 38.40625 L 13.828125 38.746094 C 13.941406 38.789062 14.011719 38.890625 14.011719 39.011719 L 14.011719 40.367188 C 14.011719 40.488281 13.941406 40.589844 13.828125 40.632812 L 12.941406 40.972656 C 12.808594 41.542969 12.582031 42.085938 12.273438 42.585938 L 12.660156 43.453125 C 12.710938 43.5625 12.6875 43.683594 12.601562 43.769531 L 11.644531 44.726562 C 11.558594 44.8125 11.4375 44.835938 11.328125 44.785156 L 10.457031 44.402344 C 9.960938 44.707031 9.417969 44.933594 8.847656 45.070312 L 8.503906 45.957031 C 8.460938 46.066406 8.359375 46.136719 8.242188 46.136719 L 6.886719 46.136719 C 6.765625 46.136719 6.664062 46.066406 6.621094 45.957031 L 6.277344 45.070312 C 5.710938 44.933594 5.164062 44.707031 4.667969 44.402344 L 3.800781 44.785156 C 3.6875 44.835938 3.566406 44.8125 3.480469 44.726562 L 2.523438 43.769531 C 2.441406 43.683594 2.417969 43.5625 2.464844 43.453125 L 2.851562 42.585938 C 2.542969 42.085938 2.320312 41.542969 2.183594 40.972656 L 1.296875 40.632812 C 1.183594 40.589844 1.113281 40.488281 1.113281 40.367188 L 1.113281 39.011719 C 1.113281 38.890625 1.183594 38.789062 1.296875 38.746094 L 2.183594 38.40625 C 2.320312 37.835938 2.542969 37.292969 2.851562 36.792969 L 2.464844 35.925781 C 2.417969 35.816406 2.441406 35.695312 2.523438 35.609375 L 3.484375 34.652344 C 3.566406 34.566406 3.691406 34.542969 3.800781 34.59375 L 4.667969 34.976562 C 5.167969 34.671875 5.710938 34.445312 6.277344 34.308594 L 6.621094 33.421875 C 6.664062 33.3125 6.765625 33.242188 6.886719 33.242188 L 8.242188 33.242188 C 8.359375 33.242188 8.464844 33.3125 8.507812 33.421875 Z M 31.453125 16.714844 C 31.15625 17.011719 30.675781 17.011719 30.378906 16.714844 C 30.082031 16.417969 30.082031 15.9375 30.378906 15.640625 L 33.53125 12.488281 C 33.828125 12.195312 34.308594 12.195312 34.605469 12.488281 C 34.898438 12.785156 34.898438 13.265625 34.605469 13.5625 Z M 28.785156 6.375 C 28.378906 6.480469 27.964844 6.238281 27.863281 5.832031 C 27.757812 5.429688 28 5.015625 28.402344 4.910156 L 28.675781 4.839844 C 27.0625 4.402344 25.394531 4.183594 23.722656 4.183594 C 21.28125 4.183594 18.882812 4.644531 16.625 5.5625 C 16.234375 5.71875 15.792969 5.535156 15.636719 5.144531 C 15.480469 4.757812 15.667969 4.316406 16.054688 4.160156 C 18.488281 3.171875 21.097656 2.667969 23.722656 2.667969 C 25.53125 2.667969 27.335938 2.902344 29.082031 3.378906 L 28.960938 3.226562 C 28.703125 2.898438 28.757812 2.421875 29.082031 2.164062 C 29.410156 1.902344 29.886719 1.957031 30.148438 2.285156 L 31.875 4.453125 C 32.050781 4.664062 32.105469 4.960938 31.992188 5.230469 C 31.894531 5.46875 31.683594 5.632812 31.445312 5.679688 Z M 6.15625 30.519531 C 6.316406 30.90625 6.128906 31.347656 5.738281 31.503906 C 5.351562 31.664062 4.910156 31.476562 4.753906 31.085938 C 3.765625 28.652344 3.261719 26.046875 3.261719 23.417969 C 3.261719 21.632812 3.492188 19.851562 3.953125 18.128906 L 3.859375 18.207031 C 3.535156 18.472656 3.058594 18.425781 2.792969 18.101562 C 2.53125 17.78125 2.574219 17.304688 2.898438 17.039062 L 5.011719 15.296875 C 5.222656 15.097656 5.539062 15.03125 5.824219 15.148438 C 6.058594 15.246094 6.21875 15.449219 6.269531 15.679688 L 7.011719 18.335938 C 7.125 18.738281 6.886719 19.152344 6.484375 19.265625 C 6.082031 19.375 5.664062 19.140625 5.554688 18.738281 L 5.457031 18.386719 C 5.003906 20.027344 4.777344 21.71875 4.777344 23.417969 C 4.777344 25.859375 5.238281 28.257812 6.15625 30.519531 Z M 41.578125 16.027344 C 41.421875 15.640625 41.609375 15.199219 41.996094 15.042969 C 42.382812 14.886719 42.824219 15.070312 42.984375 15.460938 C 43.972656 17.894531 44.476562 20.503906 44.476562 23.128906 C 44.476562 24.9375 44.238281 26.742188 43.761719 28.488281 L 43.914062 28.367188 C 44.242188 28.109375 44.71875 28.164062 44.980469 28.488281 C 45.238281 28.816406 45.183594 29.292969 44.859375 29.554688 L 42.6875 31.28125 C 42.480469 31.457031 42.183594 31.511719 41.914062 31.398438 C 41.671875 31.296875 41.507812 31.085938 41.460938 30.847656 L 40.765625 28.1875 C 40.660156 27.785156 40.902344 27.371094 41.308594 27.265625 C 41.710938 27.164062 42.125 27.40625 42.230469 27.808594 L 42.300781 28.082031 C 42.738281 26.46875 42.957031 24.800781 42.957031 23.128906 C 42.957031 20.6875 42.496094 18.289062 41.578125 16.027344 Z M 31.113281 40.984375 C 31.5 40.828125 31.941406 41.015625 32.097656 41.402344 C 32.257812 41.789062 32.070312 42.230469 31.679688 42.390625 C 29.25 43.378906 26.640625 43.882812 24.011719 43.882812 C 22.175781 43.882812 20.34375 43.636719 18.574219 43.148438 L 18.742188 43.363281 C 18.996094 43.695312 18.933594 44.171875 18.597656 44.425781 C 18.265625 44.679688 17.792969 44.617188 17.539062 44.28125 L 15.859375 42.089844 C 15.683594 41.882812 15.632812 41.585938 15.742188 41.320312 C 15.84375 41.074219 16.0625 40.910156 16.304688 40.863281 L 18.976562 40.21875 C 19.382812 40.121094 19.792969 40.371094 19.890625 40.777344 C 19.988281 41.179688 19.738281 41.589844 19.332031 41.6875 L 19.152344 41.730469 C 20.738281 42.152344 22.371094 42.363281 24.011719 42.363281 C 26.453125 42.363281 28.851562 41.902344 31.113281 40.984375 Z M 34.472656 32.730469 C 34.769531 33.027344 34.769531 33.507812 34.472656 33.804688 C 34.175781 34.101562 33.695312 34.101562 33.398438 33.804688 L 30.246094 30.652344 C 29.949219 30.355469 29.949219 29.875 30.246094 29.578125 C 30.542969 29.285156 31.023438 29.285156 31.320312 29.578125 Z M 14.109375 33.738281 L 17.261719 30.589844 C 17.558594 30.292969 17.558594 29.8125 17.261719 29.515625 C 16.964844 29.21875 16.484375 29.21875 16.1875 29.515625 L 13.035156 32.667969 C 12.742188 32.964844 12.742188 33.445312 13.035156 33.738281 C 13.332031 34.035156 13.8125 34.035156 14.109375 33.738281 Z M 17.382812 15.640625 C 17.675781 15.9375 17.675781 16.417969 17.382812 16.714844 C 17.085938 17.011719 16.605469 17.011719 16.308594 16.714844 L 13.15625 13.5625 C 12.859375 13.265625 12.859375 12.785156 13.15625 12.488281 C 13.453125 12.191406 13.933594 12.191406 14.230469 12.488281 Z M 25.375 16.964844 L 24.960938 15.890625 C 24.917969 15.78125 24.816406 15.710938 24.695312 15.710938 L 23.039062 15.710938 C 22.917969 15.710938 22.816406 15.78125 22.773438 15.890625 L 22.363281 16.964844 C 21.695312 17.121094 21.054688 17.386719 20.472656 17.746094 L 19.421875 17.28125 C 19.3125 17.230469 19.191406 17.253906 19.105469 17.339844 L 17.933594 18.511719 C 17.847656 18.59375 17.824219 18.71875 17.875 18.828125 L 18.339844 19.878906 C 17.980469 20.460938 17.714844 21.101562 17.558594 21.769531 L 16.484375 22.179688 C 16.375 22.222656 16.304688 22.324219 16.304688 22.445312 L 16.304688 24.101562 C 16.304688 24.222656 16.375 24.324219 16.484375 24.367188 L 17.558594 24.78125 C 17.714844 25.449219 17.980469 26.085938 18.339844 26.671875 L 17.875 27.71875 C 17.824219 27.828125 17.847656 27.953125 17.933594 28.035156 L 19.105469 29.207031 C 19.191406 29.292969 19.3125 29.316406 19.421875 29.265625 L 20.472656 28.800781 C 21.054688 29.160156 21.695312 29.425781 22.363281 29.585938 L 22.773438 30.65625 C 22.816406 30.769531 22.917969 30.839844 23.039062 30.839844 L 24.695312 30.839844 C 24.816406 30.839844 24.917969 30.769531 24.960938 30.65625 L 25.375 29.585938 C 26.042969 29.425781 26.679688 29.160156 27.265625 28.800781 L 28.3125 29.265625 C 28.425781 29.316406 28.546875 29.292969 28.632812 29.207031 L 29.800781 28.035156 C 29.886719 27.953125 29.910156 27.828125 29.859375 27.71875 L 29.394531 26.671875 C 29.753906 26.085938 30.019531 25.449219 30.179688 24.78125 L 31.25 24.367188 C 31.363281 24.324219 31.433594 24.222656 31.433594 24.101562 L 31.433594 22.445312 C 31.433594 22.324219 31.363281 22.222656 31.25 22.179688 L 30.179688 21.769531 C 30.019531 21.101562 29.753906 20.460938 29.394531 19.875 L 29.859375 18.828125 C 29.910156 18.71875 29.886719 18.59375 29.800781 18.511719 L 28.632812 17.339844 C 28.546875 17.253906 28.425781 17.230469 28.3125 17.28125 L 27.265625 17.746094 C 26.679688 17.386719 26.042969 17.121094 25.375 16.964844 Z M 23.867188 19.699219 C 25.84375 19.699219 27.445312 21.296875 27.445312 23.273438 C 27.445312 25.25 25.84375 26.851562 23.867188 26.851562 C 21.890625 26.851562 20.292969 25.25 20.292969 23.273438 C 20.292969 21.296875 21.890625 19.699219 23.867188 19.699219 Z M 38.914062 12.472656 L 39.253906 13.359375 C 39.296875 13.46875 39.402344 13.539062 39.519531 13.539062 L 40.875 13.539062 C 40.996094 13.539062 41.097656 13.46875 41.140625 13.359375 L 41.480469 12.472656 C 42.050781 12.335938 42.59375 12.109375 43.09375 11.804688 L 43.960938 12.191406 C 44.070312 12.238281 44.195312 12.214844 44.277344 12.132812 L 45.238281 11.171875 C 45.320312 11.089844 45.34375 10.964844 45.296875 10.855469 L 44.910156 9.988281 C 45.21875 9.488281 45.441406 8.945312 45.578125 8.375 L 46.464844 8.035156 C 46.578125 7.992188 46.648438 7.890625 46.648438 7.769531 L 46.648438 6.414062 C 46.648438 6.296875 46.578125 6.191406 46.464844 6.148438 L 45.578125 5.808594 C 45.441406 5.238281 45.21875 4.695312 44.910156 4.195312 L 45.296875 3.328125 C 45.34375 3.21875 45.320312 3.097656 45.238281 3.011719 L 44.277344 2.054688 C 44.195312 1.96875 44.070312 1.945312 43.960938 1.996094 L 43.226562 2.320312 C 43.140625 2.359375 43.050781 2.355469 42.96875 2.308594 C 42.507812 2.039062 42.003906 1.835938 41.480469 1.710938 L 41.140625 0.828125 C 41.097656 0.714844 40.996094 0.644531 40.875 0.644531 L 39.519531 0.644531 C 39.402344 0.644531 39.296875 0.714844 39.253906 0.828125 L 38.914062 1.710938 C 38.34375 1.847656 37.800781 2.074219 37.300781 2.378906 L 36.433594 1.996094 C 36.324219 1.945312 36.203125 1.96875 36.117188 2.054688 L 35.160156 3.011719 C 35.074219 3.097656 35.050781 3.21875 35.101562 3.328125 L 35.488281 4.195312 C 35.179688 4.695312 34.953125 5.238281 34.820312 5.808594 L 33.933594 6.148438 C 33.820312 6.191406 33.75 6.292969 33.75 6.414062 L 33.75 7.769531 C 33.75 7.890625 33.820312 7.992188 33.933594 8.035156 L 34.816406 8.375 C 34.953125 8.945312 35.179688 9.488281 35.484375 9.988281 L 35.101562 10.855469 C 35.050781 10.964844 35.074219 11.089844 35.160156 11.171875 L 36.117188 12.128906 C 36.203125 12.214844 36.324219 12.238281 36.433594 12.191406 L 37.304688 11.804688 C 37.800781 12.109375 38.34375 12.335938 38.914062 12.472656 Z M 40.199219 9.859375 C 38.667969 9.859375 37.429688 8.621094 37.429688 7.09375 C 37.429688 5.5625 38.667969 4.324219 40.199219 4.324219 C 41.726562 4.324219 42.964844 5.5625 42.964844 7.09375 C 42.964844 8.621094 41.726562 9.859375 40.199219 9.859375 Z M 8.847656 12.472656 C 9.417969 12.335938 9.960938 12.109375 10.457031 11.804688 L 11.328125 12.191406 C 11.4375 12.238281 11.558594 12.214844 11.644531 12.132812 L 12.601562 11.171875 C 12.6875 11.089844 12.710938 10.964844 12.660156 10.855469 L 12.273438 9.988281 C 12.582031 9.488281 12.808594 8.945312 12.941406 8.375 L 13.828125 8.035156 C 13.941406 7.992188 14.011719 7.890625 14.011719 7.769531 L 14.011719 6.414062 C 14.011719 6.296875 13.941406 6.191406 13.828125 6.148438 L 12.941406 5.808594 C 12.808594 5.238281 12.582031 4.695312 12.273438 4.195312 L 12.660156 3.328125 C 12.710938 3.21875 12.6875 3.097656 12.601562 3.011719 L 11.644531 2.054688 C 11.558594 1.96875 11.4375 1.945312 11.328125 1.996094 L 10.457031 2.382812 C 9.960938 2.074219 9.417969 1.847656 8.847656 1.710938 L 8.503906 0.828125 C 8.460938 0.714844 8.359375 0.644531 8.242188 0.644531 L 6.886719 0.644531 C 6.765625 0.644531 6.664062 0.714844 6.621094 0.828125 L 6.277344 1.714844 C 5.710938 1.847656 5.164062 2.074219 4.667969 2.382812 L 3.800781 1.996094 C 3.6875 1.945312 3.566406 1.96875 3.480469 2.054688 L 2.523438 3.011719 C 2.441406 3.097656 2.417969 3.21875 2.464844 3.328125 L 2.851562 4.195312 C 2.542969 4.695312 2.320312 5.238281 2.183594 5.808594 L 1.296875 6.148438 C 1.183594 6.191406 1.113281 6.296875 1.113281 6.414062 L 1.113281 7.769531 C 1.113281 7.890625 1.183594 7.992188 1.296875 8.035156 L 2.183594 8.375 C 2.320312 8.945312 2.542969 9.488281 2.851562 9.988281 L 2.464844 10.855469 C 2.417969 10.964844 2.441406 11.089844 2.523438 11.171875 L 3.480469 12.132812 C 3.566406 12.214844 3.6875 12.238281 3.800781 12.191406 L 4.667969 11.804688 C 5.164062 12.109375 5.710938 12.335938 6.277344 12.472656 L 6.621094 13.359375 C 6.664062 13.46875 6.765625 13.539062 6.886719 13.539062 L 8.242188 13.539062 C 8.359375 13.539062 8.460938 13.46875 8.507812 13.359375 Z M 7.5625 9.859375 C 6.035156 9.859375 4.796875 8.621094 4.796875 7.09375 C 4.796875 5.5625 6.035156 4.324219 7.5625 4.324219 C 9.089844 4.324219 10.332031 5.5625 10.332031 7.09375 C 10.332031 8.621094 9.089844 9.859375 7.5625 9.859375 Z M 38.875 34.308594 C 38.308594 34.445312 37.761719 34.671875 37.265625 34.976562 L 36.394531 34.59375 C 36.285156 34.542969 36.164062 34.566406 36.078125 34.652344 L 35.121094 35.609375 C 35.035156 35.695312 35.015625 35.816406 35.0625 35.925781 L 35.449219 36.792969 C 35.140625 37.292969 34.914062 37.835938 34.78125 38.40625 L 33.894531 38.746094 C 33.78125 38.789062 33.710938 38.890625 33.710938 39.011719 L 33.710938 40.367188 C 33.710938 40.488281 33.78125 40.589844 33.894531 40.632812 L 34.78125 40.972656 C 34.914062 41.542969 35.140625 42.085938 35.449219 42.585938 L 35.0625 43.453125 C 35.015625 43.5625 35.035156 43.683594 35.121094 43.769531 L 36.078125 44.726562 C 36.164062 44.8125 36.285156 44.835938 36.394531 44.785156 L 37.265625 44.402344 C 37.761719 44.707031 38.308594 44.933594 38.875 45.070312 L 39.21875 45.957031 C 39.261719 46.066406 39.363281 46.136719 39.484375 46.136719 L 40.835938 46.136719 C 40.957031 46.136719 41.058594 46.066406 41.101562 45.957031 L 41.445312 45.070312 C 42.011719 44.933594 42.558594 44.707031 43.054688 44.402344 L 43.925781 44.785156 C 44.035156 44.835938 44.15625 44.8125 44.242188 44.726562 L 45.199219 43.769531 C 45.285156 43.683594 45.304688 43.5625 45.257812 43.453125 L 44.871094 42.585938 C 45.179688 42.085938 45.40625 41.542969 45.539062 40.972656 L 46.425781 40.632812 C 46.539062 40.589844 46.609375 40.488281 46.609375 40.367188 L 46.609375 39.011719 C 46.609375 38.890625 46.539062 38.789062 46.425781 38.746094 L 45.539062 38.40625 C 45.40625 37.835938 45.179688 37.292969 44.871094 36.792969 L 45.257812 35.925781 C 45.304688 35.816406 45.285156 35.695312 45.199219 35.609375 L 44.242188 34.652344 C 44.15625 34.566406 44.035156 34.542969 43.925781 34.59375 L 43.054688 34.976562 C 42.558594 34.671875 42.011719 34.445312 41.445312 34.308594 L 41.101562 33.421875 C 41.058594 33.3125 40.957031 33.242188 40.835938 33.242188 L 39.484375 33.242188 C 39.363281 33.242188 39.261719 33.3125 39.21875 33.421875 Z M 40.160156 36.921875 C 41.6875 36.921875 42.925781 38.160156 42.925781 39.691406 C 42.925781 41.21875 41.6875 42.457031 40.160156 42.457031 C 38.632812 42.457031 37.394531 41.21875 37.394531 39.691406 C 37.394531 38.160156 38.632812 36.921875 40.160156 36.921875 Z M 7.5625 36.921875 C 6.035156 36.921875 4.796875 38.160156 4.796875 39.691406 C 4.796875 41.21875 6.035156 42.457031 7.5625 42.457031 C 9.089844 42.457031 10.332031 41.21875 10.332031 39.691406 C 10.332031 38.160156 9.089844 36.921875 7.5625 36.921875 Z M 7.5625 36.921875 "/></g></g></svg>