<svg xmlns="http://www.w3.org/2000/svg" xmlns:xlink="http://www.w3.org/1999/xlink" width="64" zoomAndPan="magnify" viewBox="0 0 48 48" height="64" preserveAspectRatio="xMidYMid meet" version="1.2"><defs><clipPath id="dc275054af"><path d="M 1 33 L 14 33 L 14 45.875 L 1 45.875 Z M 1 33 "/></clipPath><clipPath id="7a8c07a2cc"><path d="M 22 35 L 46.777344 35 L 46.777344 38 L 22 38 Z M 22 35 "/></clipPath><clipPath id="7f4d70db54"><path d="M 22 41 L 46.777344 41 L 46.777344 44 L 22 44 Z M 22 41 "/></clipPath><clipPath id="93665b965a"><path d="M 22 19 L 46.777344 19 L 46.777344 22 L 22 22 Z M 22 19 "/></clipPath><clipPath id="3b56d89371"><path d="M 22 25 L 46.777344 25 L 46.777344 28 L 22 28 Z M 22 25 "/></clipPath><clipPath id="027e58520d"><path d="M 22 3 L 46.777344 3 L 46.777344 6 L 22 6 Z M 22 3 "/></clipPath><clipPath id="154ef8b189"><path d="M 22 9 L 46.777344 9 L 46.777344 12 L 22 12 Z M 22 9 "/></clipPath></defs><g id="50b0f2a81f"><path style=" stroke:none;fill-rule:nonzero;fill:#ffffff;fill-opacity:1;" d="M 12.511719 13.863281 L 2.507812 13.863281 C 1.953125 13.863281 1.507812 13.414062 1.507812 12.863281 L 1.507812 2.859375 C 1.507812 2.304688 1.953125 1.855469 2.507812 1.855469 L 12.511719 1.855469 C 13.0625 1.855469 13.511719 2.304688 13.511719 2.859375 L 13.511719 12.863281 C 13.511719 13.414062 13.0625 13.863281 12.511719 13.863281 Z M 3.507812 11.863281 L 11.511719 11.863281 L 11.511719 3.859375 L 3.507812 3.859375 Z M 3.507812 11.863281 "/><path style=" stroke:none;fill-rule:nonzero;fill:#ffffff;fill-opacity:1;" d="M 7.507812 10.859375 C 7.433594 10.859375 7.359375 10.851562 7.285156 10.832031 C 6.992188 10.765625 6.742188 10.570312 6.609375 10.300781 L 4.691406 6.382812 C 4.449219 5.886719 4.65625 5.285156 5.152344 5.042969 C 5.648438 4.796875 6.246094 5.007812 6.488281 5.5 L 7.863281 8.304688 L 17.0625 1.066406 C 17.496094 0.726562 18.128906 0.800781 18.46875 1.234375 C 18.808594 1.671875 18.734375 2.296875 18.300781 2.640625 L 8.125 10.644531 C 7.949219 10.789062 7.730469 10.859375 7.507812 10.859375 Z M 7.507812 10.859375 "/><path style=" stroke:none;fill-rule:nonzero;fill:#ffffff;fill-opacity:1;" d="M 12.511719 29.871094 L 2.507812 29.871094 C 1.953125 29.871094 1.507812 29.417969 1.507812 28.867188 L 1.507812 18.863281 C 1.507812 18.3125 1.953125 17.863281 2.507812 17.863281 L 12.511719 17.863281 C 13.0625 17.863281 13.511719 18.3125 13.511719 18.863281 L 13.511719 28.867188 C 13.511719 29.417969 13.0625 29.871094 12.511719 29.871094 Z M 3.507812 27.867188 L 11.511719 27.867188 L 11.511719 19.863281 L 3.507812 19.863281 Z M 3.507812 27.867188 "/><path style=" stroke:none;fill-rule:nonzero;fill:#ffffff;fill-opacity:1;" d="M 7.507812 26.867188 C 7.433594 26.867188 7.359375 26.859375 7.285156 26.839844 C 6.992188 26.773438 6.742188 26.574219 6.609375 26.304688 L 4.691406 22.386719 C 4.449219 21.890625 4.65625 21.292969 5.152344 21.046875 C 5.648438 20.804688 6.246094 21.007812 6.488281 21.507812 L 7.863281 24.3125 L 17.0625 17.070312 C 17.496094 16.730469 18.128906 16.808594 18.46875 17.238281 C 18.808594 17.675781 18.734375 18.300781 18.300781 18.644531 L 8.125 26.648438 C 7.949219 26.792969 7.730469 26.867188 7.507812 26.867188 Z M 7.507812 26.867188 "/><g clip-rule="nonzero" clip-path="url(#dc275054af)"><path style=" stroke:none;fill-rule:nonzero;fill:#ffffff;fill-opacity:1;" d="M 12.511719 45.875 L 2.507812 45.875 C 1.953125 45.875 1.507812 45.425781 1.507812 44.875 L 1.507812 34.871094 C 1.507812 34.320312 1.953125 33.871094 2.507812 33.871094 L 12.511719 33.871094 C 13.0625 33.871094 13.511719 34.320312 13.511719 34.871094 L 13.511719 44.875 C 13.511719 45.425781 13.0625 45.875 12.511719 45.875 Z M 3.507812 43.875 L 11.511719 43.875 L 11.511719 35.871094 L 3.507812 35.871094 Z M 3.507812 43.875 "/></g><g clip-rule="nonzero" clip-path="url(#7a8c07a2cc)"><path style=" stroke:none;fill-rule:nonzero;fill:#ffffff;fill-opacity:1;" d="M 45.523438 37.871094 L 23.515625 37.871094 C 22.964844 37.871094 22.515625 37.421875 22.515625 36.871094 C 22.515625 36.320312 22.964844 35.871094 23.515625 35.871094 L 45.523438 35.871094 C 46.074219 35.871094 46.527344 36.320312 46.527344 36.871094 C 46.527344 37.421875 46.074219 37.871094 45.523438 37.871094 Z M 45.523438 37.871094 "/></g><g clip-rule="nonzero" clip-path="url(#7f4d70db54)"><path style=" stroke:none;fill-rule:nonzero;fill:#ffffff;fill-opacity:1;" d="M 45.523438 43.875 L 23.515625 43.875 C 22.964844 43.875 22.515625 43.425781 22.515625 42.875 C 22.515625 42.324219 22.964844 41.875 23.515625 41.875 L 45.523438 41.875 C 46.074219 41.875 46.527344 42.324219 46.527344 42.875 C 46.527344 43.425781 46.074219 43.875 45.523438 43.875 Z M 45.523438 43.875 "/></g><g clip-rule="nonzero" clip-path="url(#93665b965a)"><path style=" stroke:none;fill-rule:nonzero;fill:#ffffff;fill-opacity:1;" d="M 45.523438 21.867188 L 23.515625 21.867188 C 22.964844 21.867188 22.515625 21.414062 22.515625 20.867188 C 22.515625 20.3125 22.964844 19.863281 23.515625 19.863281 L 45.523438 19.863281 C 46.074219 19.863281 46.527344 20.3125 46.527344 20.867188 C 46.527344 21.414062 46.074219 21.867188 45.523438 21.867188 Z M 45.523438 21.867188 "/></g><g clip-rule="nonzero" clip-path="url(#3b56d89371)"><path style=" stroke:none;fill-rule:nonzero;fill:#ffffff;fill-opacity:1;" d="M 45.523438 27.867188 L 23.515625 27.867188 C 22.964844 27.867188 22.515625 27.417969 22.515625 26.867188 C 22.515625 26.316406 22.964844 25.867188 23.515625 25.867188 L 45.523438 25.867188 C 46.074219 25.867188 46.527344 26.316406 46.527344 26.867188 C 46.527344 27.417969 46.074219 27.867188 45.523438 27.867188 Z M 45.523438 27.867188 "/></g><g clip-rule="nonzero" clip-path="url(#027e58520d)"><path style=" stroke:none;fill-rule:nonzero;fill:#ffffff;fill-opacity:1;" d="M 45.523438 5.859375 L 23.515625 5.859375 C 22.964844 5.859375 22.515625 5.410156 22.515625 4.859375 C 22.515625 4.304688 22.964844 3.859375 23.515625 3.859375 L 45.523438 3.859375 C 46.074219 3.859375 46.527344 4.304688 46.527344 4.859375 C 46.527344 5.410156 46.074219 5.859375 45.523438 5.859375 Z M 45.523438 5.859375 "/></g><g clip-rule="nonzero" clip-path="url(#154ef8b189)"><path style=" stroke:none;fill-rule:nonzero;fill:#ffffff;fill-opacity:1;" d="M 45.523438 11.863281 L 23.515625 11.863281 C 22.964844 11.863281 22.515625 11.410156 22.515625 10.859375 C 22.515625 10.308594 22.964844 9.859375 23.515625 9.859375 L 45.523438 9.859375 C 46.074219 9.859375 46.527344 10.308594 46.527344 10.859375 C 46.527344 11.410156 46.074219 11.863281 45.523438 11.863281 Z M 45.523438 11.863281 "/></g></g></svg>