<svg xmlns="http://www.w3.org/2000/svg" xmlns:xlink="http://www.w3.org/1999/xlink" width="510" zoomAndPan="magnify" viewBox="0 0 382.5 232.499993" height="310" preserveAspectRatio="xMidYMid meet" version="1.2"><defs><clipPath id="40241e8977"><path d="M 2.074219 139.429688 L 380 139.429688 L 380 174.679688 L 2.074219 174.679688 Z M 2.074219 139.429688 "/></clipPath><clipPath id="e59d76e689"><path d="M 19.699219 139.429688 L 362.300781 139.429688 C 366.976562 139.429688 371.460938 141.285156 374.765625 144.589844 C 378.070312 147.894531 379.925781 152.378906 379.925781 157.054688 C 379.925781 161.726562 378.070312 166.210938 374.765625 169.515625 C 371.460938 172.820312 366.976562 174.679688 362.300781 174.679688 L 19.699219 174.679688 C 15.023438 174.679688 10.542969 172.820312 7.234375 169.515625 C 3.929688 166.210938 2.074219 161.726562 2.074219 157.054688 C 2.074219 152.378906 3.929688 147.894531 7.234375 144.589844 C 10.542969 141.285156 15.023438 139.429688 19.699219 139.429688 Z M 19.699219 139.429688 "/></clipPath><clipPath id="b011c76886"><path d="M 21.558594 147.371094 L 40.140625 147.371094 L 40.140625 165.949219 L 21.558594 165.949219 Z M 21.558594 147.371094 "/></clipPath><clipPath id="63ae5898f2"><path d="M 30.851562 147.371094 C 25.71875 147.371094 21.558594 151.527344 21.558594 156.660156 C 21.558594 161.789062 25.71875 165.949219 30.851562 165.949219 C 35.980469 165.949219 40.140625 161.789062 40.140625 156.660156 C 40.140625 151.527344 35.980469 147.371094 30.851562 147.371094 Z M 30.851562 147.371094 "/></clipPath><clipPath id="5f030a86c6"><path d="M 66.84375 147.371094 L 86.210938 147.371094 L 86.210938 166.738281 L 66.84375 166.738281 Z M 66.84375 147.371094 "/></clipPath><clipPath id="a577b845e8"><path d="M 76.527344 147.371094 C 71.179688 147.371094 66.84375 151.707031 66.84375 157.054688 C 66.84375 162.402344 71.179688 166.738281 76.527344 166.738281 C 81.875 166.738281 86.210938 162.402344 86.210938 157.054688 C 86.210938 151.707031 81.875 147.371094 76.527344 147.371094 Z M 76.527344 147.371094 "/></clipPath><clipPath id="1dfaf12a94"><path d="M 112.546875 147.371094 L 131.914062 147.371094 L 131.914062 166.738281 L 112.546875 166.738281 Z M 112.546875 147.371094 "/></clipPath><clipPath id="ca4b2e69c5"><path d="M 122.230469 147.371094 C 116.882812 147.371094 112.546875 151.707031 112.546875 157.054688 C 112.546875 162.402344 116.882812 166.738281 122.230469 166.738281 C 127.582031 166.738281 131.914062 162.402344 131.914062 157.054688 C 131.914062 151.707031 127.582031 147.371094 122.230469 147.371094 Z M 122.230469 147.371094 "/></clipPath><clipPath id="c0590a513d"><path d="M 158.253906 147.371094 L 177.621094 147.371094 L 177.621094 166.738281 L 158.253906 166.738281 Z M 158.253906 147.371094 "/></clipPath><clipPath id="874a97ec89"><path d="M 167.9375 147.371094 C 162.589844 147.371094 158.253906 151.707031 158.253906 157.054688 C 158.253906 162.402344 162.589844 166.738281 167.9375 166.738281 C 173.285156 166.738281 177.621094 162.402344 177.621094 157.054688 C 177.621094 151.707031 173.285156 147.371094 167.9375 147.371094 Z M 167.9375 147.371094 "/></clipPath><clipPath id="3cff97628b"><path d="M 203.957031 147.371094 L 223.324219 147.371094 L 223.324219 166.738281 L 203.957031 166.738281 Z M 203.957031 147.371094 "/></clipPath><clipPath id="92cae0a2cf"><path d="M 213.640625 147.371094 C 208.292969 147.371094 203.957031 151.707031 203.957031 157.054688 C 203.957031 162.402344 208.292969 166.738281 213.640625 166.738281 C 218.992188 166.738281 223.324219 162.402344 223.324219 157.054688 C 223.324219 151.707031 218.992188 147.371094 213.640625 147.371094 Z M 213.640625 147.371094 "/></clipPath><clipPath id="cd4bb0db8c"><path d="M 249.664062 147.371094 L 269.03125 147.371094 L 269.03125 166.738281 L 249.664062 166.738281 Z M 249.664062 147.371094 "/></clipPath><clipPath id="138cee55c2"><path d="M 259.347656 147.371094 C 254 147.371094 249.664062 151.707031 249.664062 157.054688 C 249.664062 162.402344 254 166.738281 259.347656 166.738281 C 264.695312 166.738281 269.03125 162.402344 269.03125 157.054688 C 269.03125 151.707031 264.695312 147.371094 259.347656 147.371094 Z M 259.347656 147.371094 "/></clipPath><clipPath id="7d87bf36ce"><path d="M 295.367188 147.371094 L 314.738281 147.371094 L 314.738281 166.738281 L 295.367188 166.738281 Z M 295.367188 147.371094 "/></clipPath><clipPath id="95fbd6f69b"><path d="M 305.050781 147.371094 C 299.703125 147.371094 295.367188 151.707031 295.367188 157.054688 C 295.367188 162.402344 299.703125 166.738281 305.050781 166.738281 C 310.402344 166.738281 314.738281 162.402344 314.738281 157.054688 C 314.738281 151.707031 310.402344 147.371094 305.050781 147.371094 Z M 305.050781 147.371094 "/></clipPath><clipPath id="84dccdbebc"><path d="M 341.074219 147.371094 L 360.441406 147.371094 L 360.441406 166.738281 L 341.074219 166.738281 Z M 341.074219 147.371094 "/></clipPath><clipPath id="6bbf617c14"><path d="M 350.757812 147.371094 C 345.410156 147.371094 341.074219 151.707031 341.074219 157.054688 C 341.074219 162.402344 345.410156 166.738281 350.757812 166.738281 C 356.105469 166.738281 360.441406 162.402344 360.441406 157.054688 C 360.441406 151.707031 356.105469 147.371094 350.757812 147.371094 Z M 350.757812 147.371094 "/></clipPath><clipPath id="4ce3c11069"><path d="M 22.347656 172.292969 L 40.140625 172.292969 L 40.140625 219.777344 L 22.347656 219.777344 Z M 22.347656 172.292969 "/></clipPath><clipPath id="304105586c"><path d="M 341.859375 172.292969 L 359.65625 172.292969 L 359.65625 219.777344 L 341.859375 219.777344 Z M 341.859375 172.292969 "/></clipPath><clipPath id="f6f6181e6a"><path d="M 45.828125 125.5625 L 93.3125 125.5625 L 93.3125 140.078125 L 45.828125 140.078125 Z M 45.828125 125.5625 "/></clipPath><clipPath id="4ae30c7942"><path d="M 205.628906 125.5625 L 253.113281 125.5625 L 253.113281 140.078125 L 205.628906 140.078125 Z M 205.628906 125.5625 "/></clipPath><clipPath id="e4e75cca31"><path d="M 290.996094 125.5625 L 338.480469 125.5625 L 338.480469 140.078125 L 290.996094 140.078125 Z M 290.996094 125.5625 "/></clipPath><filter x="0%" y="0%" width="100%" filterUnits="objectBoundingBox" id="6aa4f4e1b4" height="100%"><feColorMatrix values="0 0 0 0 1 0 0 0 0 1 0 0 0 0 1 0 0 0 1 0" type="matrix" in="SourceGraphic"/></filter><clipPath id="b3ce584268"><path d="M 1 0.339844 L 79.03125 0.339844 L 79.03125 99.097656 L 1 99.097656 Z M 1 0.339844 "/></clipPath><clipPath id="7cf9623f1c"><path d="M 40.015625 0.339844 L 79.03125 99.082031 L 1 99.082031 Z M 40.015625 0.339844 "/></clipPath><clipPath id="478b5b66bd"><rect x="0" width="80" y="0" height="100"/></clipPath><clipPath id="9cba12a810"><path d="M 213.640625 58.707031 L 245.210938 58.707031 L 245.210938 72.960938 L 213.640625 72.960938 Z M 213.640625 58.707031 "/></clipPath><clipPath id="4e7f32cf3f"><path d="M 220.03125 58.707031 L 238.773438 58.707031 L 245.164062 72.960938 L 213.640625 72.960938 Z M 220.03125 58.707031 "/></clipPath><clipPath id="38c2d22f5f"><path d="M 191 73 L 219 73 L 219 140 L 191 140 Z M 191 73 "/></clipPath><clipPath id="26b4c43539"><path d="M 171.527344 93.195312 L 218.132812 72.753906 L 238.574219 119.355469 L 191.972656 139.800781 Z M 171.527344 93.195312 "/></clipPath><clipPath id="d9e7d7c778"><path d="M 171.527344 93.195312 L 218.132812 72.753906 L 238.574219 119.355469 L 191.972656 139.800781 Z M 171.527344 93.195312 "/></clipPath><clipPath id="2bc1e40939"><path d="M 241 73 L 269 73 L 269 140 L 241 140 Z M 241 73 "/></clipPath><clipPath id="3b92b5067c"><path d="M 221.699219 119.433594 L 241.808594 72.683594 L 288.558594 92.789062 L 268.449219 139.539062 Z M 221.699219 119.433594 "/></clipPath><clipPath id="d196b3d63d"><path d="M 221.699219 119.433594 L 241.808594 72.683594 L 288.558594 92.789062 L 268.449219 139.539062 Z M 221.699219 119.433594 "/></clipPath><clipPath id="76a4769d33"><path d="M 274.425781 15.910156 L 301.886719 15.910156 L 301.886719 41.207031 L 274.425781 41.207031 Z M 274.425781 15.910156 "/></clipPath><clipPath id="36553a8490"><path d="M 324.75 16.039062 L 367.613281 16.039062 L 367.613281 46.984375 L 324.75 46.984375 Z M 324.75 16.039062 "/></clipPath><clipPath id="c311d5766d"><path d="M 326.863281 18.351562 L 365.382812 18.351562 L 365.382812 44.675781 L 326.863281 44.675781 Z M 326.863281 18.351562 "/></clipPath><clipPath id="34094e6c20"><path d="M 209.246094 10.71875 L 249.488281 10.71875 L 249.488281 61 L 209.246094 61 Z M 209.246094 10.71875 "/></clipPath><clipPath id="b371e6baef"><path d="M 209.996094 10.71875 L 248.738281 10.71875 C 248.9375 10.71875 249.128906 10.796875 249.269531 10.9375 C 249.410156 11.078125 249.488281 11.269531 249.488281 11.46875 L 249.488281 60.203125 C 249.488281 60.402344 249.410156 60.59375 249.269531 60.734375 C 249.128906 60.875 248.9375 60.953125 248.738281 60.953125 L 209.996094 60.953125 C 209.796875 60.953125 209.605469 60.875 209.464844 60.734375 C 209.328125 60.59375 209.246094 60.402344 209.246094 60.203125 L 209.246094 11.46875 C 209.246094 11.269531 209.328125 11.078125 209.464844 10.9375 C 209.605469 10.796875 209.796875 10.71875 209.996094 10.71875 Z M 209.996094 10.71875 "/></clipPath><clipPath id="d40970d43e"><path d="M 216.433594 10.71875 L 242.242188 10.71875 L 242.242188 53.566406 L 216.433594 53.566406 Z M 216.433594 10.71875 "/></clipPath><clipPath id="0af55ab1df"><path d="M 217.183594 10.71875 L 241.496094 10.71875 C 241.691406 10.71875 241.882812 10.796875 242.023438 10.9375 C 242.164062 11.078125 242.242188 11.269531 242.242188 11.46875 L 242.242188 52.78125 C 242.242188 52.980469 242.164062 53.171875 242.023438 53.308594 C 241.882812 53.449219 241.691406 53.53125 241.496094 53.53125 L 217.183594 53.53125 C 216.984375 53.53125 216.792969 53.449219 216.652344 53.308594 C 216.511719 53.171875 216.433594 52.980469 216.433594 52.78125 L 216.433594 11.46875 C 216.433594 11.269531 216.511719 11.078125 216.652344 10.9375 C 216.792969 10.796875 216.984375 10.71875 217.183594 10.71875 Z M 217.183594 10.71875 "/></clipPath><clipPath id="a36738926b"><path d="M 132.042969 133.238281 L 166.898438 133.238281 L 166.898438 140.074219 L 132.042969 140.074219 Z M 132.042969 133.238281 "/></clipPath><clipPath id="37688afa1a"><path d="M 26.226562 152.035156 L 35.472656 152.035156 L 35.472656 161.285156 L 26.226562 161.285156 Z M 26.226562 152.035156 "/></clipPath><clipPath id="dc31d2c197"><path d="M 30.851562 152.035156 C 28.296875 152.035156 26.226562 154.105469 26.226562 156.660156 C 26.226562 159.214844 28.296875 161.285156 30.851562 161.285156 C 33.402344 161.285156 35.472656 159.214844 35.472656 156.660156 C 35.472656 154.105469 33.402344 152.035156 30.851562 152.035156 Z M 30.851562 152.035156 "/></clipPath><clipPath id="d8b9b95033"><path d="M 71.902344 152.429688 L 81.152344 152.429688 L 81.152344 161.675781 L 71.902344 161.675781 Z M 71.902344 152.429688 "/></clipPath><clipPath id="18de5654c5"><path d="M 76.527344 152.429688 C 73.972656 152.429688 71.902344 154.5 71.902344 157.054688 C 71.902344 159.605469 73.972656 161.675781 76.527344 161.675781 C 79.082031 161.675781 81.152344 159.605469 81.152344 157.054688 C 81.152344 154.5 79.082031 152.429688 76.527344 152.429688 Z M 76.527344 152.429688 "/></clipPath><clipPath id="462891d323"><path d="M 117.644531 152.429688 L 126.890625 152.429688 L 126.890625 161.675781 L 117.644531 161.675781 Z M 117.644531 152.429688 "/></clipPath><clipPath id="c6b6450144"><path d="M 122.265625 152.429688 C 119.714844 152.429688 117.644531 154.5 117.644531 157.054688 C 117.644531 159.605469 119.714844 161.675781 122.265625 161.675781 C 124.820312 161.675781 126.890625 159.605469 126.890625 157.054688 C 126.890625 154.5 124.820312 152.429688 122.265625 152.429688 Z M 122.265625 152.429688 "/></clipPath><clipPath id="ab5b8cf923"><path d="M 163.277344 152.429688 L 172.527344 152.429688 L 172.527344 161.675781 L 163.277344 161.675781 Z M 163.277344 152.429688 "/></clipPath><clipPath id="c9bbd9add3"><path d="M 167.902344 152.429688 C 165.347656 152.429688 163.277344 154.5 163.277344 157.054688 C 163.277344 159.605469 165.347656 161.675781 167.902344 161.675781 C 170.457031 161.675781 172.527344 159.605469 172.527344 157.054688 C 172.527344 154.5 170.457031 152.429688 167.902344 152.429688 Z M 167.902344 152.429688 "/></clipPath><clipPath id="a3b205e661"><path d="M 208.984375 152.035156 L 218.230469 152.035156 L 218.230469 161.285156 L 208.984375 161.285156 Z M 208.984375 152.035156 "/></clipPath><clipPath id="0e5e81e687"><path d="M 213.605469 152.035156 C 211.054688 152.035156 208.984375 154.105469 208.984375 156.660156 C 208.984375 159.214844 211.054688 161.285156 213.605469 161.285156 C 216.160156 161.285156 218.230469 159.214844 218.230469 156.660156 C 218.230469 154.105469 216.160156 152.035156 213.605469 152.035156 Z M 213.605469 152.035156 "/></clipPath><clipPath id="b8cea217f0"><path d="M 254.925781 152.429688 L 264.175781 152.429688 L 264.175781 161.675781 L 254.925781 161.675781 Z M 254.925781 152.429688 "/></clipPath><clipPath id="8a247a617c"><path d="M 259.550781 152.429688 C 256.996094 152.429688 254.925781 154.5 254.925781 157.054688 C 254.925781 159.605469 256.996094 161.675781 259.550781 161.675781 C 262.105469 161.675781 264.175781 159.605469 264.175781 157.054688 C 264.175781 154.5 262.105469 152.429688 259.550781 152.429688 Z M 259.550781 152.429688 "/></clipPath><clipPath id="cbabdaa60d"><path d="M 300.429688 152.035156 L 309.675781 152.035156 L 309.675781 161.285156 L 300.429688 161.285156 Z M 300.429688 152.035156 "/></clipPath><clipPath id="e3d232d1e6"><path d="M 305.050781 152.035156 C 302.5 152.035156 300.429688 154.105469 300.429688 156.660156 C 300.429688 159.214844 302.5 161.285156 305.050781 161.285156 C 307.605469 161.285156 309.675781 159.214844 309.675781 156.660156 C 309.675781 154.105469 307.605469 152.035156 305.050781 152.035156 Z M 305.050781 152.035156 "/></clipPath><clipPath id="76c0508386"><path d="M 346.121094 152.429688 L 355.367188 152.429688 L 355.367188 161.675781 L 346.121094 161.675781 Z M 346.121094 152.429688 "/></clipPath><clipPath id="9f043e318e"><path d="M 350.746094 152.429688 C 348.191406 152.429688 346.121094 154.5 346.121094 157.054688 C 346.121094 159.605469 348.191406 161.675781 350.746094 161.675781 C 353.300781 161.675781 355.367188 159.605469 355.367188 157.054688 C 355.367188 154.5 353.300781 152.429688 350.746094 152.429688 Z M 350.746094 152.429688 "/></clipPath></defs><g id="2004bcddb1"><g clip-rule="nonzero" clip-path="url(#40241e8977)"><g clip-rule="nonzero" clip-path="url(#e59d76e689)"><path style=" stroke:none;fill-rule:nonzero;fill:#656570;fill-opacity:1;" d="M 2.074219 139.429688 L 379.910156 139.429688 L 379.910156 174.679688 L 2.074219 174.679688 Z M 2.074219 139.429688 "/></g></g><g clip-rule="nonzero" clip-path="url(#b011c76886)"><g clip-rule="nonzero" clip-path="url(#63ae5898f2)"><path style=" stroke:none;fill-rule:nonzero;fill:#eaeaea;fill-opacity:1;" d="M 21.558594 147.371094 L 40.140625 147.371094 L 40.140625 165.949219 L 21.558594 165.949219 Z M 21.558594 147.371094 "/></g></g><g clip-rule="nonzero" clip-path="url(#5f030a86c6)"><g clip-rule="nonzero" clip-path="url(#a577b845e8)"><path style=" stroke:none;fill-rule:nonzero;fill:#eaeaea;fill-opacity:1;" d="M 66.84375 147.371094 L 86.210938 147.371094 L 86.210938 166.738281 L 66.84375 166.738281 Z M 66.84375 147.371094 "/></g></g><g clip-rule="nonzero" clip-path="url(#1dfaf12a94)"><g clip-rule="nonzero" clip-path="url(#ca4b2e69c5)"><path style=" stroke:none;fill-rule:nonzero;fill:#eaeaea;fill-opacity:1;" d="M 112.546875 147.371094 L 131.914062 147.371094 L 131.914062 166.738281 L 112.546875 166.738281 Z M 112.546875 147.371094 "/></g></g><g clip-rule="nonzero" clip-path="url(#c0590a513d)"><g clip-rule="nonzero" clip-path="url(#874a97ec89)"><path style=" stroke:none;fill-rule:nonzero;fill:#eaeaea;fill-opacity:1;" d="M 158.253906 147.371094 L 177.621094 147.371094 L 177.621094 166.738281 L 158.253906 166.738281 Z M 158.253906 147.371094 "/></g></g><g clip-rule="nonzero" clip-path="url(#3cff97628b)"><g clip-rule="nonzero" clip-path="url(#92cae0a2cf)"><path style=" stroke:none;fill-rule:nonzero;fill:#eaeaea;fill-opacity:1;" d="M 203.957031 147.371094 L 223.324219 147.371094 L 223.324219 166.738281 L 203.957031 166.738281 Z M 203.957031 147.371094 "/></g></g><g clip-rule="nonzero" clip-path="url(#cd4bb0db8c)"><g clip-rule="nonzero" clip-path="url(#138cee55c2)"><path style=" stroke:none;fill-rule:nonzero;fill:#eaeaea;fill-opacity:1;" d="M 249.664062 147.371094 L 269.03125 147.371094 L 269.03125 166.738281 L 249.664062 166.738281 Z M 249.664062 147.371094 "/></g></g><g clip-rule="nonzero" clip-path="url(#7d87bf36ce)"><g clip-rule="nonzero" clip-path="url(#95fbd6f69b)"><path style=" stroke:none;fill-rule:nonzero;fill:#eaeaea;fill-opacity:1;" d="M 295.367188 147.371094 L 314.738281 147.371094 L 314.738281 166.738281 L 295.367188 166.738281 Z M 295.367188 147.371094 "/></g></g><g clip-rule="nonzero" clip-path="url(#84dccdbebc)"><g clip-rule="nonzero" clip-path="url(#6bbf617c14)"><path style=" stroke:none;fill-rule:nonzero;fill:#eaeaea;fill-opacity:1;" d="M 341.074219 147.371094 L 360.441406 147.371094 L 360.441406 166.738281 L 341.074219 166.738281 Z M 341.074219 147.371094 "/></g></g><g clip-rule="nonzero" clip-path="url(#4ce3c11069)"><path style=" stroke:none;fill-rule:nonzero;fill:#656570;fill-opacity:1;" d="M 22.347656 172.292969 L 40.140625 172.292969 L 40.140625 219.765625 L 22.347656 219.765625 Z M 22.347656 172.292969 "/></g><g clip-rule="nonzero" clip-path="url(#304105586c)"><path style=" stroke:none;fill-rule:nonzero;fill:#656570;fill-opacity:1;" d="M 341.859375 172.292969 L 359.65625 172.292969 L 359.65625 219.765625 L 341.859375 219.765625 Z M 341.859375 172.292969 "/></g><g clip-rule="nonzero" clip-path="url(#f6f6181e6a)"><path style=" stroke:none;fill-rule:nonzero;fill:#b9b9b9;fill-opacity:1;" d="M 45.828125 140.078125 L 45.828125 125.5625 L 93.285156 125.5625 L 93.285156 140.078125 Z M 45.828125 140.078125 "/></g><g clip-rule="nonzero" clip-path="url(#4ae30c7942)"><path style=" stroke:none;fill-rule:nonzero;fill:#b9b9b9;fill-opacity:1;" d="M 205.628906 140.078125 L 205.628906 125.5625 L 253.085938 125.5625 L 253.085938 140.078125 Z M 205.628906 140.078125 "/></g><g clip-rule="nonzero" clip-path="url(#e4e75cca31)"><path style=" stroke:none;fill-rule:nonzero;fill:#b9b9b9;fill-opacity:1;" d="M 290.996094 140.078125 L 290.996094 125.5625 L 338.453125 125.5625 L 338.453125 140.078125 Z M 290.996094 140.078125 "/></g><g mask="url(#fc522a293b)" transform="matrix(1,0,0,1,190,41)"><g clip-path="url(#478b5b66bd)"><g clip-rule="nonzero" clip-path="url(#b3ce584268)"><g clip-rule="nonzero" clip-path="url(#7cf9623f1c)"><path style=" stroke:none;fill-rule:nonzero;fill:#4466b9;fill-opacity:1;" d="M 1 0.339844 L 79.03125 0.339844 L 79.03125 99.097656 L 1 99.097656 Z M 1 0.339844 "/></g></g></g><mask id="fc522a293b"><g filter="url(#6aa4f4e1b4)"><rect x="0" width="382.5" y="0" height="232.499993" style="fill:#000000;fill-opacity:0.5;stroke:none;"/></g></mask></g><path style="fill:none;stroke-width:3;stroke-linecap:butt;stroke-linejoin:miter;stroke:#d9d9d9;stroke-opacity:1;stroke-miterlimit:4;" d="M 0.00199451 1.502364 L 150.438554 1.502364 " transform="matrix(0.746292,0.000000000000000317,-0.000000000000000317,0.746292,234.701637,27.441298)"/><g clip-rule="nonzero" clip-path="url(#9cba12a810)"><g clip-rule="nonzero" clip-path="url(#4e7f32cf3f)"><path style=" stroke:none;fill-rule:nonzero;fill:#a3a4a5;fill-opacity:1;" d="M 213.640625 58.707031 L 245.152344 58.707031 L 245.152344 72.960938 L 213.640625 72.960938 Z M 213.640625 58.707031 "/></g></g><g clip-rule="nonzero" clip-path="url(#38c2d22f5f)"><g clip-rule="nonzero" clip-path="url(#26b4c43539)"><g clip-rule="nonzero" clip-path="url(#d9e7d7c778)"><path style=" stroke:none;fill-rule:nonzero;fill:#4466b9;fill-opacity:1;" d="M 217.03125 73.328125 C 216.832031 73.414062 216.667969 73.574219 216.585938 73.792969 L 215.765625 75.898438 C 215.59375 76.328125 215.808594 76.816406 216.242188 76.984375 C 216.457031 77.070312 216.6875 77.058594 216.882812 76.972656 C 217.082031 76.886719 217.246094 76.726562 217.328125 76.507812 L 218.148438 74.402344 C 218.320312 73.96875 218.105469 73.484375 217.671875 73.3125 C 217.457031 73.230469 217.226562 73.242188 217.03125 73.328125 Z M 214.996094 78.539062 C 214.800781 78.625 214.636719 78.785156 214.550781 79 L 213.339844 82.105469 C 213.171875 82.539062 213.386719 83.023438 213.820312 83.195312 C 214.035156 83.277344 214.265625 83.265625 214.460938 83.179688 C 214.660156 83.09375 214.820312 82.933594 214.90625 82.714844 L 216.117188 79.613281 C 216.285156 79.179688 216.074219 78.691406 215.640625 78.523438 C 215.425781 78.441406 215.195312 78.449219 214.996094 78.539062 Z M 212.574219 84.746094 C 212.378906 84.832031 212.214844 84.992188 212.128906 85.210938 L 210.917969 88.3125 C 210.75 88.746094 210.964844 89.234375 211.394531 89.402344 C 211.613281 89.488281 211.84375 89.476562 212.039062 89.390625 C 212.234375 89.300781 212.398438 89.140625 212.484375 88.925781 L 213.695312 85.820312 C 213.863281 85.386719 213.652344 84.902344 213.21875 84.734375 C 213 84.648438 212.773438 84.660156 212.574219 84.746094 Z M 210.152344 90.957031 C 209.953125 91.042969 209.792969 91.203125 209.707031 91.421875 L 208.496094 94.523438 C 208.328125 94.957031 208.539062 95.445312 208.972656 95.613281 C 209.1875 95.699219 209.417969 95.6875 209.617188 95.601562 C 209.8125 95.515625 209.976562 95.351562 210.0625 95.136719 L 211.273438 92.03125 C 211.441406 91.597656 211.226562 91.113281 210.792969 90.945312 C 210.578125 90.859375 210.347656 90.867188 210.152344 90.957031 Z M 207.730469 97.164062 C 207.535156 97.25 207.371094 97.410156 207.285156 97.628906 L 206.074219 100.734375 C 205.90625 101.167969 206.117188 101.652344 206.550781 101.820312 C 206.765625 101.90625 206.996094 101.894531 207.191406 101.808594 C 207.390625 101.722656 207.554688 101.558594 207.636719 101.34375 L 208.851562 98.238281 C 209.019531 97.804688 208.804688 97.320312 208.375 97.148438 C 208.15625 97.066406 207.925781 97.078125 207.730469 97.164062 Z M 205.308594 103.375 C 205.109375 103.460938 204.945312 103.621094 204.863281 103.839844 L 203.652344 106.941406 C 203.480469 107.375 203.695312 107.863281 204.128906 108.03125 C 204.34375 108.113281 204.574219 108.105469 204.769531 108.015625 C 204.96875 107.929688 205.132812 107.769531 205.214844 107.554688 L 206.425781 104.449219 C 206.597656 104.015625 206.382812 103.53125 205.949219 103.359375 C 205.734375 103.277344 205.503906 103.289062 205.308594 103.375 Z M 202.882812 109.582031 C 202.6875 109.667969 202.523438 109.832031 202.4375 110.050781 L 201.226562 113.152344 C 201.058594 113.585938 201.273438 114.074219 201.703125 114.242188 C 201.921875 114.324219 202.152344 114.3125 202.347656 114.226562 C 202.542969 114.140625 202.707031 113.980469 202.792969 113.765625 L 204.003906 110.660156 C 204.171875 110.226562 203.960938 109.742188 203.527344 109.570312 C 203.308594 109.488281 203.078125 109.496094 202.882812 109.582031 Z M 200.460938 115.792969 C 200.265625 115.878906 200.101562 116.039062 200.015625 116.253906 L 198.804688 119.363281 C 198.636719 119.792969 198.847656 120.28125 199.28125 120.449219 C 199.5 120.535156 199.726562 120.523438 199.925781 120.4375 C 200.121094 120.351562 200.285156 120.1875 200.371094 119.972656 L 201.582031 116.867188 C 201.75 116.433594 201.539062 115.945312 201.105469 115.777344 C 200.886719 115.695312 200.660156 115.707031 200.460938 115.792969 Z M 198.039062 122 C 197.84375 122.085938 197.679688 122.246094 197.59375 122.464844 L 196.382812 125.570312 C 196.214844 126 196.429688 126.488281 196.859375 126.65625 C 197.078125 126.742188 197.304688 126.730469 197.503906 126.644531 C 197.699219 126.558594 197.863281 126.394531 197.949219 126.179688 L 199.160156 123.074219 C 199.328125 122.640625 199.117188 122.15625 198.683594 121.988281 C 198.464844 121.902344 198.238281 121.914062 198.039062 122 Z M 195.617188 128.210938 C 195.417969 128.296875 195.257812 128.457031 195.171875 128.675781 L 193.960938 131.78125 C 193.792969 132.210938 194.003906 132.699219 194.4375 132.867188 C 194.652344 132.953125 194.882812 132.941406 195.082031 132.855469 C 195.277344 132.769531 195.441406 132.605469 195.523438 132.390625 L 196.738281 129.285156 C 196.90625 128.851562 196.691406 128.367188 196.257812 128.199219 C 196.042969 128.113281 195.8125 128.125 195.617188 128.210938 Z M 193.195312 134.417969 C 192.996094 134.507812 192.832031 134.667969 192.75 134.882812 L 191.539062 137.988281 C 191.367188 138.421875 191.582031 138.90625 192.015625 139.074219 C 192.230469 139.160156 192.460938 139.148438 192.65625 139.0625 C 192.855469 138.976562 193.019531 138.816406 193.101562 138.597656 L 194.3125 135.496094 C 194.484375 135.0625 194.269531 134.574219 193.835938 134.40625 C 193.621094 134.320312 193.390625 134.332031 193.195312 134.417969 Z M 193.195312 134.417969 "/></g></g></g><g clip-rule="nonzero" clip-path="url(#2bc1e40939)"><g clip-rule="nonzero" clip-path="url(#3b92b5067c)"><g clip-rule="nonzero" clip-path="url(#d196b3d63d)"><path style=" stroke:none;fill-rule:nonzero;fill:#4466b9;fill-opacity:1;" d="M 241.394531 73.855469 C 241.308594 74.054688 241.300781 74.285156 241.386719 74.5 L 242.222656 76.597656 C 242.394531 77.03125 242.882812 77.238281 243.3125 77.066406 C 243.527344 76.980469 243.6875 76.816406 243.773438 76.621094 C 243.859375 76.421875 243.871094 76.191406 243.78125 75.976562 L 242.945312 73.878906 C 242.773438 73.445312 242.285156 73.234375 241.855469 73.40625 C 241.640625 73.492188 241.480469 73.660156 241.394531 73.855469 Z M 243.464844 79.050781 C 243.378906 79.25 243.371094 79.476562 243.457031 79.695312 L 244.691406 82.789062 C 244.863281 83.222656 245.347656 83.429688 245.78125 83.257812 C 245.996094 83.171875 246.15625 83.007812 246.242188 82.8125 C 246.328125 82.613281 246.335938 82.382812 246.25 82.167969 L 245.015625 79.070312 C 244.84375 78.640625 244.355469 78.429688 243.925781 78.601562 C 243.710938 78.6875 243.550781 78.855469 243.464844 79.050781 Z M 245.929688 85.242188 C 245.847656 85.441406 245.835938 85.667969 245.921875 85.886719 L 247.15625 88.980469 C 247.328125 89.414062 247.816406 89.621094 248.246094 89.449219 C 248.464844 89.363281 248.625 89.199219 248.707031 89 C 248.792969 88.804688 248.804688 88.574219 248.71875 88.359375 L 247.484375 85.261719 C 247.3125 84.832031 246.824219 84.621094 246.390625 84.792969 C 246.175781 84.878906 246.015625 85.046875 245.929688 85.242188 Z M 248.398438 91.433594 C 248.3125 91.632812 248.304688 91.863281 248.390625 92.078125 L 249.625 95.175781 C 249.796875 95.605469 250.285156 95.816406 250.714844 95.644531 C 250.929688 95.558594 251.09375 95.390625 251.175781 95.195312 C 251.261719 94.996094 251.273438 94.769531 251.183594 94.550781 L 249.953125 91.457031 C 249.78125 91.023438 249.292969 90.816406 248.859375 90.988281 C 248.644531 91.074219 248.484375 91.238281 248.398438 91.433594 Z M 250.867188 97.625 C 250.78125 97.820312 250.769531 98.050781 250.855469 98.265625 L 252.09375 101.363281 C 252.265625 101.796875 252.75 102.007812 253.183594 101.835938 C 253.398438 101.75 253.558594 101.582031 253.644531 101.386719 C 253.730469 101.1875 253.738281 100.957031 253.652344 100.742188 L 252.417969 97.644531 C 252.246094 97.214844 251.757812 97.003906 251.328125 97.175781 C 251.109375 97.261719 250.949219 97.425781 250.867188 97.625 Z M 253.335938 103.816406 C 253.25 104.015625 253.238281 104.246094 253.324219 104.460938 L 254.558594 107.554688 C 254.730469 107.988281 255.21875 108.195312 255.648438 108.023438 C 255.867188 107.941406 256.027344 107.773438 256.109375 107.578125 C 256.195312 107.378906 256.207031 107.148438 256.121094 106.933594 L 254.886719 103.839844 C 254.714844 103.40625 254.226562 103.195312 253.792969 103.367188 C 253.578125 103.453125 253.417969 103.621094 253.335938 103.816406 Z M 255.800781 110.011719 C 255.714844 110.207031 255.707031 110.4375 255.792969 110.652344 L 257.027344 113.75 C 257.199219 114.179688 257.6875 114.390625 258.117188 114.21875 C 258.332031 114.132812 258.496094 113.96875 258.578125 113.769531 C 258.664062 113.574219 258.671875 113.34375 258.585938 113.128906 L 257.355469 110.03125 C 257.183594 109.601562 256.695312 109.390625 256.261719 109.5625 C 256.046875 109.648438 255.886719 109.8125 255.800781 110.011719 Z M 258.269531 116.199219 C 258.183594 116.398438 258.171875 116.625 258.261719 116.84375 L 259.496094 119.941406 C 259.667969 120.371094 260.152344 120.582031 260.585938 120.410156 C 260.800781 120.324219 260.960938 120.160156 261.046875 119.960938 C 261.132812 119.761719 261.140625 119.535156 261.054688 119.316406 L 259.820312 116.21875 C 259.648438 115.789062 259.160156 115.578125 258.730469 115.75 C 258.511719 115.835938 258.351562 116.003906 258.269531 116.199219 Z M 260.734375 122.390625 C 260.652344 122.585938 260.640625 122.816406 260.726562 123.035156 L 261.960938 126.128906 C 262.132812 126.558594 262.621094 126.769531 263.050781 126.597656 C 263.265625 126.511719 263.425781 126.347656 263.511719 126.148438 C 263.597656 125.953125 263.609375 125.722656 263.519531 125.507812 L 262.289062 122.410156 C 262.117188 121.980469 261.628906 121.769531 261.195312 121.941406 C 260.980469 122.027344 260.820312 122.191406 260.734375 122.390625 Z M 263.203125 128.582031 C 263.117188 128.78125 263.109375 129.011719 263.195312 129.226562 L 264.429688 132.320312 C 264.601562 132.753906 265.089844 132.964844 265.519531 132.792969 C 265.734375 132.707031 265.894531 132.539062 265.980469 132.34375 C 266.066406 132.144531 266.074219 131.914062 265.988281 131.699219 L 264.753906 128.605469 C 264.582031 128.171875 264.097656 127.964844 263.664062 128.136719 C 263.449219 128.222656 263.289062 128.386719 263.203125 128.582031 Z M 265.671875 134.773438 C 265.585938 134.972656 265.578125 135.203125 265.664062 135.417969 L 266.894531 138.511719 C 267.066406 138.945312 267.554688 139.15625 267.988281 138.984375 C 268.203125 138.898438 268.363281 138.730469 268.449219 138.535156 C 268.53125 138.335938 268.542969 138.105469 268.457031 137.890625 L 267.222656 134.796875 C 267.050781 134.363281 266.5625 134.152344 266.132812 134.328125 C 265.914062 134.414062 265.753906 134.578125 265.671875 134.773438 Z M 265.671875 134.773438 "/></g></g></g><g clip-rule="nonzero" clip-path="url(#76a4769d33)"><path style=" stroke:none;fill-rule:nonzero;fill:#a3a4a5;fill-opacity:1;" d="M 274.425781 41.207031 L 274.425781 15.910156 L 301.894531 15.910156 L 301.894531 41.207031 Z M 274.425781 41.207031 "/></g><g clip-rule="nonzero" clip-path="url(#36553a8490)"><path style=" stroke:none;fill-rule:nonzero;fill:#c0c2c5;fill-opacity:1;" d="M 324.75 46.984375 L 324.75 16.039062 L 367.660156 16.039062 L 367.660156 46.984375 Z M 324.75 46.984375 "/></g><g clip-rule="nonzero" clip-path="url(#c311d5766d)"><path style=" stroke:none;fill-rule:nonzero;fill:#a3a4a5;fill-opacity:1;" d="M 326.863281 44.675781 L 326.863281 18.351562 L 365.421875 18.351562 L 365.421875 44.675781 Z M 326.863281 44.675781 "/></g><g style="fill:#0f52c5;fill-opacity:1;"><g transform="translate(279.668082, 33.451081)"><path style="stroke:none" d="M 8.203125 -2.03125 L 3.890625 -2.03125 L 3.203125 0 L 0.265625 0 L 4.4375 -11.546875 L 7.6875 -11.546875 L 11.875 0 L 8.890625 0 Z M 7.484375 -4.203125 L 6.046875 -8.4375 L 4.640625 -4.203125 Z M 7.484375 -4.203125 "/></g></g><g style="fill:#0f52c5;fill-opacity:1;"><g transform="translate(291.783527, 33.451081)"><path style="stroke:none" d="M 3.828125 -11.546875 L 3.828125 0 L 1.015625 0 L 1.015625 -11.546875 Z M 3.828125 -11.546875 "/></g></g><g style="fill:#00dbb4;fill-opacity:1;"><g transform="translate(333.981179, 36.689005)"><path style="stroke:none" d="M 6.46875 0.109375 C 5.382812 0.109375 4.390625 -0.140625 3.484375 -0.640625 C 2.585938 -1.140625 1.875 -1.84375 1.34375 -2.75 C 0.8125 -3.65625 0.546875 -4.671875 0.546875 -5.796875 C 0.546875 -6.929688 0.8125 -7.945312 1.34375 -8.84375 C 1.875 -9.738281 2.585938 -10.4375 3.484375 -10.9375 C 4.390625 -11.445312 5.382812 -11.703125 6.46875 -11.703125 C 7.5625 -11.703125 8.554688 -11.445312 9.453125 -10.9375 C 10.359375 -10.4375 11.070312 -9.738281 11.59375 -8.84375 C 12.113281 -7.945312 12.375 -6.929688 12.375 -5.796875 C 12.375 -4.671875 12.109375 -3.65625 11.578125 -2.75 C 11.054688 -1.84375 10.347656 -1.140625 9.453125 -0.640625 C 8.554688 -0.140625 7.5625 0.109375 6.46875 0.109375 Z M 6.46875 -2.453125 C 7.394531 -2.453125 8.132812 -2.757812 8.6875 -3.375 C 9.238281 -3.988281 9.515625 -4.796875 9.515625 -5.796875 C 9.515625 -6.816406 9.238281 -7.628906 8.6875 -8.234375 C 8.132812 -8.847656 7.394531 -9.15625 6.46875 -9.15625 C 5.539062 -9.15625 4.800781 -8.851562 4.25 -8.25 C 3.695312 -7.644531 3.421875 -6.828125 3.421875 -5.796875 C 3.421875 -4.785156 3.695312 -3.972656 4.25 -3.359375 C 4.800781 -2.753906 5.539062 -2.453125 6.46875 -2.453125 Z M 6.46875 -2.453125 "/></g></g><g style="fill:#00dbb4;fill-opacity:1;"><g transform="translate(346.902125, 36.689005)"><path style="stroke:none" d="M 7.703125 0 L 3.828125 -5.09375 L 3.828125 0 L 1.015625 0 L 1.015625 -11.546875 L 3.828125 -11.546875 L 3.828125 -6.46875 L 7.671875 -11.546875 L 10.984375 -11.546875 L 6.515625 -5.890625 L 11.140625 0 Z M 7.703125 0 "/></g></g><g clip-rule="nonzero" clip-path="url(#34094e6c20)"><g clip-rule="nonzero" clip-path="url(#b371e6baef)"><path style=" stroke:none;fill-rule:nonzero;fill:#c0c2c5;fill-opacity:1;" d="M 209.246094 10.71875 L 249.488281 10.71875 L 249.488281 61.019531 L 209.246094 61.019531 Z M 209.246094 10.71875 "/></g></g><g clip-rule="nonzero" clip-path="url(#d40970d43e)"><g clip-rule="nonzero" clip-path="url(#0af55ab1df)"><path style=" stroke:none;fill-rule:nonzero;fill:#a3a4a5;fill-opacity:1;" d="M 216.433594 10.71875 L 242.242188 10.71875 L 242.242188 53.566406 L 216.433594 53.566406 Z M 216.433594 10.71875 "/></g></g><g clip-rule="nonzero" clip-path="url(#a36738926b)"><path style=" stroke:none;fill-rule:nonzero;fill:#b9b9b9;fill-opacity:1;" d="M 132.042969 140.074219 L 132.042969 133.238281 L 166.882812 133.238281 L 166.882812 140.074219 Z M 132.042969 140.074219 "/></g><g clip-rule="nonzero" clip-path="url(#37688afa1a)"><g clip-rule="nonzero" clip-path="url(#dc31d2c197)"><path style=" stroke:none;fill-rule:nonzero;fill:#a3a4a5;fill-opacity:1;" d="M 26.226562 152.035156 L 35.472656 152.035156 L 35.472656 161.285156 L 26.226562 161.285156 Z M 26.226562 152.035156 "/></g></g><g clip-rule="nonzero" clip-path="url(#d8b9b95033)"><g clip-rule="nonzero" clip-path="url(#18de5654c5)"><path style=" stroke:none;fill-rule:nonzero;fill:#a3a4a5;fill-opacity:1;" d="M 71.902344 152.429688 L 81.152344 152.429688 L 81.152344 161.675781 L 71.902344 161.675781 Z M 71.902344 152.429688 "/></g></g><g clip-rule="nonzero" clip-path="url(#462891d323)"><g clip-rule="nonzero" clip-path="url(#c6b6450144)"><path style=" stroke:none;fill-rule:nonzero;fill:#a3a4a5;fill-opacity:1;" d="M 117.644531 152.429688 L 126.890625 152.429688 L 126.890625 161.675781 L 117.644531 161.675781 Z M 117.644531 152.429688 "/></g></g><g clip-rule="nonzero" clip-path="url(#ab5b8cf923)"><g clip-rule="nonzero" clip-path="url(#c9bbd9add3)"><path style=" stroke:none;fill-rule:nonzero;fill:#a3a4a5;fill-opacity:1;" d="M 163.277344 152.429688 L 172.527344 152.429688 L 172.527344 161.675781 L 163.277344 161.675781 Z M 163.277344 152.429688 "/></g></g><g clip-rule="nonzero" clip-path="url(#a3b205e661)"><g clip-rule="nonzero" clip-path="url(#0e5e81e687)"><path style=" stroke:none;fill-rule:nonzero;fill:#a3a4a5;fill-opacity:1;" d="M 208.984375 152.035156 L 218.230469 152.035156 L 218.230469 161.285156 L 208.984375 161.285156 Z M 208.984375 152.035156 "/></g></g><g clip-rule="nonzero" clip-path="url(#b8cea217f0)"><g clip-rule="nonzero" clip-path="url(#8a247a617c)"><path style=" stroke:none;fill-rule:nonzero;fill:#a3a4a5;fill-opacity:1;" d="M 254.925781 152.429688 L 264.175781 152.429688 L 264.175781 161.675781 L 254.925781 161.675781 Z M 254.925781 152.429688 "/></g></g><g clip-rule="nonzero" clip-path="url(#cbabdaa60d)"><g clip-rule="nonzero" clip-path="url(#e3d232d1e6)"><path style=" stroke:none;fill-rule:nonzero;fill:#a3a4a5;fill-opacity:1;" d="M 300.429688 152.035156 L 309.675781 152.035156 L 309.675781 161.285156 L 300.429688 161.285156 Z M 300.429688 152.035156 "/></g></g><g clip-rule="nonzero" clip-path="url(#76c0508386)"><g clip-rule="nonzero" clip-path="url(#9f043e318e)"><path style=" stroke:none;fill-rule:nonzero;fill:#a3a4a5;fill-opacity:1;" d="M 346.121094 152.429688 L 355.367188 152.429688 L 355.367188 161.675781 L 346.121094 161.675781 Z M 346.121094 152.429688 "/></g></g></g></svg>