<svg xmlns="http://www.w3.org/2000/svg" xmlns:xlink="http://www.w3.org/1999/xlink" width="300" zoomAndPan="magnify" viewBox="0 0 224.87999 74.999997" height="100" preserveAspectRatio="xMidYMid meet" version="1.2"><defs><clipPath id="101cfea866"><path d="M 6.398438 42.832031 L 218.34375 42.832031 L 218.34375 67.484375 L 6.398438 67.484375 Z M 6.398438 42.832031 "/></clipPath><clipPath id="68cd97137a"><path d="M 9.898438 42.832031 L 214.832031 42.832031 C 215.757812 42.832031 216.648438 43.203125 217.304688 43.855469 C 217.960938 44.511719 218.328125 45.402344 218.328125 46.332031 L 218.328125 63.984375 C 218.328125 64.914062 217.960938 65.804688 217.304688 66.460938 C 216.648438 67.117188 215.757812 67.484375 214.832031 67.484375 L 9.898438 67.484375 C 8.96875 67.484375 8.082031 67.117188 7.425781 66.460938 C 6.769531 65.804688 6.398438 64.914062 6.398438 63.984375 L 6.398438 46.332031 C 6.398438 45.402344 6.769531 44.511719 7.425781 43.855469 C 8.082031 43.203125 8.96875 42.832031 9.898438 42.832031 Z M 9.898438 42.832031 "/></clipPath></defs><g id="491c959b4f"><g style="fill:#4466b9;fill-opacity:1;"><g transform="translate(3.463889, 36.689989)"><path style="stroke:none" d="M 8.140625 0 L 2.96875 -5.1875 L 2.96875 -21.46875 L 8.140625 -26.65625 L 31.28125 -26.65625 L 31.28125 -21.46875 L 8.140625 -21.46875 L 8.140625 -15.921875 L 25.265625 -15.921875 L 25.265625 -10.734375 L 8.140625 -10.734375 L 8.140625 -5.1875 L 31.28125 -5.1875 L 31.28125 0 Z M 8.140625 0 "/></g></g><g style="fill:#4466b9;fill-opacity:1;"><g transform="translate(39.865164, 36.689989)"><path style="stroke:none" d="M 2.96875 0 L 2.96875 -21.46875 L 8.140625 -26.65625 L 30.21875 -26.65625 L 35.390625 -21.46875 L 35.390625 0 L 30.21875 0 L 30.21875 -21.46875 L 21.796875 -21.46875 L 21.796875 -7.125 L 16.609375 -7.125 L 16.609375 -21.46875 L 8.140625 -21.46875 L 8.140625 0 Z M 2.96875 0 "/></g></g><g style="fill:#4466b9;fill-opacity:1;"><g transform="translate(80.382911, 36.689989)"><path style="stroke:none" d="M 8.140625 0 L 2.96875 -5.1875 L 2.96875 -31.828125 L 8.140625 -31.828125 L 8.140625 -26.65625 L 25.265625 -26.65625 L 30.4375 -21.46875 L 30.4375 -5.1875 L 25.265625 0 Z M 8.140625 -5.1875 L 25.265625 -5.1875 L 25.265625 -21.46875 L 8.140625 -21.46875 Z M 8.140625 -5.1875 "/></g></g><g style="fill:#4466b9;fill-opacity:1;"><g transform="translate(115.951651, 36.689989)"><path style="stroke:none" d="M 2.96875 0 L 2.96875 -5.1875 L 25.265625 -5.1875 L 25.265625 -10.734375 L 8.140625 -10.734375 L 2.96875 -15.921875 L 2.96875 -21.46875 L 8.09375 -26.609375 L 8.09375 -26.65625 L 30.4375 -26.65625 L 30.4375 -21.46875 L 8.140625 -21.46875 L 8.140625 -15.921875 L 25.265625 -15.921875 L 30.4375 -10.734375 L 30.4375 -5.1875 L 25.3125 -0.046875 L 25.3125 0 Z M 2.96875 0 "/></g></g><g style="fill:#4466b9;fill-opacity:1;"><g transform="translate(151.52039, 36.689989)"><path style="stroke:none" d="M 9.015625 0 L 9.0625 -5.1875 L 26.1875 -5.1875 L 26.1875 -10.734375 L 8.140625 -10.734375 L 2.96875 -15.921875 L 2.96875 -26.65625 L 8.140625 -26.65625 L 8.140625 -15.921875 L 26.1875 -15.921875 L 26.1875 -26.65625 L 31.375 -26.65625 L 31.375 -5.1875 L 26.1875 0 Z M 9.015625 0 "/></g></g><g style="fill:#4466b9;fill-opacity:1;"><g transform="translate(188.014171, 36.689989)"><path style="stroke:none" d="M 2.96875 0 L 2.96875 -5.1875 L 25.265625 -5.1875 L 25.265625 -10.734375 L 8.140625 -10.734375 L 2.96875 -15.921875 L 2.96875 -21.46875 L 8.09375 -26.609375 L 8.09375 -26.65625 L 30.4375 -26.65625 L 30.4375 -21.46875 L 8.140625 -21.46875 L 8.140625 -15.921875 L 25.265625 -15.921875 L 30.4375 -10.734375 L 30.4375 -5.1875 L 25.3125 -0.046875 L 25.3125 0 Z M 2.96875 0 "/></g></g><g clip-rule="nonzero" clip-path="url(#101cfea866)"><g clip-rule="nonzero" clip-path="url(#68cd97137a)"><path style=" stroke:none;fill-rule:nonzero;fill:#0069d3;fill-opacity:1;" d="M 6.398438 42.832031 L 218.34375 42.832031 L 218.34375 67.484375 L 6.398438 67.484375 Z M 6.398438 42.832031 "/></g></g><g style="fill:#ffffff;fill-opacity:1;"><g transform="translate(9.398647, 61.904785)"><path style="stroke:none" d="M 4.890625 -14.71875 L 4.890625 0 L 1.296875 0 L 1.296875 -14.71875 Z M 4.890625 -14.71875 "/></g></g><g style="fill:#ffffff;fill-opacity:1;"><g transform="translate(21.457706, 61.904785)"><path style="stroke:none" d="M 14.46875 0 L 10.875 0 L 4.890625 -9.078125 L 4.890625 0 L 1.296875 0 L 1.296875 -14.71875 L 4.890625 -14.71875 L 10.875 -5.59375 L 10.875 -14.71875 L 14.46875 -14.71875 Z M 14.46875 0 "/></g></g><g style="fill:#ffffff;fill-opacity:1;"><g transform="translate(43.097909, 61.904785)"><path style="stroke:none" d="M 11.890625 -14.71875 L 11.890625 -11.84375 L 7.984375 -11.84375 L 7.984375 0 L 4.40625 0 L 4.40625 -11.84375 L 0.5 -11.84375 L 0.5 -14.71875 Z M 11.890625 -14.71875 "/></g></g><g style="fill:#ffffff;fill-opacity:1;"><g transform="translate(61.362693, 61.904785)"><path style="stroke:none" d="M 4.890625 -11.84375 L 4.890625 -8.875 L 9.6875 -8.875 L 9.6875 -6.109375 L 4.890625 -6.109375 L 4.890625 -2.875 L 10.3125 -2.875 L 10.3125 0 L 1.296875 0 L 1.296875 -14.71875 L 10.3125 -14.71875 L 10.3125 -11.84375 Z M 4.890625 -11.84375 "/></g></g><g style="fill:#ffffff;fill-opacity:1;"><g transform="translate(78.57922, 61.904785)"><path style="stroke:none" d="M 4.890625 -2.765625 L 9.578125 -2.765625 L 9.578125 0 L 1.296875 0 L 1.296875 -14.71875 L 4.890625 -14.71875 Z M 4.890625 -2.765625 "/></g></g><g style="fill:#ffffff;fill-opacity:1;"><g transform="translate(94.453969, 61.904785)"><path style="stroke:none" d="M 4.890625 -2.765625 L 9.578125 -2.765625 L 9.578125 0 L 1.296875 0 L 1.296875 -14.71875 L 4.890625 -14.71875 Z M 4.890625 -2.765625 "/></g></g><g style="fill:#ffffff;fill-opacity:1;"><g transform="translate(110.328717, 61.904785)"><path style="stroke:none" d="M 4.890625 -14.71875 L 4.890625 0 L 1.296875 0 L 1.296875 -14.71875 Z M 4.890625 -14.71875 "/></g></g><g style="fill:#ffffff;fill-opacity:1;"><g transform="translate(122.387776, 61.904785)"><path style="stroke:none" d="M 11.078125 -10.0625 C 10.804688 -10.550781 10.421875 -10.925781 9.921875 -11.1875 C 9.429688 -11.445312 8.847656 -11.578125 8.171875 -11.578125 C 7.015625 -11.578125 6.085938 -11.195312 5.390625 -10.4375 C 4.691406 -9.675781 4.34375 -8.65625 4.34375 -7.375 C 4.34375 -6.019531 4.707031 -4.960938 5.4375 -4.203125 C 6.175781 -3.441406 7.1875 -3.0625 8.46875 -3.0625 C 9.351562 -3.0625 10.097656 -3.285156 10.703125 -3.734375 C 11.304688 -4.179688 11.75 -4.820312 12.03125 -5.65625 L 7.484375 -5.65625 L 7.484375 -8.296875 L 15.28125 -8.296875 L 15.28125 -4.96875 C 15.019531 -4.070312 14.570312 -3.238281 13.9375 -2.46875 C 13.300781 -1.707031 12.492188 -1.085938 11.515625 -0.609375 C 10.535156 -0.128906 9.429688 0.109375 8.203125 0.109375 C 6.742188 0.109375 5.441406 -0.207031 4.296875 -0.84375 C 3.160156 -1.476562 2.273438 -2.363281 1.640625 -3.5 C 1.003906 -4.632812 0.6875 -5.925781 0.6875 -7.375 C 0.6875 -8.832031 1.003906 -10.128906 1.640625 -11.265625 C 2.273438 -12.410156 3.160156 -13.300781 4.296875 -13.9375 C 5.429688 -14.570312 6.722656 -14.890625 8.171875 -14.890625 C 9.929688 -14.890625 11.414062 -14.460938 12.625 -13.609375 C 13.84375 -12.753906 14.644531 -11.570312 15.03125 -10.0625 Z M 11.078125 -10.0625 "/></g></g><g style="fill:#ffffff;fill-opacity:1;"><g transform="translate(144.237626, 61.904785)"><path style="stroke:none" d="M 4.890625 -11.84375 L 4.890625 -8.875 L 9.6875 -8.875 L 9.6875 -6.109375 L 4.890625 -6.109375 L 4.890625 -2.875 L 10.3125 -2.875 L 10.3125 0 L 1.296875 0 L 1.296875 -14.71875 L 10.3125 -14.71875 L 10.3125 -11.84375 Z M 4.890625 -11.84375 "/></g></g><g style="fill:#ffffff;fill-opacity:1;"><g transform="translate(161.454153, 61.904785)"><path style="stroke:none" d="M 14.46875 0 L 10.875 0 L 4.890625 -9.078125 L 4.890625 0 L 1.296875 0 L 1.296875 -14.71875 L 4.890625 -14.71875 L 10.875 -5.59375 L 10.875 -14.71875 L 14.46875 -14.71875 Z M 14.46875 0 "/></g></g><g style="fill:#ffffff;fill-opacity:1;"><g transform="translate(183.094356, 61.904785)"><path style="stroke:none" d="M 0.6875 -7.375 C 0.6875 -8.832031 1 -10.128906 1.625 -11.265625 C 2.257812 -12.410156 3.140625 -13.300781 4.265625 -13.9375 C 5.390625 -14.570312 6.664062 -14.890625 8.09375 -14.890625 C 9.84375 -14.890625 11.335938 -14.425781 12.578125 -13.5 C 13.828125 -12.582031 14.660156 -11.328125 15.078125 -9.734375 L 11.140625 -9.734375 C 10.835938 -10.347656 10.414062 -10.8125 9.875 -11.125 C 9.34375 -11.445312 8.734375 -11.609375 8.046875 -11.609375 C 6.941406 -11.609375 6.046875 -11.222656 5.359375 -10.453125 C 4.679688 -9.691406 4.34375 -8.664062 4.34375 -7.375 C 4.34375 -6.09375 4.679688 -5.066406 5.359375 -4.296875 C 6.046875 -3.523438 6.941406 -3.140625 8.046875 -3.140625 C 8.734375 -3.140625 9.34375 -3.300781 9.875 -3.625 C 10.414062 -3.945312 10.835938 -4.414062 11.140625 -5.03125 L 15.078125 -5.03125 C 14.660156 -3.4375 13.828125 -2.179688 12.578125 -1.265625 C 11.335938 -0.347656 9.84375 0.109375 8.09375 0.109375 C 6.664062 0.109375 5.390625 -0.207031 4.265625 -0.84375 C 3.140625 -1.476562 2.257812 -2.363281 1.625 -3.5 C 1 -4.632812 0.6875 -5.925781 0.6875 -7.375 Z M 0.6875 -7.375 "/></g></g><g style="fill:#ffffff;fill-opacity:1;"><g transform="translate(204.944217, 61.904785)"><path style="stroke:none" d="M 4.890625 -11.84375 L 4.890625 -8.875 L 9.6875 -8.875 L 9.6875 -6.109375 L 4.890625 -6.109375 L 4.890625 -2.875 L 10.3125 -2.875 L 10.3125 0 L 1.296875 0 L 1.296875 -14.71875 L 10.3125 -14.71875 L 10.3125 -11.84375 Z M 4.890625 -11.84375 "/></g></g></g></svg>