<svg width="38" height="38" viewBox="0 0 38 38" fill="none" xmlns="http://www.w3.org/2000/svg">
<path d="M33 5H13C8.58172 5 5 8.58172 5 13V25C5 29.4183 8.58172 33 13 33H33" stroke="#6A11CB" stroke-width="10" stroke-linecap="round"/>
<path d="M20.9971 11C20.5094 14.0423 20.0996 15.8508 18.9752 16.9752C17.8508 18.0996 16.0423 18.5094 13 18.9971C16.0423 19.4848 17.8508 19.8946 18.9752 21.0224C20.0996 22.1468 20.5094 23.9553 20.9971 27C21.4848 23.9553 21.8946 22.1468 23.019 21.019C24.1468 19.8946 25.9553 19.4848 29 18.9971C25.9553 18.5094 24.1468 18.0996 23.0224 16.9752C21.8946 15.8508 21.4848 14.0423 20.9971 11Z" fill="#6A11CB"/>
</svg>
