<svg xmlns="http://www.w3.org/2000/svg" xmlns:xlink="http://www.w3.org/1999/xlink" width="150" zoomAndPan="magnify" viewBox="0 0 112.5 187.499992" height="250" preserveAspectRatio="xMidYMid meet" version="1.2"><defs><clipPath id="009371c833"><path d="M 47.496094 171.328125 L 65.070312 171.328125 L 65.070312 181.234375 L 47.496094 181.234375 Z M 47.496094 171.328125 "/></clipPath><clipPath id="c447b30829"><path d="M 48.988281 171.328125 L 63.542969 171.328125 C 63.9375 171.328125 64.316406 171.484375 64.597656 171.765625 C 64.878906 172.042969 65.035156 172.425781 65.035156 172.820312 L 65.035156 179.742188 C 65.035156 180.140625 64.878906 180.519531 64.597656 180.796875 C 64.316406 181.078125 63.9375 181.234375 63.542969 181.234375 L 48.988281 181.234375 C 48.59375 181.234375 48.214844 181.078125 47.933594 180.796875 C 47.652344 180.519531 47.496094 180.140625 47.496094 179.742188 L 47.496094 172.820312 C 47.496094 172.425781 47.652344 172.042969 47.933594 171.765625 C 48.214844 171.484375 48.59375 171.328125 48.988281 171.328125 Z M 48.988281 171.328125 "/></clipPath><clipPath id="6865ecb9a9"><path d="M 20.523438 173.621094 L 33.078125 173.621094 L 33.078125 178.738281 L 20.523438 178.738281 Z M 20.523438 173.621094 "/></clipPath><clipPath id="c55b5c15d2"><path d="M 32.328125 178.738281 L 21.277344 178.738281 C 21.078125 178.738281 20.886719 178.660156 20.75 178.519531 C 20.609375 178.378906 20.53125 178.1875 20.53125 177.992188 L 20.53125 174.367188 C 20.53125 174.167969 20.609375 173.980469 20.75 173.839844 C 20.886719 173.699219 21.078125 173.621094 21.277344 173.621094 L 32.328125 173.621094 C 32.527344 173.621094 32.71875 173.699219 32.859375 173.839844 C 32.996094 173.980469 33.078125 174.167969 33.078125 174.367188 L 33.078125 177.992188 C 33.078125 178.1875 32.996094 178.378906 32.859375 178.519531 C 32.71875 178.660156 32.527344 178.738281 32.328125 178.738281 Z M 32.328125 178.738281 "/></clipPath><clipPath id="050ec8d008"><path d="M 17.140625 169.832031 L 36.476562 169.832031 L 36.476562 174.949219 L 17.140625 174.949219 Z M 17.140625 169.832031 "/></clipPath><clipPath id="51c3d16bad"><path d="M 0.808594 5.582031 L 111.1875 5.582031 L 111.1875 173.300781 L 0.808594 173.300781 Z M 0.808594 5.582031 "/></clipPath><clipPath id="8840adb1ec"><path d="M 106.707031 173.300781 L 5.289062 173.300781 C 4.101562 173.300781 2.960938 172.828125 2.121094 171.988281 C 1.28125 171.148438 0.808594 170.011719 0.808594 168.820312 L 0.808594 10.234375 C 0.808594 9.046875 1.28125 7.90625 2.121094 7.066406 C 2.960938 6.226562 4.101562 5.753906 5.289062 5.753906 L 106.707031 5.753906 C 107.894531 5.753906 109.035156 6.226562 109.875 7.066406 C 110.714844 7.90625 111.1875 9.046875 111.1875 10.234375 L 111.1875 168.820312 C 111.1875 170.011719 110.714844 171.148438 109.875 171.988281 C 109.035156 172.828125 107.894531 173.300781 106.707031 173.300781 Z M 106.707031 173.300781 "/></clipPath><clipPath id="eb5319c9d2"><path d="M 0.667969 5.476562 L 111.1875 5.476562 L 111.1875 173.300781 L 0.667969 173.300781 Z M 0.667969 5.476562 "/></clipPath><clipPath id="bb1b1c8fa5"><path d="M 106.703125 173.300781 L 5.296875 173.300781 C 4.105469 173.300781 2.96875 172.828125 2.128906 171.988281 C 1.289062 171.148438 0.816406 170.011719 0.816406 168.820312 L 0.816406 10.246094 C 0.816406 9.058594 1.289062 7.917969 2.128906 7.078125 C 2.96875 6.238281 4.105469 5.765625 5.296875 5.765625 L 106.703125 5.765625 C 107.894531 5.765625 109.03125 6.238281 109.871094 7.078125 C 110.710938 7.917969 111.183594 9.058594 111.183594 10.246094 L 111.183594 168.820312 C 111.183594 170.011719 110.710938 171.148438 109.871094 171.988281 C 109.03125 172.828125 107.894531 173.300781 106.703125 173.300781 Z M 106.703125 173.300781 "/></clipPath><clipPath id="7acc40cabd"><path d="M 8.234375 73.183594 L 103.476562 73.183594 L 103.476562 164.164062 L 8.234375 164.164062 Z M 8.234375 73.183594 "/></clipPath><clipPath id="70f9852e3d"><path d="M 100.492188 164.164062 L 11.5 164.164062 C 10.707031 164.164062 9.945312 163.847656 9.386719 163.289062 C 8.824219 162.730469 8.511719 161.96875 8.511719 161.175781 L 8.511719 76.171875 C 8.511719 75.378906 8.824219 74.621094 9.386719 74.058594 C 9.945312 73.5 10.707031 73.183594 11.5 73.183594 L 100.492188 73.183594 C 101.285156 73.183594 102.042969 73.5 102.601562 74.058594 C 103.164062 74.621094 103.476562 75.378906 103.476562 76.171875 L 103.476562 161.175781 C 103.476562 161.96875 103.164062 162.730469 102.601562 163.289062 C 102.042969 163.847656 101.285156 164.164062 100.492188 164.164062 Z M 100.492188 164.164062 "/></clipPath><clipPath id="25ca144af1"><path d="M 8.308594 73.089844 L 103.476562 73.089844 L 103.476562 164.160156 L 8.308594 164.160156 Z M 8.308594 73.089844 "/></clipPath><clipPath id="b04acb6242"><path d="M 100.492188 164.160156 L 11.503906 164.160156 C 10.710938 164.160156 9.953125 163.847656 9.390625 163.285156 C 8.832031 162.726562 8.519531 161.964844 8.519531 161.175781 L 8.519531 76.175781 C 8.519531 75.382812 8.832031 74.621094 9.390625 74.0625 C 9.953125 73.503906 10.710938 73.1875 11.503906 73.1875 L 100.492188 73.1875 C 101.285156 73.1875 102.042969 73.503906 102.601562 74.0625 C 103.164062 74.621094 103.476562 75.382812 103.476562 76.175781 L 103.476562 161.175781 C 103.476562 161.964844 103.164062 162.726562 102.601562 163.285156 C 102.042969 163.847656 101.285156 164.160156 100.492188 164.160156 Z M 100.492188 164.160156 "/></clipPath><clipPath id="ffacc957b9"><path d="M 10.546875 14.796875 L 101.4375 14.796875 L 101.4375 44.761719 L 10.546875 44.761719 Z M 10.546875 14.796875 "/></clipPath><clipPath id="5cc4c0dd9b"><path d="M 10.363281 15.085938 L 101.4375 15.085938 L 101.4375 44.757812 L 10.363281 44.757812 Z M 10.363281 15.085938 "/></clipPath><clipPath id="6394349c33"><path d="M 16.402344 20.660156 L 95.53125 20.660156 L 95.53125 38.890625 L 16.402344 38.890625 Z M 16.402344 20.660156 "/></clipPath><clipPath id="20eea45e0c"><path d="M 93.289062 38.890625 L 18.691406 38.890625 C 18.097656 38.890625 17.527344 38.65625 17.109375 38.234375 C 16.6875 37.816406 16.453125 37.246094 16.453125 36.652344 L 16.453125 22.898438 C 16.453125 22.304688 16.6875 21.734375 17.109375 21.316406 C 17.527344 20.894531 18.097656 20.660156 18.691406 20.660156 L 93.289062 20.660156 C 93.882812 20.660156 94.453125 20.894531 94.875 21.316406 C 95.292969 21.734375 95.53125 22.304688 95.53125 22.898438 L 95.53125 36.652344 C 95.53125 37.246094 95.292969 37.816406 94.875 38.234375 C 94.453125 38.65625 93.882812 38.890625 93.289062 38.890625 Z M 93.289062 38.890625 "/></clipPath><clipPath id="e0350b2469"><path d="M 16.441406 12.238281 L 95.53125 12.238281 L 95.53125 17.355469 L 16.441406 17.355469 Z M 16.441406 12.238281 "/></clipPath><clipPath id="90c90b701d"><path d="M 93.289062 17.355469 L 18.691406 17.355469 C 18.097656 17.355469 17.527344 17.117188 17.109375 16.699219 C 16.6875 16.277344 16.453125 15.707031 16.453125 15.113281 L 16.453125 14.476562 C 16.453125 13.882812 16.6875 13.3125 17.109375 12.894531 C 17.527344 12.472656 18.097656 12.238281 18.691406 12.238281 L 93.289062 12.238281 C 93.882812 12.238281 94.453125 12.472656 94.875 12.894531 C 95.292969 13.3125 95.53125 13.882812 95.53125 14.476562 L 95.53125 15.113281 C 95.53125 15.707031 95.292969 16.277344 94.875 16.699219 C 94.453125 17.117188 93.882812 17.355469 93.289062 17.355469 Z M 93.289062 17.355469 "/></clipPath><clipPath id="678790014e"><path d="M 16.734375 12.238281 L 95.53125 12.238281 L 95.53125 17.355469 L 16.734375 17.355469 Z M 16.734375 12.238281 "/></clipPath><clipPath id="0119896ce9"><path d="M 93.296875 17.355469 L 18.964844 17.355469 C 18.375 17.355469 17.804688 17.117188 17.386719 16.699219 C 16.96875 16.28125 16.734375 15.714844 16.734375 15.121094 L 16.734375 14.488281 C 16.734375 13.894531 16.96875 13.328125 17.386719 12.910156 C 17.804688 12.492188 18.375 12.253906 18.964844 12.253906 L 93.296875 12.253906 C 93.890625 12.253906 94.457031 12.492188 94.875 12.910156 C 95.292969 13.328125 95.53125 13.894531 95.53125 14.488281 L 95.53125 15.121094 C 95.53125 15.714844 95.292969 16.28125 94.875 16.699219 C 94.457031 17.117188 93.890625 17.355469 93.296875 17.355469 Z M 93.296875 17.355469 "/></clipPath><clipPath id="8dedab17b5"><path d="M 16.433594 40.941406 L 95.53125 40.941406 L 95.53125 46.316406 L 16.433594 46.316406 Z M 16.433594 40.941406 "/></clipPath><clipPath id="7f68e5e176"><path d="M 93.289062 46.316406 L 18.691406 46.316406 C 18.097656 46.316406 17.527344 46.078125 17.109375 45.660156 C 16.6875 45.238281 16.453125 44.667969 16.453125 44.074219 L 16.453125 43.183594 C 16.453125 42.585938 16.6875 42.019531 17.109375 41.597656 C 17.527344 41.175781 18.097656 40.941406 18.691406 40.941406 L 93.289062 40.941406 C 93.882812 40.941406 94.453125 41.175781 94.875 41.597656 C 95.292969 42.019531 95.53125 42.585938 95.53125 43.183594 L 95.53125 44.074219 C 95.53125 44.667969 95.292969 45.238281 94.875 45.660156 C 94.453125 46.078125 93.882812 46.316406 93.289062 46.316406 Z M 93.289062 46.316406 "/></clipPath><clipPath id="1d667b5dd8"><path d="M 16.734375 41.199219 L 95.523438 41.199219 L 95.523438 46.316406 L 16.734375 46.316406 Z M 16.734375 41.199219 "/></clipPath><clipPath id="d0fa692394"><path d="M 93.292969 46.316406 L 18.972656 46.316406 C 18.378906 46.316406 17.8125 46.089844 17.394531 45.691406 C 16.976562 45.289062 16.738281 44.75 16.738281 44.183594 L 16.738281 43.332031 C 16.738281 42.765625 16.976562 42.222656 17.394531 41.824219 C 17.8125 41.421875 18.378906 41.199219 18.972656 41.199219 L 93.292969 41.199219 C 93.882812 41.199219 94.453125 41.421875 94.871094 41.824219 C 95.289062 42.222656 95.523438 42.765625 95.523438 43.332031 L 95.523438 44.183594 C 95.523438 44.75 95.289062 45.289062 94.871094 45.691406 C 94.453125 46.089844 93.882812 46.316406 93.292969 46.316406 Z M 93.292969 46.316406 "/></clipPath><clipPath id="5a30918099"><path d="M 17.058594 82.058594 L 94.855469 82.058594 L 94.855469 155.277344 L 17.058594 155.277344 Z M 17.058594 82.058594 "/></clipPath><clipPath id="0cb0a86a6f"><path d="M 93.359375 155.277344 L 18.636719 155.277344 C 18.242188 155.277344 17.863281 155.121094 17.582031 154.839844 C 17.300781 154.5625 17.144531 154.183594 17.144531 153.785156 L 17.144531 83.550781 C 17.144531 83.15625 17.300781 82.777344 17.582031 82.496094 C 17.863281 82.214844 18.242188 82.058594 18.636719 82.058594 L 93.359375 82.058594 C 93.757812 82.058594 94.136719 82.214844 94.417969 82.496094 C 94.695312 82.777344 94.855469 83.15625 94.855469 83.550781 L 94.855469 153.785156 C 94.855469 154.183594 94.695312 154.5625 94.417969 154.839844 C 94.136719 155.121094 93.757812 155.277344 93.359375 155.277344 Z M 93.359375 155.277344 "/></clipPath><clipPath id="2d4e1dc893"><path d="M 17.082031 82 L 94.851562 82 L 94.851562 155.277344 L 17.082031 155.277344 Z M 17.082031 82 "/></clipPath><clipPath id="09c18e053d"><path d="M 93.359375 155.277344 L 18.640625 155.277344 C 18.246094 155.277344 17.863281 155.121094 17.585938 154.839844 C 17.304688 154.5625 17.148438 154.183594 17.148438 153.785156 L 17.148438 83.558594 C 17.148438 83.160156 17.304688 82.78125 17.585938 82.5 C 17.863281 82.222656 18.246094 82.0625 18.640625 82.0625 L 93.359375 82.0625 C 93.753906 82.0625 94.136719 82.222656 94.414062 82.5 C 94.695312 82.78125 94.851562 83.160156 94.851562 83.558594 L 94.851562 153.785156 C 94.851562 154.183594 94.695312 154.5625 94.414062 154.839844 C 94.136719 155.121094 93.753906 155.277344 93.359375 155.277344 Z M 93.359375 155.277344 "/></clipPath><clipPath id="5f6a9c3fdb"><path d="M 25.433594 88 L 38.40625 88 L 38.40625 101.027344 L 25.433594 101.027344 Z M 25.433594 88 "/></clipPath><clipPath id="039e66ba82"><path d="M 36.910156 101.027344 L 26.925781 101.027344 C 26.53125 101.027344 26.148438 100.871094 25.871094 100.589844 C 25.589844 100.3125 25.433594 99.933594 25.433594 99.535156 L 25.433594 89.496094 C 25.433594 89.097656 25.589844 88.71875 25.871094 88.4375 C 26.148438 88.160156 26.53125 88 26.925781 88 L 36.910156 88 C 37.308594 88 37.6875 88.160156 37.96875 88.4375 C 38.246094 88.71875 38.40625 89.097656 38.40625 89.496094 L 38.40625 99.535156 C 38.40625 99.933594 38.246094 100.3125 37.96875 100.589844 C 37.6875 100.871094 37.308594 101.027344 36.910156 101.027344 Z M 36.910156 101.027344 "/></clipPath><clipPath id="0a4a8c4f4d"><path d="M 25.222656 88 L 38.402344 88 L 38.402344 101.027344 L 25.222656 101.027344 Z M 25.222656 88 "/></clipPath><clipPath id="0c13435ed9"><path d="M 36.910156 101.027344 L 26.933594 101.027344 C 26.539062 101.027344 26.15625 100.871094 25.878906 100.59375 C 25.597656 100.3125 25.441406 99.933594 25.441406 99.535156 L 25.441406 89.503906 C 25.441406 89.109375 25.597656 88.730469 25.878906 88.449219 C 26.15625 88.171875 26.539062 88.015625 26.933594 88.015625 L 36.910156 88.015625 C 37.304688 88.015625 37.683594 88.171875 37.964844 88.449219 C 38.242188 88.730469 38.402344 89.109375 38.402344 89.503906 L 38.402344 99.535156 C 38.402344 99.933594 38.242188 100.3125 37.964844 100.59375 C 37.683594 100.871094 37.304688 101.027344 36.910156 101.027344 Z M 36.910156 101.027344 "/></clipPath><clipPath id="06ff9e4c74"><path d="M 41.503906 88 L 54.476562 88 L 54.476562 101.027344 L 41.503906 101.027344 Z M 41.503906 88 "/></clipPath><clipPath id="64b19cdb34"><path d="M 52.980469 101.027344 L 42.996094 101.027344 C 42.597656 101.027344 42.21875 100.871094 41.941406 100.589844 C 41.660156 100.3125 41.503906 99.933594 41.503906 99.535156 L 41.503906 89.496094 C 41.503906 89.097656 41.660156 88.71875 41.941406 88.4375 C 42.21875 88.160156 42.597656 88 42.996094 88 L 52.980469 88 C 53.378906 88 53.757812 88.160156 54.039062 88.4375 C 54.316406 88.71875 54.476562 89.097656 54.476562 89.496094 L 54.476562 99.535156 C 54.476562 99.933594 54.316406 100.3125 54.039062 100.589844 C 53.757812 100.871094 53.378906 101.027344 52.980469 101.027344 Z M 52.980469 101.027344 "/></clipPath><clipPath id="8b550db8be"><path d="M 41.292969 88 L 54.472656 88 L 54.472656 101.027344 L 41.292969 101.027344 Z M 41.292969 88 "/></clipPath><clipPath id="41b3cd60c0"><path d="M 52.980469 101.027344 L 43.003906 101.027344 C 42.605469 101.027344 42.226562 100.871094 41.949219 100.59375 C 41.667969 100.3125 41.511719 99.933594 41.511719 99.535156 L 41.511719 89.503906 C 41.511719 89.109375 41.667969 88.730469 41.949219 88.449219 C 42.226562 88.171875 42.605469 88.015625 43.003906 88.015625 L 52.980469 88.015625 C 53.375 88.015625 53.753906 88.171875 54.035156 88.449219 C 54.3125 88.730469 54.472656 89.109375 54.472656 89.503906 L 54.472656 99.535156 C 54.472656 99.933594 54.3125 100.3125 54.035156 100.59375 C 53.753906 100.871094 53.375 101.027344 52.980469 101.027344 Z M 52.980469 101.027344 "/></clipPath><clipPath id="64e7a9fd04"><path d="M 57.542969 88 L 70.515625 88 L 70.515625 101.027344 L 57.542969 101.027344 Z M 57.542969 88 "/></clipPath><clipPath id="b2be9331c4"><path d="M 69.023438 101.027344 L 59.039062 101.027344 C 58.640625 101.027344 58.261719 100.871094 57.980469 100.589844 C 57.703125 100.3125 57.542969 99.933594 57.542969 99.535156 L 57.542969 89.496094 C 57.542969 89.097656 57.703125 88.71875 57.980469 88.4375 C 58.261719 88.160156 58.640625 88 59.039062 88 L 69.023438 88 C 69.417969 88 69.800781 88.160156 70.078125 88.4375 C 70.359375 88.71875 70.515625 89.097656 70.515625 89.496094 L 70.515625 99.535156 C 70.515625 99.933594 70.359375 100.3125 70.078125 100.589844 C 69.800781 100.871094 69.417969 101.027344 69.023438 101.027344 Z M 69.023438 101.027344 "/></clipPath><clipPath id="f4f320d66a"><path d="M 57.335938 88 L 70.511719 88 L 70.511719 101.027344 L 57.335938 101.027344 Z M 57.335938 88 "/></clipPath><clipPath id="7063b9793e"><path d="M 69.023438 101.027344 L 59.046875 101.027344 C 58.648438 101.027344 58.269531 100.871094 57.992188 100.59375 C 57.710938 100.3125 57.554688 99.933594 57.554688 99.535156 L 57.554688 89.503906 C 57.554688 89.109375 57.710938 88.730469 57.992188 88.449219 C 58.269531 88.171875 58.648438 88.015625 59.046875 88.015625 L 69.023438 88.015625 C 69.417969 88.015625 69.796875 88.171875 70.078125 88.449219 C 70.355469 88.730469 70.511719 89.109375 70.511719 89.503906 L 70.511719 99.535156 C 70.511719 99.933594 70.355469 100.3125 70.078125 100.59375 C 69.796875 100.871094 69.417969 101.027344 69.023438 101.027344 Z M 69.023438 101.027344 "/></clipPath><clipPath id="bb438592ae"><path d="M 73.585938 88 L 86.558594 88 L 86.558594 101.027344 L 73.585938 101.027344 Z M 73.585938 88 "/></clipPath><clipPath id="ae87e288d9"><path d="M 85.066406 101.027344 L 75.082031 101.027344 C 74.683594 101.027344 74.304688 100.871094 74.023438 100.589844 C 73.746094 100.3125 73.585938 99.933594 73.585938 99.535156 L 73.585938 89.496094 C 73.585938 89.097656 73.746094 88.71875 74.023438 88.4375 C 74.304688 88.160156 74.683594 88 75.082031 88 L 85.066406 88 C 85.460938 88 85.84375 88.160156 86.121094 88.4375 C 86.402344 88.71875 86.558594 89.097656 86.558594 89.496094 L 86.558594 99.535156 C 86.558594 99.933594 86.402344 100.3125 86.121094 100.589844 C 85.84375 100.871094 85.460938 101.027344 85.066406 101.027344 Z M 85.066406 101.027344 "/></clipPath><clipPath id="ad81c1866b"><path d="M 73.378906 88 L 86.554688 88 L 86.554688 101.027344 L 73.378906 101.027344 Z M 73.378906 88 "/></clipPath><clipPath id="28704ab72b"><path d="M 85.0625 101.027344 L 75.085938 101.027344 C 74.691406 101.027344 74.3125 100.871094 74.03125 100.59375 C 73.753906 100.3125 73.597656 99.933594 73.597656 99.535156 L 73.597656 89.503906 C 73.597656 89.109375 73.753906 88.730469 74.03125 88.449219 C 74.3125 88.171875 74.691406 88.015625 75.085938 88.015625 L 85.0625 88.015625 C 85.460938 88.015625 85.839844 88.171875 86.117188 88.449219 C 86.398438 88.730469 86.554688 89.109375 86.554688 89.503906 L 86.554688 99.535156 C 86.554688 99.933594 86.398438 100.3125 86.117188 100.59375 C 85.839844 100.871094 85.460938 101.027344 85.0625 101.027344 Z M 85.0625 101.027344 "/></clipPath><clipPath id="425b25306a"><path d="M 25.433594 104.054688 L 38.40625 104.054688 L 38.40625 117.125 L 25.433594 117.125 Z M 25.433594 104.054688 "/></clipPath><clipPath id="e86af7a084"><path d="M 36.910156 117.125 L 26.925781 117.125 C 26.53125 117.125 26.148438 116.96875 25.871094 116.6875 C 25.589844 116.410156 25.433594 116.03125 25.433594 115.632812 L 25.433594 105.59375 C 25.433594 105.195312 25.589844 104.816406 25.871094 104.535156 C 26.148438 104.257812 26.53125 104.097656 26.925781 104.097656 L 36.910156 104.097656 C 37.308594 104.097656 37.6875 104.257812 37.96875 104.535156 C 38.246094 104.816406 38.40625 105.195312 38.40625 105.59375 L 38.40625 115.632812 C 38.40625 116.03125 38.246094 116.410156 37.96875 116.6875 C 37.6875 116.96875 37.308594 117.125 36.910156 117.125 Z M 36.910156 117.125 "/></clipPath><clipPath id="6754c2c0d4"><path d="M 25.222656 104 L 38.402344 104 L 38.402344 117.125 L 25.222656 117.125 Z M 25.222656 104 "/></clipPath><clipPath id="f4e8f81e00"><path d="M 36.910156 117.125 L 26.933594 117.125 C 26.539062 117.125 26.15625 116.96875 25.878906 116.691406 C 25.597656 116.410156 25.441406 116.03125 25.441406 115.636719 L 25.441406 105.601562 C 25.441406 105.207031 25.597656 104.828125 25.878906 104.546875 C 26.15625 104.269531 26.539062 104.113281 26.933594 104.113281 L 36.910156 104.113281 C 37.304688 104.113281 37.683594 104.269531 37.964844 104.546875 C 38.242188 104.828125 38.402344 105.207031 38.402344 105.601562 L 38.402344 115.636719 C 38.402344 116.03125 38.242188 116.410156 37.964844 116.691406 C 37.683594 116.96875 37.304688 117.125 36.910156 117.125 Z M 36.910156 117.125 "/></clipPath><clipPath id="ee59dc75f2"><path d="M 41.503906 104.054688 L 54.476562 104.054688 L 54.476562 117.125 L 41.503906 117.125 Z M 41.503906 104.054688 "/></clipPath><clipPath id="f76e4e00b0"><path d="M 52.980469 117.125 L 42.996094 117.125 C 42.597656 117.125 42.21875 116.96875 41.941406 116.6875 C 41.660156 116.410156 41.503906 116.03125 41.503906 115.632812 L 41.503906 105.59375 C 41.503906 105.195312 41.660156 104.816406 41.941406 104.535156 C 42.21875 104.257812 42.597656 104.097656 42.996094 104.097656 L 52.980469 104.097656 C 53.378906 104.097656 53.757812 104.257812 54.039062 104.535156 C 54.316406 104.816406 54.476562 105.195312 54.476562 105.59375 L 54.476562 115.632812 C 54.476562 116.03125 54.316406 116.410156 54.039062 116.6875 C 53.757812 116.96875 53.378906 117.125 52.980469 117.125 Z M 52.980469 117.125 "/></clipPath><clipPath id="083fa7999b"><path d="M 41.292969 104 L 54.472656 104 L 54.472656 117.125 L 41.292969 117.125 Z M 41.292969 104 "/></clipPath><clipPath id="96e1018055"><path d="M 52.980469 117.125 L 43.003906 117.125 C 42.605469 117.125 42.226562 116.96875 41.949219 116.691406 C 41.667969 116.410156 41.511719 116.03125 41.511719 115.636719 L 41.511719 105.601562 C 41.511719 105.207031 41.667969 104.828125 41.949219 104.546875 C 42.226562 104.269531 42.605469 104.113281 43.003906 104.113281 L 52.980469 104.113281 C 53.375 104.113281 53.753906 104.269531 54.035156 104.546875 C 54.3125 104.828125 54.472656 105.207031 54.472656 105.601562 L 54.472656 115.636719 C 54.472656 116.03125 54.3125 116.410156 54.035156 116.691406 C 53.753906 116.96875 53.375 117.125 52.980469 117.125 Z M 52.980469 117.125 "/></clipPath><clipPath id="108999c2e2"><path d="M 57.542969 104.054688 L 70.515625 104.054688 L 70.515625 117.125 L 57.542969 117.125 Z M 57.542969 104.054688 "/></clipPath><clipPath id="14ae771500"><path d="M 69.023438 117.125 L 59.039062 117.125 C 58.640625 117.125 58.261719 116.96875 57.980469 116.6875 C 57.703125 116.410156 57.542969 116.03125 57.542969 115.632812 L 57.542969 105.59375 C 57.542969 105.195312 57.703125 104.816406 57.980469 104.535156 C 58.261719 104.257812 58.640625 104.097656 59.039062 104.097656 L 69.023438 104.097656 C 69.417969 104.097656 69.800781 104.257812 70.078125 104.535156 C 70.359375 104.816406 70.515625 105.195312 70.515625 105.59375 L 70.515625 115.632812 C 70.515625 116.03125 70.359375 116.410156 70.078125 116.6875 C 69.800781 116.96875 69.417969 117.125 69.023438 117.125 Z M 69.023438 117.125 "/></clipPath><clipPath id="d96b5f31b3"><path d="M 57.335938 104 L 70.511719 104 L 70.511719 117.125 L 57.335938 117.125 Z M 57.335938 104 "/></clipPath><clipPath id="b789e5ff15"><path d="M 69.023438 117.125 L 59.046875 117.125 C 58.648438 117.125 58.269531 116.96875 57.992188 116.691406 C 57.710938 116.410156 57.554688 116.03125 57.554688 115.636719 L 57.554688 105.601562 C 57.554688 105.207031 57.710938 104.828125 57.992188 104.546875 C 58.269531 104.269531 58.648438 104.113281 59.046875 104.113281 L 69.023438 104.113281 C 69.417969 104.113281 69.796875 104.269531 70.078125 104.546875 C 70.355469 104.828125 70.511719 105.207031 70.511719 105.601562 L 70.511719 115.636719 C 70.511719 116.03125 70.355469 116.410156 70.078125 116.691406 C 69.796875 116.96875 69.417969 117.125 69.023438 117.125 Z M 69.023438 117.125 "/></clipPath><clipPath id="8476720fb3"><path d="M 73.585938 104.054688 L 86.558594 104.054688 L 86.558594 117.125 L 73.585938 117.125 Z M 73.585938 104.054688 "/></clipPath><clipPath id="b238cf17b1"><path d="M 85.066406 117.125 L 75.082031 117.125 C 74.683594 117.125 74.304688 116.96875 74.023438 116.6875 C 73.746094 116.410156 73.585938 116.03125 73.585938 115.632812 L 73.585938 105.59375 C 73.585938 105.195312 73.746094 104.816406 74.023438 104.535156 C 74.304688 104.257812 74.683594 104.097656 75.082031 104.097656 L 85.066406 104.097656 C 85.460938 104.097656 85.84375 104.257812 86.121094 104.535156 C 86.402344 104.816406 86.558594 105.195312 86.558594 105.59375 L 86.558594 115.632812 C 86.558594 116.03125 86.402344 116.410156 86.121094 116.6875 C 85.84375 116.96875 85.460938 117.125 85.066406 117.125 Z M 85.066406 117.125 "/></clipPath><clipPath id="75a1d82920"><path d="M 73.378906 104 L 86.554688 104 L 86.554688 117.125 L 73.378906 117.125 Z M 73.378906 104 "/></clipPath><clipPath id="acacb51c74"><path d="M 85.0625 117.125 L 75.085938 117.125 C 74.691406 117.125 74.3125 116.96875 74.03125 116.691406 C 73.753906 116.410156 73.597656 116.03125 73.597656 115.636719 L 73.597656 105.601562 C 73.597656 105.207031 73.753906 104.828125 74.03125 104.546875 C 74.3125 104.269531 74.691406 104.113281 75.085938 104.113281 L 85.0625 104.113281 C 85.460938 104.113281 85.839844 104.269531 86.117188 104.546875 C 86.398438 104.828125 86.554688 105.207031 86.554688 105.601562 L 86.554688 115.636719 C 86.554688 116.03125 86.398438 116.410156 86.117188 116.691406 C 85.839844 116.96875 85.460938 117.125 85.0625 117.125 Z M 85.0625 117.125 "/></clipPath><clipPath id="752c9fe9d4"><path d="M 25.433594 120.152344 L 38.40625 120.152344 L 38.40625 133.222656 L 25.433594 133.222656 Z M 25.433594 120.152344 "/></clipPath><clipPath id="fd0f4b8c6d"><path d="M 36.910156 133.222656 L 26.925781 133.222656 C 26.53125 133.222656 26.148438 133.066406 25.871094 132.785156 C 25.589844 132.507812 25.433594 132.128906 25.433594 131.730469 L 25.433594 121.691406 C 25.433594 121.292969 25.589844 120.914062 25.871094 120.632812 C 26.148438 120.355469 26.53125 120.195312 26.925781 120.195312 L 36.910156 120.195312 C 37.308594 120.195312 37.6875 120.355469 37.96875 120.632812 C 38.246094 120.914062 38.40625 121.292969 38.40625 121.691406 L 38.40625 131.730469 C 38.40625 132.128906 38.246094 132.507812 37.96875 132.785156 C 37.6875 133.066406 37.308594 133.222656 36.910156 133.222656 Z M 36.910156 133.222656 "/></clipPath><clipPath id="738e4d7c4e"><path d="M 25.222656 120.046875 L 38.402344 120.046875 L 38.402344 133.222656 L 25.222656 133.222656 Z M 25.222656 120.046875 "/></clipPath><clipPath id="79fbb29788"><path d="M 36.910156 133.222656 L 26.933594 133.222656 C 26.539062 133.222656 26.15625 133.066406 25.878906 132.789062 C 25.597656 132.507812 25.441406 132.128906 25.441406 131.734375 L 25.441406 121.699219 C 25.441406 121.304688 25.597656 120.925781 25.878906 120.644531 C 26.15625 120.367188 26.539062 120.210938 26.933594 120.210938 L 36.910156 120.210938 C 37.304688 120.210938 37.683594 120.367188 37.964844 120.644531 C 38.242188 120.925781 38.402344 121.304688 38.402344 121.699219 L 38.402344 131.734375 C 38.402344 132.128906 38.242188 132.507812 37.964844 132.789062 C 37.683594 133.066406 37.304688 133.222656 36.910156 133.222656 Z M 36.910156 133.222656 "/></clipPath><clipPath id="897475e5d6"><path d="M 41.503906 120.152344 L 54.476562 120.152344 L 54.476562 133.222656 L 41.503906 133.222656 Z M 41.503906 120.152344 "/></clipPath><clipPath id="1a4c8a1b5a"><path d="M 52.980469 133.222656 L 42.996094 133.222656 C 42.597656 133.222656 42.21875 133.066406 41.941406 132.785156 C 41.660156 132.507812 41.503906 132.128906 41.503906 131.730469 L 41.503906 121.691406 C 41.503906 121.292969 41.660156 120.914062 41.941406 120.632812 C 42.21875 120.355469 42.597656 120.195312 42.996094 120.195312 L 52.980469 120.195312 C 53.378906 120.195312 53.757812 120.355469 54.039062 120.632812 C 54.316406 120.914062 54.476562 121.292969 54.476562 121.691406 L 54.476562 131.730469 C 54.476562 132.128906 54.316406 132.507812 54.039062 132.785156 C 53.757812 133.066406 53.378906 133.222656 52.980469 133.222656 Z M 52.980469 133.222656 "/></clipPath><clipPath id="1a4d8ca836"><path d="M 41.292969 120.046875 L 54.472656 120.046875 L 54.472656 133.222656 L 41.292969 133.222656 Z M 41.292969 120.046875 "/></clipPath><clipPath id="28c37e9dfc"><path d="M 52.980469 133.222656 L 43.003906 133.222656 C 42.605469 133.222656 42.226562 133.066406 41.949219 132.789062 C 41.667969 132.507812 41.511719 132.128906 41.511719 131.734375 L 41.511719 121.699219 C 41.511719 121.304688 41.667969 120.925781 41.949219 120.644531 C 42.226562 120.367188 42.605469 120.210938 43.003906 120.210938 L 52.980469 120.210938 C 53.375 120.210938 53.753906 120.367188 54.035156 120.644531 C 54.3125 120.925781 54.472656 121.304688 54.472656 121.699219 L 54.472656 131.734375 C 54.472656 132.128906 54.3125 132.507812 54.035156 132.789062 C 53.753906 133.066406 53.375 133.222656 52.980469 133.222656 Z M 52.980469 133.222656 "/></clipPath><clipPath id="5842e5c2d2"><path d="M 57.542969 120.152344 L 70.515625 120.152344 L 70.515625 133.222656 L 57.542969 133.222656 Z M 57.542969 120.152344 "/></clipPath><clipPath id="ffbac4ded9"><path d="M 69.023438 133.222656 L 59.039062 133.222656 C 58.640625 133.222656 58.261719 133.066406 57.980469 132.785156 C 57.703125 132.507812 57.542969 132.128906 57.542969 131.730469 L 57.542969 121.691406 C 57.542969 121.292969 57.703125 120.914062 57.980469 120.632812 C 58.261719 120.355469 58.640625 120.195312 59.039062 120.195312 L 69.023438 120.195312 C 69.417969 120.195312 69.800781 120.355469 70.078125 120.632812 C 70.359375 120.914062 70.515625 121.292969 70.515625 121.691406 L 70.515625 131.730469 C 70.515625 132.128906 70.359375 132.507812 70.078125 132.785156 C 69.800781 133.066406 69.417969 133.222656 69.023438 133.222656 Z M 69.023438 133.222656 "/></clipPath><clipPath id="3c5df26d05"><path d="M 57.335938 120.046875 L 70.511719 120.046875 L 70.511719 133.222656 L 57.335938 133.222656 Z M 57.335938 120.046875 "/></clipPath><clipPath id="e273de8452"><path d="M 69.023438 133.222656 L 59.046875 133.222656 C 58.648438 133.222656 58.269531 133.066406 57.992188 132.789062 C 57.710938 132.507812 57.554688 132.128906 57.554688 131.734375 L 57.554688 121.699219 C 57.554688 121.304688 57.710938 120.925781 57.992188 120.644531 C 58.269531 120.367188 58.648438 120.210938 59.046875 120.210938 L 69.023438 120.210938 C 69.417969 120.210938 69.796875 120.367188 70.078125 120.644531 C 70.355469 120.925781 70.511719 121.304688 70.511719 121.699219 L 70.511719 131.734375 C 70.511719 132.128906 70.355469 132.507812 70.078125 132.789062 C 69.796875 133.066406 69.417969 133.222656 69.023438 133.222656 Z M 69.023438 133.222656 "/></clipPath><clipPath id="b194d08d73"><path d="M 73.585938 120.152344 L 86.558594 120.152344 L 86.558594 133.222656 L 73.585938 133.222656 Z M 73.585938 120.152344 "/></clipPath><clipPath id="5f6b907457"><path d="M 85.066406 133.222656 L 75.082031 133.222656 C 74.683594 133.222656 74.304688 133.066406 74.023438 132.785156 C 73.746094 132.507812 73.585938 132.128906 73.585938 131.730469 L 73.585938 121.691406 C 73.585938 121.292969 73.746094 120.914062 74.023438 120.632812 C 74.304688 120.355469 74.683594 120.195312 75.082031 120.195312 L 85.066406 120.195312 C 85.460938 120.195312 85.84375 120.355469 86.121094 120.632812 C 86.402344 120.914062 86.558594 121.292969 86.558594 121.691406 L 86.558594 131.730469 C 86.558594 132.128906 86.402344 132.507812 86.121094 132.785156 C 85.84375 133.066406 85.460938 133.222656 85.066406 133.222656 Z M 85.066406 133.222656 "/></clipPath><clipPath id="c08590d8ac"><path d="M 73.378906 120.046875 L 86.554688 120.046875 L 86.554688 133.222656 L 73.378906 133.222656 Z M 73.378906 120.046875 "/></clipPath><clipPath id="dc5afcf14c"><path d="M 85.0625 133.222656 L 75.085938 133.222656 C 74.691406 133.222656 74.3125 133.066406 74.03125 132.789062 C 73.753906 132.507812 73.597656 132.128906 73.597656 131.734375 L 73.597656 121.699219 C 73.597656 121.304688 73.753906 120.925781 74.03125 120.644531 C 74.3125 120.367188 74.691406 120.210938 75.085938 120.210938 L 85.0625 120.210938 C 85.460938 120.210938 85.839844 120.367188 86.117188 120.644531 C 86.398438 120.925781 86.554688 121.304688 86.554688 121.699219 L 86.554688 131.734375 C 86.554688 132.128906 86.398438 132.507812 86.117188 132.789062 C 85.839844 133.066406 85.460938 133.222656 85.0625 133.222656 Z M 85.0625 133.222656 "/></clipPath><clipPath id="c28199f7ad"><path d="M 25.433594 136.25 L 38.40625 136.25 L 38.40625 149.320312 L 25.433594 149.320312 Z M 25.433594 136.25 "/></clipPath><clipPath id="781b4a8171"><path d="M 36.910156 149.320312 L 26.925781 149.320312 C 26.53125 149.320312 26.148438 149.164062 25.871094 148.882812 C 25.589844 148.605469 25.433594 148.226562 25.433594 147.828125 L 25.433594 137.789062 C 25.433594 137.390625 25.589844 137.011719 25.871094 136.730469 C 26.148438 136.453125 26.53125 136.292969 26.925781 136.292969 L 36.910156 136.292969 C 37.308594 136.292969 37.6875 136.453125 37.96875 136.730469 C 38.246094 137.011719 38.40625 137.390625 38.40625 137.789062 L 38.40625 147.828125 C 38.40625 148.226562 38.246094 148.605469 37.96875 148.882812 C 37.6875 149.164062 37.308594 149.320312 36.910156 149.320312 Z M 36.910156 149.320312 "/></clipPath><clipPath id="da7606f77c"><path d="M 25.222656 136.144531 L 38.402344 136.144531 L 38.402344 149.320312 L 25.222656 149.320312 Z M 25.222656 136.144531 "/></clipPath><clipPath id="0943d1ab87"><path d="M 36.910156 149.320312 L 26.933594 149.320312 C 26.539062 149.320312 26.15625 149.164062 25.878906 148.886719 C 25.597656 148.605469 25.441406 148.226562 25.441406 147.832031 L 25.441406 137.796875 C 25.441406 137.402344 25.597656 137.023438 25.878906 136.742188 C 26.15625 136.464844 26.539062 136.308594 26.933594 136.308594 L 36.910156 136.308594 C 37.304688 136.308594 37.683594 136.464844 37.964844 136.742188 C 38.242188 137.023438 38.402344 137.402344 38.402344 137.796875 L 38.402344 147.832031 C 38.402344 148.226562 38.242188 148.605469 37.964844 148.886719 C 37.683594 149.164062 37.304688 149.320312 36.910156 149.320312 Z M 36.910156 149.320312 "/></clipPath><clipPath id="76c5026009"><path d="M 41.503906 136.25 L 54.476562 136.25 L 54.476562 149.320312 L 41.503906 149.320312 Z M 41.503906 136.25 "/></clipPath><clipPath id="90b25af844"><path d="M 52.980469 149.320312 L 42.996094 149.320312 C 42.597656 149.320312 42.21875 149.164062 41.941406 148.882812 C 41.660156 148.605469 41.503906 148.226562 41.503906 147.828125 L 41.503906 137.789062 C 41.503906 137.390625 41.660156 137.011719 41.941406 136.730469 C 42.21875 136.453125 42.597656 136.292969 42.996094 136.292969 L 52.980469 136.292969 C 53.378906 136.292969 53.757812 136.453125 54.039062 136.730469 C 54.316406 137.011719 54.476562 137.390625 54.476562 137.789062 L 54.476562 147.828125 C 54.476562 148.226562 54.316406 148.605469 54.039062 148.882812 C 53.757812 149.164062 53.378906 149.320312 52.980469 149.320312 Z M 52.980469 149.320312 "/></clipPath><clipPath id="c7f1115cd1"><path d="M 41.292969 136.144531 L 54.472656 136.144531 L 54.472656 149.320312 L 41.292969 149.320312 Z M 41.292969 136.144531 "/></clipPath><clipPath id="d2183273b6"><path d="M 52.980469 149.320312 L 43.003906 149.320312 C 42.605469 149.320312 42.226562 149.164062 41.949219 148.886719 C 41.667969 148.605469 41.511719 148.226562 41.511719 147.832031 L 41.511719 137.796875 C 41.511719 137.402344 41.667969 137.023438 41.949219 136.742188 C 42.226562 136.464844 42.605469 136.308594 43.003906 136.308594 L 52.980469 136.308594 C 53.375 136.308594 53.753906 136.464844 54.035156 136.742188 C 54.3125 137.023438 54.472656 137.402344 54.472656 137.796875 L 54.472656 147.832031 C 54.472656 148.226562 54.3125 148.605469 54.035156 148.886719 C 53.753906 149.164062 53.375 149.320312 52.980469 149.320312 Z M 52.980469 149.320312 "/></clipPath><clipPath id="c846f258d0"><path d="M 57.542969 136.25 L 70.515625 136.25 L 70.515625 149.320312 L 57.542969 149.320312 Z M 57.542969 136.25 "/></clipPath><clipPath id="60c364595d"><path d="M 69.023438 149.320312 L 59.039062 149.320312 C 58.640625 149.320312 58.261719 149.164062 57.980469 148.882812 C 57.703125 148.605469 57.542969 148.226562 57.542969 147.828125 L 57.542969 137.789062 C 57.542969 137.390625 57.703125 137.011719 57.980469 136.730469 C 58.261719 136.453125 58.640625 136.292969 59.039062 136.292969 L 69.023438 136.292969 C 69.417969 136.292969 69.800781 136.453125 70.078125 136.730469 C 70.359375 137.011719 70.515625 137.390625 70.515625 137.789062 L 70.515625 147.828125 C 70.515625 148.226562 70.359375 148.605469 70.078125 148.882812 C 69.800781 149.164062 69.417969 149.320312 69.023438 149.320312 Z M 69.023438 149.320312 "/></clipPath><clipPath id="51eed4a999"><path d="M 57.335938 136.144531 L 70.511719 136.144531 L 70.511719 149.320312 L 57.335938 149.320312 Z M 57.335938 136.144531 "/></clipPath><clipPath id="93dfb212c5"><path d="M 69.023438 149.320312 L 59.046875 149.320312 C 58.648438 149.320312 58.269531 149.164062 57.992188 148.886719 C 57.710938 148.605469 57.554688 148.226562 57.554688 147.832031 L 57.554688 137.796875 C 57.554688 137.402344 57.710938 137.023438 57.992188 136.742188 C 58.269531 136.464844 58.648438 136.308594 59.046875 136.308594 L 69.023438 136.308594 C 69.417969 136.308594 69.796875 136.464844 70.078125 136.742188 C 70.355469 137.023438 70.511719 137.402344 70.511719 137.796875 L 70.511719 147.832031 C 70.511719 148.226562 70.355469 148.605469 70.078125 148.886719 C 69.796875 149.164062 69.417969 149.320312 69.023438 149.320312 Z M 69.023438 149.320312 "/></clipPath><clipPath id="4e2e917bdb"><path d="M 73.585938 136.25 L 86.558594 136.25 L 86.558594 149.320312 L 73.585938 149.320312 Z M 73.585938 136.25 "/></clipPath><clipPath id="f25981ac7a"><path d="M 85.066406 149.320312 L 75.082031 149.320312 C 74.683594 149.320312 74.304688 149.164062 74.023438 148.882812 C 73.746094 148.605469 73.585938 148.226562 73.585938 147.828125 L 73.585938 137.789062 C 73.585938 137.390625 73.746094 137.011719 74.023438 136.730469 C 74.304688 136.453125 74.683594 136.292969 75.082031 136.292969 L 85.066406 136.292969 C 85.460938 136.292969 85.84375 136.453125 86.121094 136.730469 C 86.402344 137.011719 86.558594 137.390625 86.558594 137.789062 L 86.558594 147.828125 C 86.558594 148.226562 86.402344 148.605469 86.121094 148.882812 C 85.84375 149.164062 85.460938 149.320312 85.066406 149.320312 Z M 85.066406 149.320312 "/></clipPath><clipPath id="f8d319310e"><path d="M 73.378906 136.144531 L 86.554688 136.144531 L 86.554688 149.320312 L 73.378906 149.320312 Z M 73.378906 136.144531 "/></clipPath><clipPath id="20e83ec228"><path d="M 85.0625 149.320312 L 75.085938 149.320312 C 74.691406 149.320312 74.3125 149.164062 74.03125 148.886719 C 73.753906 148.605469 73.597656 148.226562 73.597656 147.832031 L 73.597656 137.796875 C 73.597656 137.402344 73.753906 137.023438 74.03125 136.742188 C 74.3125 136.464844 74.691406 136.308594 75.085938 136.308594 L 85.0625 136.308594 C 85.460938 136.308594 85.839844 136.464844 86.117188 136.742188 C 86.398438 137.023438 86.554688 137.402344 86.554688 137.796875 L 86.554688 147.832031 C 86.554688 148.226562 86.398438 148.605469 86.117188 148.886719 C 85.839844 149.164062 85.460938 149.320312 85.0625 149.320312 Z M 85.0625 149.320312 "/></clipPath></defs><g id="8e32dfc551"><g clip-rule="nonzero" clip-path="url(#009371c833)"><g clip-rule="nonzero" clip-path="url(#c447b30829)"><path style=" stroke:none;fill-rule:nonzero;fill:#e8e3dd;fill-opacity:1;" d="M 47.496094 171.328125 L 65.03125 171.328125 L 65.03125 181.234375 L 47.496094 181.234375 Z M 47.496094 171.328125 "/></g></g><g clip-rule="nonzero" clip-path="url(#6865ecb9a9)"><g clip-rule="nonzero" clip-path="url(#c55b5c15d2)"><path style=" stroke:none;fill-rule:nonzero;fill:#a72927;fill-opacity:1;" d="M 33.078125 178.738281 L 20.523438 178.738281 L 20.523438 173.621094 L 33.078125 173.621094 Z M 33.078125 178.738281 "/></g></g><g clip-rule="nonzero" clip-path="url(#050ec8d008)"><path style=" stroke:none;fill-rule:nonzero;fill:#252627;fill-opacity:1;" d="M 36.476562 174.949219 L 17.148438 174.949219 L 17.148438 169.832031 L 36.476562 169.832031 Z M 36.476562 174.949219 "/></g><g clip-rule="nonzero" clip-path="url(#51c3d16bad)"><g clip-rule="nonzero" clip-path="url(#8840adb1ec)"><path style=" stroke:none;fill-rule:nonzero;fill:#3e4041;fill-opacity:1;" d="M 111.1875 173.300781 L 0.808594 173.300781 L 0.808594 5.582031 L 111.1875 5.582031 Z M 111.1875 173.300781 "/></g></g><g clip-rule="nonzero" clip-path="url(#eb5319c9d2)"><g clip-rule="nonzero" clip-path="url(#bb1b1c8fa5)"><path style="fill:none;stroke-width:2.918674;stroke-linecap:butt;stroke-linejoin:miter;stroke:#000000;stroke-opacity:1;stroke-miterlimit:4;" d="M 4.379239 0.00119204 L 103.475001 0.00119204 C 104.639262 0.00119204 105.750081 0.463079 106.570789 1.283787 C 107.391498 2.104496 107.853385 3.215315 107.853385 4.379576 L 107.853385 159.340765 C 107.853385 160.501209 107.391498 161.615845 106.570789 162.436554 C 105.750081 163.257262 104.639262 163.719149 103.475001 163.719149 L 4.379239 163.719149 C 3.214978 163.719149 2.104159 163.257262 1.28345 162.436554 C 0.462742 161.615845 0.000854871 160.501209 0.000854871 159.340765 L 0.000854871 4.379576 C 0.000854871 3.215315 0.462742 2.104496 1.28345 1.283787 C 2.104159 0.463079 3.214978 0.00119204 4.379239 0.00119204 Z M 4.379239 0.00119204 " transform="matrix(-1.023316,0,0,-1.023316,111.184469,173.302001)"/></g></g><g clip-rule="nonzero" clip-path="url(#7acc40cabd)"><g clip-rule="nonzero" clip-path="url(#70f9852e3d)"><path style=" stroke:none;fill-rule:nonzero;fill:#3b3d3e;fill-opacity:1;" d="M 103.476562 164.164062 L 8.589844 164.164062 L 8.589844 73.183594 L 103.476562 73.183594 Z M 103.476562 164.164062 "/></g></g><g clip-rule="nonzero" clip-path="url(#25ca144af1)"><g clip-rule="nonzero" clip-path="url(#b04acb6242)"><path style="fill:none;stroke-width:2.918674;stroke-linecap:butt;stroke-linejoin:miter;stroke:#000000;stroke-opacity:1;stroke-miterlimit:4;" d="M 2.917948 0.000526569 L 89.878679 0.000526569 C 90.65358 0.000526569 91.394126 0.305906 91.94381 0.85559 C 92.489676 1.401457 92.795056 2.14582 92.795056 2.916904 L 92.795056 85.980224 C 92.795056 86.755126 92.489676 87.499489 91.94381 88.045356 C 91.394126 88.591222 90.65358 88.900419 89.878679 88.900419 L 2.917948 88.900419 C 2.143047 88.900419 1.4025 88.591222 0.856634 88.045356 C 0.30695 87.499489 0.00157038 86.755126 0.00157038 85.980224 L 0.00157038 2.916904 C 0.00157038 2.14582 0.30695 1.401457 0.856634 0.85559 C 1.4025 0.305906 2.143047 0.000526569 2.917948 0.000526569 Z M 2.917948 0.000526569 " transform="matrix(-1.023316,0,0,-1.023316,103.478169,164.160695)"/></g></g><path style="fill:none;stroke-width:2;stroke-linecap:butt;stroke-linejoin:miter;stroke:#000000;stroke-opacity:1;stroke-miterlimit:4;" d="M 0.000451126 1.001346 L 105.547363 1.001346 " transform="matrix(-1.023316,0,0,-1.023316,110.004368,62.430943)"/><g clip-rule="nonzero" clip-path="url(#ffacc957b9)"><path style=" stroke:none;fill-rule:nonzero;fill:#252627;fill-opacity:1;" d="M 101.4375 44.761719 L 10.496094 44.761719 L 10.496094 14.796875 L 101.4375 14.796875 Z M 101.4375 44.761719 "/></g><g clip-rule="nonzero" clip-path="url(#5cc4c0dd9b)"><path style="fill:none;stroke-width:2.918674;stroke-linecap:butt;stroke-linejoin:miter;stroke:#000000;stroke-opacity:1;stroke-miterlimit:4;" d="M 0.00135609 0.000732297 L 88.812998 0.000732297 L 88.812998 29.277758 L 0.00135609 29.277758 Z M 0.00135609 0.000732297 " transform="matrix(-1.025476,0,0,-1.013487,101.438891,44.758555)"/></g><g clip-rule="nonzero" clip-path="url(#6394349c33)"><g clip-rule="nonzero" clip-path="url(#20eea45e0c)"><path style=" stroke:none;fill-rule:nonzero;fill:#024324;fill-opacity:1;" d="M 95.53125 38.890625 L 16.472656 38.890625 L 16.472656 20.660156 L 95.53125 20.660156 Z M 95.53125 38.890625 "/></g></g><g clip-rule="nonzero" clip-path="url(#e0350b2469)"><g clip-rule="nonzero" clip-path="url(#90c90b701d)"><path style=" stroke:none;fill-rule:nonzero;fill:#434547;fill-opacity:1;" d="M 95.53125 17.355469 L 16.441406 17.355469 L 16.441406 12.238281 L 95.53125 12.238281 Z M 95.53125 17.355469 "/></g></g><g clip-rule="nonzero" clip-path="url(#678790014e)"><g clip-rule="nonzero" clip-path="url(#0119896ce9)"><path style="fill:none;stroke-width:1.459337;stroke-linecap:butt;stroke-linejoin:miter;stroke:#000000;stroke-opacity:1;stroke-miterlimit:4;" d="M 2.189271 -0.00142922 L 75.078258 -0.00142922 C 75.656651 -0.00142922 76.215892 0.232226 76.625746 0.642081 C 77.035601 1.051935 77.265426 1.607346 77.265426 2.189569 L 77.265426 2.810096 C 77.265426 3.392319 77.035601 3.94773 76.625746 4.357584 C 76.215892 4.767439 75.656651 5.001094 75.078258 5.001094 L 2.189271 5.001094 C 1.607048 5.001094 1.051638 4.767439 0.641783 4.357584 C 0.231929 3.94773 -0.00172652 3.392319 -0.00172652 2.810096 L -0.00172652 2.189569 C -0.00172652 1.607346 0.231929 1.051935 0.641783 0.642081 C 1.051638 0.232226 1.607048 -0.00142922 2.189271 -0.00142922 Z M 2.189271 -0.00142922 " transform="matrix(-1.019798,0,0,-1.019798,95.529489,17.354011)"/></g></g><g clip-rule="nonzero" clip-path="url(#8dedab17b5)"><g clip-rule="nonzero" clip-path="url(#7f68e5e176)"><path style=" stroke:none;fill-rule:nonzero;fill:#434547;fill-opacity:1;" d="M 95.53125 46.316406 L 16.453125 46.316406 L 16.453125 40.941406 L 95.53125 40.941406 Z M 95.53125 46.316406 "/></g></g><g clip-rule="nonzero" clip-path="url(#1d667b5dd8)"><g clip-rule="nonzero" clip-path="url(#d0fa692394)"><path style="fill:none;stroke-width:1.459337;stroke-linecap:butt;stroke-linejoin:miter;stroke:#000000;stroke-opacity:1;stroke-miterlimit:4;" d="M 2.187477 -0.000867312 L 75.064979 -0.000867312 C 75.647202 -0.000867312 76.202612 0.231603 76.612467 0.64043 C 77.022321 1.053266 77.255977 1.606385 77.255977 2.187561 L 77.255977 3.061329 C 77.255977 3.642505 77.022321 4.199632 76.612467 4.608459 C 76.202612 5.021295 75.647202 5.249757 75.064979 5.249757 L 2.187477 5.249757 C 1.609084 5.249757 1.049843 5.021295 0.639988 4.608459 C 0.230134 4.199632 0.000308778 3.642505 0.000308778 3.061329 L 0.000308778 2.187561 C 0.000308778 1.606385 0.230134 1.053266 0.639988 0.64043 C 1.049843 0.231603 1.609084 -0.000867312 2.187477 -0.000867312 Z M 2.187477 -0.000867312 " transform="matrix(-1.019798,0,0,-0.974586,95.523752,46.315561)"/></g></g><g clip-rule="nonzero" clip-path="url(#5a30918099)"><g clip-rule="nonzero" clip-path="url(#0cb0a86a6f)"><path style=" stroke:none;fill-rule:nonzero;fill:#3b3d3e;fill-opacity:1;" d="M 94.855469 155.277344 L 17.058594 155.277344 L 17.058594 82.058594 L 94.855469 82.058594 Z M 94.855469 155.277344 "/></g></g><g clip-rule="nonzero" clip-path="url(#2d4e1dc893)"><g clip-rule="nonzero" clip-path="url(#09c18e053d)"><path style="fill:none;stroke-width:2.918674;stroke-linecap:butt;stroke-linejoin:miter;stroke:#d4cfc9;stroke-opacity:1;stroke-miterlimit:4;" d="M 1.459052 0.00176802 L 74.475369 0.00176802 C 74.860911 0.00176802 75.235001 0.154458 75.506026 0.4293 C 75.780867 0.700324 75.933557 1.070597 75.933557 1.459957 L 75.933557 70.086438 C 75.933557 70.475797 75.780867 70.84607 75.506026 71.120912 C 75.235001 71.391937 74.860911 71.548444 74.475369 71.548444 L 1.459052 71.548444 C 1.07351 71.548444 0.69942 71.391937 0.428396 71.120912 C 0.153554 70.84607 0.000863762 70.475797 0.000863762 70.086438 L 0.000863762 1.459957 C 0.000863762 1.070597 0.153554 0.700324 0.428396 0.4293 C 0.69942 0.154458 1.07351 0.00176802 1.459052 0.00176802 Z M 1.459052 0.00176802 " transform="matrix(-1.023316,0,0,-1.023316,94.852446,155.279153)"/></g></g><g clip-rule="nonzero" clip-path="url(#5f6a9c3fdb)"><g clip-rule="nonzero" clip-path="url(#039e66ba82)"><path style=" stroke:none;fill-rule:nonzero;fill:#31668c;fill-opacity:1;" d="M 38.40625 101.027344 L 25.433594 101.027344 L 25.433594 88.003906 L 38.40625 88.003906 Z M 38.40625 101.027344 "/></g></g><g clip-rule="nonzero" clip-path="url(#0a4a8c4f4d)"><g clip-rule="nonzero" clip-path="url(#0c13435ed9)"><path style="fill:none;stroke-width:1.459337;stroke-linecap:butt;stroke-linejoin:miter;stroke:#d4cfc9;stroke-opacity:1;stroke-miterlimit:4;" d="M 1.456925 0.00159891 L 11.206177 0.00159891 C 11.591719 0.00159891 11.965809 0.154289 12.236834 0.425313 C 12.511676 0.700155 12.664366 1.070428 12.664366 1.459788 L 12.664366 11.262481 C 12.664366 11.648023 12.511676 12.018296 12.236834 12.293138 C 11.965809 12.564163 11.591719 12.716853 11.206177 12.716853 L 1.456925 12.716853 C 1.071383 12.716853 0.70111 12.564163 0.426268 12.293138 C 0.155244 12.018296 -0.00126363 11.648023 -0.00126363 11.262481 L -0.00126363 1.459788 C -0.00126363 1.070428 0.155244 0.700155 0.426268 0.425313 C 0.70111 0.154289 1.071383 0.00159891 1.456925 0.00159891 Z M 1.456925 0.00159891 " transform="matrix(-1.023316,0,0,-1.023316,38.401051,101.02898)"/></g></g><g clip-rule="nonzero" clip-path="url(#06ff9e4c74)"><g clip-rule="nonzero" clip-path="url(#64b19cdb34)"><path style=" stroke:none;fill-rule:nonzero;fill:#31668c;fill-opacity:1;" d="M 54.476562 101.027344 L 41.503906 101.027344 L 41.503906 88.003906 L 54.476562 88.003906 Z M 54.476562 101.027344 "/></g></g><g clip-rule="nonzero" clip-path="url(#8b550db8be)"><g clip-rule="nonzero" clip-path="url(#41b3cd60c0)"><path style="fill:none;stroke-width:1.459337;stroke-linecap:butt;stroke-linejoin:miter;stroke:#d4cfc9;stroke-opacity:1;stroke-miterlimit:4;" d="M 1.456628 0.00159891 L 11.20588 0.00159891 C 11.595239 0.00159891 11.965512 0.154289 12.236537 0.425313 C 12.511379 0.700155 12.664069 1.070428 12.664069 1.459788 L 12.664069 11.262481 C 12.664069 11.648023 12.511379 12.018296 12.236537 12.293138 C 11.965512 12.564163 11.595239 12.716853 11.20588 12.716853 L 1.456628 12.716853 C 1.071086 12.716853 0.700813 12.564163 0.425971 12.293138 C 0.154947 12.018296 -0.00156054 11.648023 -0.00156054 11.262481 L -0.00156054 1.459788 C -0.00156054 1.070428 0.154947 0.700155 0.425971 0.425313 C 0.700813 0.154289 1.071086 0.00159891 1.456628 0.00159891 Z M 1.456628 0.00159891 " transform="matrix(-1.023316,0,0,-1.023316,54.471059,101.02898)"/></g></g><g clip-rule="nonzero" clip-path="url(#64e7a9fd04)"><g clip-rule="nonzero" clip-path="url(#b2be9331c4)"><path style=" stroke:none;fill-rule:nonzero;fill:#31668c;fill-opacity:1;" d="M 70.515625 101.027344 L 57.542969 101.027344 L 57.542969 88.003906 L 70.515625 88.003906 Z M 70.515625 101.027344 "/></g></g><g clip-rule="nonzero" clip-path="url(#f4f320d66a)"><g clip-rule="nonzero" clip-path="url(#7063b9793e)"><path style="fill:none;stroke-width:1.459337;stroke-linecap:butt;stroke-linejoin:miter;stroke:#d4cfc9;stroke-opacity:1;stroke-miterlimit:4;" d="M 1.456166 0.00159891 L 11.205418 0.00159891 C 11.594778 0.00159891 11.965051 0.154289 12.236075 0.425313 C 12.510917 0.700155 12.663607 1.070428 12.663607 1.459788 L 12.663607 11.262481 C 12.663607 11.648023 12.510917 12.018296 12.236075 12.293138 C 11.965051 12.564163 11.594778 12.716853 11.205418 12.716853 L 1.456166 12.716853 C 1.070624 12.716853 0.700351 12.564163 0.425509 12.293138 C 0.154485 12.018296 0.00179487 11.648023 0.00179487 11.262481 L 0.00179487 1.459788 C 0.00179487 1.070428 0.154485 0.700155 0.425509 0.425313 C 0.700351 0.154289 1.070624 0.00159891 1.456166 0.00159891 Z M 1.456166 0.00159891 " transform="matrix(-1.023316,0,0,-1.023316,70.513555,101.02898)"/></g></g><g clip-rule="nonzero" clip-path="url(#bb438592ae)"><g clip-rule="nonzero" clip-path="url(#ae87e288d9)"><path style=" stroke:none;fill-rule:nonzero;fill:#b84240;fill-opacity:1;" d="M 86.558594 101.027344 L 73.585938 101.027344 L 73.585938 88.003906 L 86.558594 88.003906 Z M 86.558594 101.027344 "/></g></g><g clip-rule="nonzero" clip-path="url(#ad81c1866b)"><g clip-rule="nonzero" clip-path="url(#28704ab72b)"><path style="fill:none;stroke-width:1.459337;stroke-linecap:butt;stroke-linejoin:miter;stroke:#d4cfc9;stroke-opacity:1;stroke-miterlimit:4;" d="M 1.45952 0.00159891 L 11.208771 0.00159891 C 11.594313 0.00159891 11.964586 0.154289 12.239428 0.425313 C 12.510453 0.700155 12.663143 1.070428 12.663143 1.459788 L 12.663143 11.262481 C 12.663143 11.648023 12.510453 12.018296 12.239428 12.293138 C 11.964586 12.564163 11.594313 12.716853 11.208771 12.716853 L 1.45952 12.716853 C 1.07016 12.716853 0.699887 12.564163 0.428862 12.293138 C 0.154021 12.018296 0.0013307 11.648023 0.0013307 11.262481 L 0.0013307 1.459788 C 0.0013307 1.070428 0.154021 0.700155 0.428862 0.425313 C 0.699887 0.154289 1.07016 0.00159891 1.45952 0.00159891 Z M 1.45952 0.00159891 " transform="matrix(-1.023316,0,0,-1.023316,86.556049,101.02898)"/></g></g><g clip-rule="nonzero" clip-path="url(#425b25306a)"><g clip-rule="nonzero" clip-path="url(#e86af7a084)"><path style=" stroke:none;fill-rule:nonzero;fill:#31668c;fill-opacity:1;" d="M 38.40625 117.125 L 25.433594 117.125 L 25.433594 104.101562 L 38.40625 104.101562 Z M 38.40625 117.125 "/></g></g><g clip-rule="nonzero" clip-path="url(#6754c2c0d4)"><g clip-rule="nonzero" clip-path="url(#f4e8f81e00)"><path style="fill:none;stroke-width:1.459337;stroke-linecap:butt;stroke-linejoin:miter;stroke:#d4cfc9;stroke-opacity:1;stroke-miterlimit:4;" d="M 1.456925 0.00167006 L 11.206177 0.00167006 C 11.591719 0.00167006 11.965809 0.15436 12.236834 0.425385 C 12.511676 0.700226 12.664366 1.0705 12.664366 1.456042 L 12.664366 11.262552 C 12.664366 11.648094 12.511676 12.018367 12.236834 12.293209 C 11.965809 12.564234 11.591719 12.716924 11.206177 12.716924 L 1.456925 12.716924 C 1.071383 12.716924 0.70111 12.564234 0.426268 12.293209 C 0.155244 12.018367 -0.00126363 11.648094 -0.00126363 11.262552 L -0.00126363 1.456042 C -0.00126363 1.0705 0.155244 0.700226 0.426268 0.425385 C 0.70111 0.15436 1.071383 0.00167006 1.456925 0.00167006 Z M 1.456925 0.00167006 " transform="matrix(-1.023316,0,0,-1.023316,38.401051,117.126709)"/></g></g><g clip-rule="nonzero" clip-path="url(#ee59dc75f2)"><g clip-rule="nonzero" clip-path="url(#f76e4e00b0)"><path style=" stroke:none;fill-rule:nonzero;fill:#31668c;fill-opacity:1;" d="M 54.476562 117.125 L 41.503906 117.125 L 41.503906 104.101562 L 54.476562 104.101562 Z M 54.476562 117.125 "/></g></g><g clip-rule="nonzero" clip-path="url(#083fa7999b)"><g clip-rule="nonzero" clip-path="url(#96e1018055)"><path style="fill:none;stroke-width:1.459337;stroke-linecap:butt;stroke-linejoin:miter;stroke:#d4cfc9;stroke-opacity:1;stroke-miterlimit:4;" d="M 1.456628 0.00167006 L 11.20588 0.00167006 C 11.595239 0.00167006 11.965512 0.15436 12.236537 0.425385 C 12.511379 0.700226 12.664069 1.0705 12.664069 1.456042 L 12.664069 11.262552 C 12.664069 11.648094 12.511379 12.018367 12.236537 12.293209 C 11.965512 12.564234 11.595239 12.716924 11.20588 12.716924 L 1.456628 12.716924 C 1.071086 12.716924 0.700813 12.564234 0.425971 12.293209 C 0.154947 12.018367 -0.00156054 11.648094 -0.00156054 11.262552 L -0.00156054 1.456042 C -0.00156054 1.0705 0.154947 0.700226 0.425971 0.425385 C 0.700813 0.15436 1.071086 0.00167006 1.456628 0.00167006 Z M 1.456628 0.00167006 " transform="matrix(-1.023316,0,0,-1.023316,54.471059,117.126709)"/></g></g><g clip-rule="nonzero" clip-path="url(#108999c2e2)"><g clip-rule="nonzero" clip-path="url(#14ae771500)"><path style=" stroke:none;fill-rule:nonzero;fill:#31668c;fill-opacity:1;" d="M 70.515625 117.125 L 57.542969 117.125 L 57.542969 104.101562 L 70.515625 104.101562 Z M 70.515625 117.125 "/></g></g><g clip-rule="nonzero" clip-path="url(#d96b5f31b3)"><g clip-rule="nonzero" clip-path="url(#b789e5ff15)"><path style="fill:none;stroke-width:1.459337;stroke-linecap:butt;stroke-linejoin:miter;stroke:#d4cfc9;stroke-opacity:1;stroke-miterlimit:4;" d="M 1.456166 0.00167006 L 11.205418 0.00167006 C 11.594778 0.00167006 11.965051 0.15436 12.236075 0.425385 C 12.510917 0.700226 12.663607 1.0705 12.663607 1.456042 L 12.663607 11.262552 C 12.663607 11.648094 12.510917 12.018367 12.236075 12.293209 C 11.965051 12.564234 11.594778 12.716924 11.205418 12.716924 L 1.456166 12.716924 C 1.070624 12.716924 0.700351 12.564234 0.425509 12.293209 C 0.154485 12.018367 0.00179487 11.648094 0.00179487 11.262552 L 0.00179487 1.456042 C 0.00179487 1.0705 0.154485 0.700226 0.425509 0.425385 C 0.700351 0.15436 1.070624 0.00167006 1.456166 0.00167006 Z M 1.456166 0.00167006 " transform="matrix(-1.023316,0,0,-1.023316,70.513555,117.126709)"/></g></g><g clip-rule="nonzero" clip-path="url(#8476720fb3)"><g clip-rule="nonzero" clip-path="url(#b238cf17b1)"><path style=" stroke:none;fill-rule:nonzero;fill:#b84240;fill-opacity:1;" d="M 86.558594 117.125 L 73.585938 117.125 L 73.585938 104.101562 L 86.558594 104.101562 Z M 86.558594 117.125 "/></g></g><g clip-rule="nonzero" clip-path="url(#75a1d82920)"><g clip-rule="nonzero" clip-path="url(#acacb51c74)"><path style="fill:none;stroke-width:1.459337;stroke-linecap:butt;stroke-linejoin:miter;stroke:#d4cfc9;stroke-opacity:1;stroke-miterlimit:4;" d="M 1.45952 0.00167006 L 11.208771 0.00167006 C 11.594313 0.00167006 11.964586 0.15436 12.239428 0.425385 C 12.510453 0.700226 12.663143 1.0705 12.663143 1.456042 L 12.663143 11.262552 C 12.663143 11.648094 12.510453 12.018367 12.239428 12.293209 C 11.964586 12.564234 11.594313 12.716924 11.208771 12.716924 L 1.45952 12.716924 C 1.07016 12.716924 0.699887 12.564234 0.428862 12.293209 C 0.154021 12.018367 0.0013307 11.648094 0.0013307 11.262552 L 0.0013307 1.456042 C 0.0013307 1.0705 0.154021 0.700226 0.428862 0.425385 C 0.699887 0.15436 1.07016 0.00167006 1.45952 0.00167006 Z M 1.45952 0.00167006 " transform="matrix(-1.023316,0,0,-1.023316,86.556049,117.126709)"/></g></g><g clip-rule="nonzero" clip-path="url(#752c9fe9d4)"><g clip-rule="nonzero" clip-path="url(#fd0f4b8c6d)"><path style=" stroke:none;fill-rule:nonzero;fill:#31668c;fill-opacity:1;" d="M 38.40625 133.222656 L 25.433594 133.222656 L 25.433594 120.203125 L 38.40625 120.203125 Z M 38.40625 133.222656 "/></g></g><g clip-rule="nonzero" clip-path="url(#738e4d7c4e)"><g clip-rule="nonzero" clip-path="url(#79fbb29788)"><path style="fill:none;stroke-width:1.459337;stroke-linecap:butt;stroke-linejoin:miter;stroke:#d4cfc9;stroke-opacity:1;stroke-miterlimit:4;" d="M 1.456925 0.00173421 L 11.206177 0.00173421 C 11.591719 0.00173421 11.965809 0.154424 12.236834 0.425449 C 12.511676 0.700291 12.664366 1.070564 12.664366 1.456106 L 12.664366 11.262616 C 12.664366 11.648158 12.511676 12.018431 12.236834 12.293273 C 11.965809 12.564298 11.591719 12.716988 11.206177 12.716988 L 1.456925 12.716988 C 1.071383 12.716988 0.70111 12.564298 0.426268 12.293273 C 0.155244 12.018431 -0.00126363 11.648158 -0.00126363 11.262616 L -0.00126363 1.456106 C -0.00126363 1.070564 0.155244 0.700291 0.426268 0.425449 C 0.70111 0.154424 1.071383 0.00173421 1.456925 0.00173421 Z M 1.456925 0.00173421 " transform="matrix(-1.023316,0,0,-1.023316,38.401051,133.224431)"/></g></g><g clip-rule="nonzero" clip-path="url(#897475e5d6)"><g clip-rule="nonzero" clip-path="url(#1a4c8a1b5a)"><path style=" stroke:none;fill-rule:nonzero;fill:#31668c;fill-opacity:1;" d="M 54.476562 133.222656 L 41.503906 133.222656 L 41.503906 120.203125 L 54.476562 120.203125 Z M 54.476562 133.222656 "/></g></g><g clip-rule="nonzero" clip-path="url(#1a4d8ca836)"><g clip-rule="nonzero" clip-path="url(#28c37e9dfc)"><path style="fill:none;stroke-width:1.459337;stroke-linecap:butt;stroke-linejoin:miter;stroke:#d4cfc9;stroke-opacity:1;stroke-miterlimit:4;" d="M 1.456628 0.00173421 L 11.20588 0.00173421 C 11.595239 0.00173421 11.965512 0.154424 12.236537 0.425449 C 12.511379 0.700291 12.664069 1.070564 12.664069 1.456106 L 12.664069 11.262616 C 12.664069 11.648158 12.511379 12.018431 12.236537 12.293273 C 11.965512 12.564298 11.595239 12.716988 11.20588 12.716988 L 1.456628 12.716988 C 1.071086 12.716988 0.700813 12.564298 0.425971 12.293273 C 0.154947 12.018431 -0.00156054 11.648158 -0.00156054 11.262616 L -0.00156054 1.456106 C -0.00156054 1.070564 0.154947 0.700291 0.425971 0.425449 C 0.700813 0.154424 1.071086 0.00173421 1.456628 0.00173421 Z M 1.456628 0.00173421 " transform="matrix(-1.023316,0,0,-1.023316,54.471059,133.224431)"/></g></g><g clip-rule="nonzero" clip-path="url(#5842e5c2d2)"><g clip-rule="nonzero" clip-path="url(#ffbac4ded9)"><path style=" stroke:none;fill-rule:nonzero;fill:#31668c;fill-opacity:1;" d="M 70.515625 133.222656 L 57.542969 133.222656 L 57.542969 120.203125 L 70.515625 120.203125 Z M 70.515625 133.222656 "/></g></g><g clip-rule="nonzero" clip-path="url(#3c5df26d05)"><g clip-rule="nonzero" clip-path="url(#e273de8452)"><path style="fill:none;stroke-width:1.459337;stroke-linecap:butt;stroke-linejoin:miter;stroke:#d4cfc9;stroke-opacity:1;stroke-miterlimit:4;" d="M 1.456166 0.00173421 L 11.205418 0.00173421 C 11.594778 0.00173421 11.965051 0.154424 12.236075 0.425449 C 12.510917 0.700291 12.663607 1.070564 12.663607 1.456106 L 12.663607 11.262616 C 12.663607 11.648158 12.510917 12.018431 12.236075 12.293273 C 11.965051 12.564298 11.594778 12.716988 11.205418 12.716988 L 1.456166 12.716988 C 1.070624 12.716988 0.700351 12.564298 0.425509 12.293273 C 0.154485 12.018431 0.00179487 11.648158 0.00179487 11.262616 L 0.00179487 1.456106 C 0.00179487 1.070564 0.154485 0.700291 0.425509 0.425449 C 0.700351 0.154424 1.070624 0.00173421 1.456166 0.00173421 Z M 1.456166 0.00173421 " transform="matrix(-1.023316,0,0,-1.023316,70.513555,133.224431)"/></g></g><g clip-rule="nonzero" clip-path="url(#b194d08d73)"><g clip-rule="nonzero" clip-path="url(#5f6b907457)"><path style=" stroke:none;fill-rule:nonzero;fill:#b84240;fill-opacity:1;" d="M 86.558594 133.222656 L 73.585938 133.222656 L 73.585938 120.203125 L 86.558594 120.203125 Z M 86.558594 133.222656 "/></g></g><g clip-rule="nonzero" clip-path="url(#c08590d8ac)"><g clip-rule="nonzero" clip-path="url(#dc5afcf14c)"><path style="fill:none;stroke-width:1.459337;stroke-linecap:butt;stroke-linejoin:miter;stroke:#d4cfc9;stroke-opacity:1;stroke-miterlimit:4;" d="M 1.45952 0.00173421 L 11.208771 0.00173421 C 11.594313 0.00173421 11.964586 0.154424 12.239428 0.425449 C 12.510453 0.700291 12.663143 1.070564 12.663143 1.456106 L 12.663143 11.262616 C 12.663143 11.648158 12.510453 12.018431 12.239428 12.293273 C 11.964586 12.564298 11.594313 12.716988 11.208771 12.716988 L 1.45952 12.716988 C 1.07016 12.716988 0.699887 12.564298 0.428862 12.293273 C 0.154021 12.018431 0.0013307 11.648158 0.0013307 11.262616 L 0.0013307 1.456106 C 0.0013307 1.070564 0.154021 0.700291 0.428862 0.425449 C 0.699887 0.154424 1.07016 0.00173421 1.45952 0.00173421 Z M 1.45952 0.00173421 " transform="matrix(-1.023316,0,0,-1.023316,86.556049,133.224431)"/></g></g><g clip-rule="nonzero" clip-path="url(#c28199f7ad)"><g clip-rule="nonzero" clip-path="url(#781b4a8171)"><path style=" stroke:none;fill-rule:nonzero;fill:#b84240;fill-opacity:1;" d="M 38.40625 149.320312 L 25.433594 149.320312 L 25.433594 136.300781 L 38.40625 136.300781 Z M 38.40625 149.320312 "/></g></g><g clip-rule="nonzero" clip-path="url(#da7606f77c)"><g clip-rule="nonzero" clip-path="url(#0943d1ab87)"><path style="fill:none;stroke-width:1.459337;stroke-linecap:butt;stroke-linejoin:miter;stroke:#d4cfc9;stroke-opacity:1;stroke-miterlimit:4;" d="M 1.456925 0.00179836 L 11.206177 0.00179836 C 11.591719 0.00179836 11.965809 0.154488 12.236834 0.425513 C 12.511676 0.700355 12.664366 1.070628 12.664366 1.45617 L 12.664366 11.26268 C 12.664366 11.648223 12.511676 12.018496 12.236834 12.293337 C 11.965809 12.564362 11.591719 12.717052 11.206177 12.717052 L 1.456925 12.717052 C 1.071383 12.717052 0.70111 12.564362 0.426268 12.293337 C 0.155244 12.018496 -0.00126363 11.648223 -0.00126363 11.26268 L -0.00126363 1.45617 C -0.00126363 1.070628 0.155244 0.700355 0.426268 0.425513 C 0.70111 0.154488 1.071383 0.00179836 1.456925 0.00179836 Z M 1.456925 0.00179836 " transform="matrix(-1.023316,0,0,-1.023316,38.401051,149.322153)"/></g></g><g clip-rule="nonzero" clip-path="url(#76c5026009)"><g clip-rule="nonzero" clip-path="url(#90b25af844)"><path style=" stroke:none;fill-rule:nonzero;fill:#31668c;fill-opacity:1;" d="M 54.476562 149.320312 L 41.503906 149.320312 L 41.503906 136.300781 L 54.476562 136.300781 Z M 54.476562 149.320312 "/></g></g><g clip-rule="nonzero" clip-path="url(#c7f1115cd1)"><g clip-rule="nonzero" clip-path="url(#d2183273b6)"><path style="fill:none;stroke-width:1.459337;stroke-linecap:butt;stroke-linejoin:miter;stroke:#d4cfc9;stroke-opacity:1;stroke-miterlimit:4;" d="M 1.456628 0.00179836 L 11.20588 0.00179836 C 11.595239 0.00179836 11.965512 0.154488 12.236537 0.425513 C 12.511379 0.700355 12.664069 1.070628 12.664069 1.45617 L 12.664069 11.26268 C 12.664069 11.648223 12.511379 12.018496 12.236537 12.293337 C 11.965512 12.564362 11.595239 12.717052 11.20588 12.717052 L 1.456628 12.717052 C 1.071086 12.717052 0.700813 12.564362 0.425971 12.293337 C 0.154947 12.018496 -0.00156054 11.648223 -0.00156054 11.26268 L -0.00156054 1.45617 C -0.00156054 1.070628 0.154947 0.700355 0.425971 0.425513 C 0.700813 0.154488 1.071086 0.00179836 1.456628 0.00179836 Z M 1.456628 0.00179836 " transform="matrix(-1.023316,0,0,-1.023316,54.471059,149.322153)"/></g></g><g clip-rule="nonzero" clip-path="url(#c846f258d0)"><g clip-rule="nonzero" clip-path="url(#60c364595d)"><path style=" stroke:none;fill-rule:nonzero;fill:#b84240;fill-opacity:1;" d="M 70.515625 149.320312 L 57.542969 149.320312 L 57.542969 136.300781 L 70.515625 136.300781 Z M 70.515625 149.320312 "/></g></g><g clip-rule="nonzero" clip-path="url(#51eed4a999)"><g clip-rule="nonzero" clip-path="url(#93dfb212c5)"><path style="fill:none;stroke-width:1.459337;stroke-linecap:butt;stroke-linejoin:miter;stroke:#d4cfc9;stroke-opacity:1;stroke-miterlimit:4;" d="M 1.456166 0.00179836 L 11.205418 0.00179836 C 11.594778 0.00179836 11.965051 0.154488 12.236075 0.425513 C 12.510917 0.700355 12.663607 1.070628 12.663607 1.45617 L 12.663607 11.26268 C 12.663607 11.648223 12.510917 12.018496 12.236075 12.293337 C 11.965051 12.564362 11.594778 12.717052 11.205418 12.717052 L 1.456166 12.717052 C 1.070624 12.717052 0.700351 12.564362 0.425509 12.293337 C 0.154485 12.018496 0.00179487 11.648223 0.00179487 11.26268 L 0.00179487 1.45617 C 0.00179487 1.070628 0.154485 0.700355 0.425509 0.425513 C 0.700351 0.154488 1.070624 0.00179836 1.456166 0.00179836 Z M 1.456166 0.00179836 " transform="matrix(-1.023316,0,0,-1.023316,70.513555,149.322153)"/></g></g><g clip-rule="nonzero" clip-path="url(#4e2e917bdb)"><g clip-rule="nonzero" clip-path="url(#f25981ac7a)"><path style=" stroke:none;fill-rule:nonzero;fill:#b84240;fill-opacity:1;" d="M 86.558594 149.320312 L 73.585938 149.320312 L 73.585938 136.300781 L 86.558594 136.300781 Z M 86.558594 149.320312 "/></g></g><g clip-rule="nonzero" clip-path="url(#f8d319310e)"><g clip-rule="nonzero" clip-path="url(#20e83ec228)"><path style="fill:none;stroke-width:1.459337;stroke-linecap:butt;stroke-linejoin:miter;stroke:#d4cfc9;stroke-opacity:1;stroke-miterlimit:4;" d="M 1.45952 0.00179836 L 11.208771 0.00179836 C 11.594313 0.00179836 11.964586 0.154488 12.239428 0.425513 C 12.510453 0.700355 12.663143 1.070628 12.663143 1.45617 L 12.663143 11.26268 C 12.663143 11.648223 12.510453 12.018496 12.239428 12.293337 C 11.964586 12.564362 11.594313 12.717052 11.208771 12.717052 L 1.45952 12.717052 C 1.07016 12.717052 0.699887 12.564362 0.428862 12.293337 C 0.154021 12.018496 0.0013307 11.648223 0.0013307 11.26268 L 0.0013307 1.45617 C 0.0013307 1.070628 0.154021 0.700355 0.428862 0.425513 C 0.699887 0.154488 1.07016 0.00179836 1.45952 0.00179836 Z M 1.45952 0.00179836 " transform="matrix(-1.023316,0,0,-1.023316,86.556049,149.322153)"/></g></g><path style="fill:none;stroke-width:2;stroke-linecap:round;stroke-linejoin:miter;stroke:#ccc7c2;stroke-opacity:1;stroke-miterlimit:4;" d="M 1.001842 0.998919 L 20.422291 0.998919 " transform="matrix(1.003895,0.000000000000001332,-0.000000000000001332,1.003895,45.041131,172.391721)"/><path style="fill:none;stroke-width:1;stroke-linecap:butt;stroke-linejoin:miter;stroke:#ccc7c2;stroke-opacity:1;stroke-miterlimit:4;" d="M 0.000783733 0.499153 L 16.754789 0.499593 " transform="matrix(1.022145,0.0489353,-0.0489353,1.022145,47.933781,174.950693)"/><path style="fill:none;stroke-width:1;stroke-linecap:butt;stroke-linejoin:miter;stroke:#ccc7c2;stroke-opacity:1;stroke-miterlimit:4;" d="M 0.000450183 0.500165 L 16.754456 0.500605 " transform="matrix(1.022145,0.0489353,-0.0489353,1.022145,47.727141,177.406706)"/><g style="fill:#d6d4ce;fill-opacity:1;"><g transform="translate(29.995961, 96.601735)"><path style="stroke:none" d="M 3.15625 -0.625 L 3.15625 0 L 0.921875 0 L 0.921875 -0.625 L 1.625 -0.625 L 1.625 -3.78125 L 0.828125 -3.78125 L 0.828125 -4.3125 C 1.304688 -4.332031 1.632812 -4.4375 1.8125 -4.625 L 2.453125 -4.625 L 2.453125 -0.625 Z M 3.15625 -0.625 "/></g></g><g style="fill:#d6d4ce;fill-opacity:1;"><g transform="translate(46.065969, 96.601735)"><path style="stroke:none" d="M 3.421875 -3.3125 C 3.421875 -3.070312 3.375 -2.851562 3.28125 -2.65625 C 3.1875 -2.457031 3.046875 -2.257812 2.859375 -2.0625 C 2.742188 -1.945312 2.4375 -1.6875 1.9375 -1.28125 C 1.613281 -1.007812 1.390625 -0.816406 1.265625 -0.703125 L 3.421875 -0.703125 L 3.421875 0 L 0.359375 0 L 0.359375 -0.75 C 0.378906 -0.863281 0.460938 -1.003906 0.609375 -1.171875 C 0.765625 -1.347656 1 -1.5625 1.3125 -1.8125 C 1.664062 -2.082031 1.9375 -2.3125 2.125 -2.5 C 2.3125 -2.6875 2.4375 -2.835938 2.5 -2.953125 C 2.5625 -3.078125 2.59375 -3.195312 2.59375 -3.3125 C 2.59375 -3.507812 2.53125 -3.660156 2.40625 -3.765625 C 2.289062 -3.878906 2.128906 -3.9375 1.921875 -3.9375 C 1.710938 -3.9375 1.535156 -3.875 1.390625 -3.75 C 1.253906 -3.625 1.160156 -3.445312 1.109375 -3.21875 L 0.375 -3.375 C 0.40625 -3.613281 0.492188 -3.828125 0.640625 -4.015625 C 0.796875 -4.210938 0.984375 -4.363281 1.203125 -4.46875 C 1.429688 -4.570312 1.675781 -4.625 1.9375 -4.625 C 2.21875 -4.625 2.46875 -4.566406 2.6875 -4.453125 C 2.914062 -4.347656 3.09375 -4.195312 3.21875 -4 C 3.351562 -3.800781 3.421875 -3.570312 3.421875 -3.3125 Z M 3.421875 -3.3125 "/></g></g><g style="fill:#d6d4ce;fill-opacity:1;"><g transform="translate(62.108461, 112.570536)"><path style="stroke:none" d="M 3.390625 -4.28125 L 3.03125 -3.625 C 2.789062 -3.832031 2.535156 -3.9375 2.265625 -3.9375 C 2.066406 -3.9375 1.878906 -3.867188 1.703125 -3.734375 C 1.535156 -3.609375 1.398438 -3.441406 1.296875 -3.234375 C 1.191406 -3.023438 1.140625 -2.796875 1.140625 -2.546875 C 1.273438 -2.671875 1.425781 -2.765625 1.59375 -2.828125 C 1.757812 -2.890625 1.941406 -2.921875 2.140625 -2.921875 C 2.410156 -2.921875 2.648438 -2.851562 2.859375 -2.71875 C 3.078125 -2.59375 3.242188 -2.414062 3.359375 -2.1875 C 3.484375 -1.96875 3.546875 -1.71875 3.546875 -1.4375 C 3.546875 -1.144531 3.476562 -0.882812 3.34375 -0.65625 C 3.21875 -0.4375 3.035156 -0.257812 2.796875 -0.125 C 2.554688 0 2.269531 0.0625 1.9375 0.0625 C 1.4375 0.0625 1.039062 -0.117188 0.75 -0.484375 C 0.457031 -0.847656 0.3125 -1.351562 0.3125 -2 C 0.3125 -2.539062 0.390625 -3.003906 0.546875 -3.390625 C 0.703125 -3.785156 0.925781 -4.085938 1.21875 -4.296875 C 1.519531 -4.515625 1.867188 -4.625 2.265625 -4.625 C 2.484375 -4.625 2.679688 -4.59375 2.859375 -4.53125 C 3.035156 -4.476562 3.210938 -4.394531 3.390625 -4.28125 Z M 2 -0.625 C 2.21875 -0.625 2.394531 -0.691406 2.53125 -0.828125 C 2.664062 -0.972656 2.734375 -1.164062 2.734375 -1.40625 C 2.734375 -1.675781 2.664062 -1.878906 2.53125 -2.015625 C 2.394531 -2.160156 2.195312 -2.234375 1.9375 -2.234375 C 1.570312 -2.234375 1.300781 -2.0625 1.125 -1.71875 C 1.125 -1.382812 1.203125 -1.117188 1.359375 -0.921875 C 1.523438 -0.722656 1.738281 -0.625 2 -0.625 Z M 2 -0.625 "/></g></g><g style="fill:#d6d4ce;fill-opacity:1;"><g transform="translate(62.108461, 96.601735)"><path style="stroke:none" d="M 3.265625 -3.453125 C 3.265625 -3.222656 3.207031 -3.023438 3.09375 -2.859375 C 2.976562 -2.691406 2.804688 -2.5625 2.578125 -2.46875 C 2.847656 -2.375 3.054688 -2.226562 3.203125 -2.03125 C 3.347656 -1.84375 3.421875 -1.601562 3.421875 -1.3125 C 3.421875 -1.03125 3.347656 -0.785156 3.203125 -0.578125 C 3.066406 -0.367188 2.875 -0.207031 2.625 -0.09375 C 2.382812 0.0078125 2.113281 0.0625 1.8125 0.0625 C 1.46875 0.0625 1.148438 -0.015625 0.859375 -0.171875 C 0.566406 -0.328125 0.347656 -0.546875 0.203125 -0.828125 L 0.859375 -1.1875 C 1.078125 -0.8125 1.394531 -0.625 1.8125 -0.625 C 2.039062 -0.625 2.226562 -0.6875 2.375 -0.8125 C 2.53125 -0.9375 2.609375 -1.101562 2.609375 -1.3125 C 2.609375 -1.570312 2.503906 -1.765625 2.296875 -1.890625 C 2.085938 -2.015625 1.757812 -2.078125 1.3125 -2.078125 L 1.21875 -2.078125 L 1.21875 -2.765625 L 1.25 -2.765625 C 1.664062 -2.765625 1.96875 -2.8125 2.15625 -2.90625 C 2.351562 -3.007812 2.453125 -3.171875 2.453125 -3.390625 C 2.453125 -3.554688 2.390625 -3.6875 2.265625 -3.78125 C 2.140625 -3.882812 1.984375 -3.9375 1.796875 -3.9375 C 1.648438 -3.9375 1.507812 -3.898438 1.375 -3.828125 C 1.238281 -3.765625 1.085938 -3.648438 0.921875 -3.484375 L 0.390625 -3.984375 C 0.785156 -4.410156 1.25 -4.625 1.78125 -4.625 C 2.070312 -4.625 2.328125 -4.570312 2.546875 -4.46875 C 2.773438 -4.375 2.953125 -4.238281 3.078125 -4.0625 C 3.203125 -3.882812 3.265625 -3.679688 3.265625 -3.453125 Z M 3.265625 -3.453125 "/></g></g><g style="fill:#d6d4ce;fill-opacity:1;"><g transform="translate(78.150962, 96.601735)"><path style="stroke:none" d="M 2.90625 0 L 2.65625 -0.984375 L 1.21875 -0.984375 L 0.953125 0 L 0.078125 0 L 1.390625 -4.5625 L 2.484375 -4.5625 L 3.78125 0 Z M 2.46875 -1.703125 L 1.953125 -3.6875 L 1.9375 -3.6875 L 1.40625 -1.703125 Z M 2.46875 -1.703125 "/></g></g><g style="fill:#d6d4ce;fill-opacity:1;"><g transform="translate(29.995961, 112.974788)"><path style="stroke:none" d="M 3.625 -1.671875 L 3.625 -1.046875 L 2.984375 -1.046875 L 2.984375 0 L 2.203125 0 L 2.203125 -1.046875 L 0.15625 -1.046875 L 0.15625 -1.84375 L 2.09375 -4.5625 L 2.984375 -4.5625 L 2.984375 -1.671875 Z M 2.203125 -3.734375 L 0.78125 -1.671875 L 2.203125 -1.671875 Z M 2.203125 -3.734375 "/></g></g><g style="fill:#d6d4ce;fill-opacity:1;"><g transform="translate(46.065969, 112.974788)"><path style="stroke:none" d="M 1.34375 -3.84375 L 1.28125 -2.8125 C 1.445312 -2.988281 1.722656 -3.078125 2.109375 -3.078125 C 2.378906 -3.078125 2.617188 -3.003906 2.828125 -2.859375 C 3.046875 -2.722656 3.210938 -2.535156 3.328125 -2.296875 C 3.441406 -2.066406 3.5 -1.820312 3.5 -1.5625 C 3.5 -1.050781 3.347656 -0.648438 3.046875 -0.359375 C 2.753906 -0.078125 2.34375 0.0625 1.8125 0.0625 C 1.476562 0.0625 1.179688 -0.0078125 0.921875 -0.15625 C 0.671875 -0.300781 0.476562 -0.515625 0.34375 -0.796875 L 1.015625 -1.140625 C 1.085938 -0.984375 1.203125 -0.859375 1.359375 -0.765625 C 1.515625 -0.671875 1.6875 -0.625 1.875 -0.625 C 2.132812 -0.625 2.332031 -0.703125 2.46875 -0.859375 C 2.601562 -1.023438 2.671875 -1.257812 2.671875 -1.5625 C 2.671875 -1.8125 2.597656 -2.015625 2.453125 -2.171875 C 2.304688 -2.328125 2.125 -2.40625 1.90625 -2.40625 C 1.75 -2.40625 1.609375 -2.367188 1.484375 -2.296875 C 1.367188 -2.222656 1.28125 -2.125 1.21875 -2 L 0.5625 -2.140625 L 0.71875 -4.5625 L 3.1875 -4.5625 L 3.1875 -3.84375 Z M 1.34375 -3.84375 "/></g></g><g style="fill:#d6d4ce;fill-opacity:1;"><g transform="translate(77.973634, 112.974788)"><path style="stroke:none" d="M 3.734375 -3.4375 C 3.734375 -3.1875 3.675781 -2.972656 3.5625 -2.796875 C 3.457031 -2.628906 3.28125 -2.5 3.03125 -2.40625 C 3.238281 -2.320312 3.398438 -2.234375 3.515625 -2.140625 C 3.628906 -2.046875 3.707031 -1.921875 3.75 -1.765625 C 3.800781 -1.617188 3.828125 -1.429688 3.828125 -1.203125 C 3.828125 -0.816406 3.679688 -0.519531 3.390625 -0.3125 C 3.109375 -0.101562 2.710938 0 2.203125 0 L 0.5 0 L 0.5 -4.5625 L 2.234375 -4.5625 C 2.609375 -4.5625 2.90625 -4.503906 3.125 -4.390625 C 3.34375 -4.273438 3.5 -4.132812 3.59375 -3.96875 C 3.6875 -3.800781 3.734375 -3.625 3.734375 -3.4375 Z M 2.859375 -3.296875 C 2.859375 -3.460938 2.800781 -3.59375 2.6875 -3.6875 C 2.570312 -3.789062 2.425781 -3.84375 2.25 -3.84375 L 1.359375 -3.84375 L 1.359375 -2.734375 L 2.25 -2.734375 C 2.4375 -2.734375 2.582031 -2.78125 2.6875 -2.875 C 2.800781 -2.976562 2.859375 -3.117188 2.859375 -3.296875 Z M 2.953125 -1.375 C 2.953125 -1.8125 2.722656 -2.03125 2.265625 -2.03125 L 1.359375 -2.03125 L 1.359375 -0.703125 L 2.265625 -0.703125 C 2.722656 -0.703125 2.953125 -0.925781 2.953125 -1.375 Z M 2.953125 -1.375 "/></g></g><g style="fill:#d6d4ce;fill-opacity:1;"><g transform="translate(29.995961, 128.926096)"><path style="stroke:none" d="M 1.609375 0 L 0.71875 0 L 2.5625 -3.84375 L 0.359375 -3.84375 L 0.359375 -4.5625 L 3.484375 -4.5625 L 3.484375 -4.078125 Z M 1.609375 0 "/></g></g><g style="fill:#d6d4ce;fill-opacity:1;"><g transform="translate(46.065969, 128.926096)"><path style="stroke:none" d="M 3.453125 -3.484375 C 3.453125 -3.253906 3.390625 -3.050781 3.265625 -2.875 C 3.148438 -2.707031 2.960938 -2.554688 2.703125 -2.421875 C 3.015625 -2.285156 3.242188 -2.113281 3.390625 -1.90625 C 3.535156 -1.707031 3.609375 -1.46875 3.609375 -1.1875 C 3.609375 -0.945312 3.535156 -0.726562 3.390625 -0.53125 C 3.253906 -0.34375 3.054688 -0.195312 2.796875 -0.09375 C 2.546875 0.0078125 2.253906 0.0625 1.921875 0.0625 C 1.597656 0.0625 1.304688 0.0078125 1.046875 -0.09375 C 0.796875 -0.195312 0.597656 -0.34375 0.453125 -0.53125 C 0.304688 -0.71875 0.234375 -0.9375 0.234375 -1.1875 C 0.234375 -1.75 0.539062 -2.160156 1.15625 -2.421875 C 0.882812 -2.554688 0.691406 -2.707031 0.578125 -2.875 C 0.460938 -3.050781 0.40625 -3.253906 0.40625 -3.484375 C 0.40625 -3.710938 0.46875 -3.910156 0.59375 -4.078125 C 0.71875 -4.253906 0.894531 -4.390625 1.125 -4.484375 C 1.351562 -4.578125 1.617188 -4.625 1.921875 -4.625 C 2.234375 -4.625 2.503906 -4.578125 2.734375 -4.484375 C 2.960938 -4.390625 3.140625 -4.253906 3.265625 -4.078125 C 3.390625 -3.910156 3.453125 -3.710938 3.453125 -3.484375 Z M 1.921875 -2.78125 C 2.003906 -2.78125 2.097656 -2.816406 2.203125 -2.890625 C 2.316406 -2.960938 2.414062 -3.050781 2.5 -3.15625 C 2.582031 -3.269531 2.625 -3.375 2.625 -3.46875 C 2.625 -3.8125 2.382812 -3.984375 1.90625 -3.984375 C 1.6875 -3.984375 1.515625 -3.941406 1.390625 -3.859375 C 1.273438 -3.773438 1.21875 -3.644531 1.21875 -3.46875 C 1.21875 -3.351562 1.253906 -3.238281 1.328125 -3.125 C 1.410156 -3.019531 1.503906 -2.9375 1.609375 -2.875 C 1.722656 -2.8125 1.828125 -2.78125 1.921875 -2.78125 Z M 1.921875 -0.5625 C 2.191406 -0.5625 2.40625 -0.617188 2.5625 -0.734375 C 2.71875 -0.859375 2.796875 -1.019531 2.796875 -1.21875 C 2.796875 -1.34375 2.734375 -1.46875 2.609375 -1.59375 C 2.492188 -1.726562 2.359375 -1.835938 2.203125 -1.921875 C 2.054688 -2.015625 1.941406 -2.0625 1.859375 -2.0625 C 1.785156 -2.0625 1.679688 -2.019531 1.546875 -1.9375 C 1.421875 -1.851562 1.304688 -1.75 1.203125 -1.625 C 1.097656 -1.5 1.046875 -1.367188 1.046875 -1.234375 C 1.046875 -1.023438 1.125 -0.859375 1.28125 -0.734375 C 1.4375 -0.617188 1.648438 -0.5625 1.921875 -0.5625 Z M 1.921875 -0.5625 "/></g></g><g style="fill:#d6d4ce;fill-opacity:1;"><g transform="translate(62.108461, 145.023849)"><path style="stroke:none" d="M 2.359375 -3.21875 L 2.53125 -4.5625 L 3.125 -4.5625 L 2.953125 -3.21875 L 3.46875 -3.21875 L 3.46875 -2.65625 L 2.890625 -2.65625 L 2.78125 -1.90625 L 3.28125 -1.90625 L 3.28125 -1.328125 L 2.703125 -1.328125 L 2.515625 0 L 1.921875 0 L 2.09375 -1.328125 L 1.484375 -1.328125 L 1.3125 0 L 0.71875 0 L 0.890625 -1.328125 L 0.390625 -1.328125 L 0.390625 -1.90625 L 0.96875 -1.90625 L 1.078125 -2.65625 L 0.578125 -2.65625 L 0.578125 -3.21875 L 1.15625 -3.21875 L 1.328125 -4.5625 L 1.921875 -4.5625 L 1.75 -3.21875 Z M 2.28125 -2.65625 L 1.671875 -2.65625 L 1.578125 -1.90625 L 2.171875 -1.90625 Z M 2.28125 -2.65625 "/></g></g><g style="fill:#d6d4ce;fill-opacity:1;"><g transform="translate(62.439015, 128.926096)"><path style="stroke:none" d="M 3.46875 -2.546875 C 3.46875 -2.015625 3.390625 -1.550781 3.234375 -1.15625 C 3.078125 -0.757812 2.847656 -0.457031 2.546875 -0.25 C 2.253906 -0.0390625 1.910156 0.0625 1.515625 0.0625 C 1.296875 0.0625 1.097656 0.0351562 0.921875 -0.015625 C 0.742188 -0.0664062 0.566406 -0.15625 0.390625 -0.28125 L 0.75 -0.9375 C 0.988281 -0.726562 1.242188 -0.625 1.515625 -0.625 C 1.710938 -0.625 1.894531 -0.679688 2.0625 -0.796875 C 2.238281 -0.921875 2.378906 -1.085938 2.484375 -1.296875 C 2.585938 -1.503906 2.644531 -1.738281 2.65625 -2 C 2.507812 -1.875 2.351562 -1.78125 2.1875 -1.71875 C 2.019531 -1.664062 1.832031 -1.640625 1.625 -1.640625 C 1.363281 -1.640625 1.125 -1.703125 0.90625 -1.828125 C 0.695312 -1.960938 0.53125 -2.140625 0.40625 -2.359375 C 0.289062 -2.585938 0.234375 -2.84375 0.234375 -3.125 C 0.234375 -3.414062 0.296875 -3.671875 0.421875 -3.890625 C 0.554688 -4.117188 0.742188 -4.296875 0.984375 -4.421875 C 1.234375 -4.554688 1.519531 -4.625 1.84375 -4.625 C 2.34375 -4.625 2.738281 -4.4375 3.03125 -4.0625 C 3.320312 -3.695312 3.46875 -3.191406 3.46875 -2.546875 Z M 1.828125 -2.328125 C 2.191406 -2.328125 2.46875 -2.5 2.65625 -2.84375 C 2.65625 -3.175781 2.570312 -3.441406 2.40625 -3.640625 C 2.25 -3.835938 2.035156 -3.9375 1.765625 -3.9375 C 1.554688 -3.9375 1.382812 -3.863281 1.25 -3.71875 C 1.113281 -3.582031 1.046875 -3.394531 1.046875 -3.15625 C 1.046875 -2.882812 1.113281 -2.675781 1.25 -2.53125 C 1.394531 -2.394531 1.585938 -2.328125 1.828125 -2.328125 Z M 1.828125 -2.328125 "/></g></g><g style="fill:#d6d4ce;fill-opacity:1;"><g transform="translate(78.150962, 128.926096)"><path style="stroke:none" d="M 3.609375 -3.421875 L 2.828125 -3.234375 C 2.753906 -3.441406 2.644531 -3.601562 2.5 -3.71875 C 2.363281 -3.832031 2.195312 -3.890625 2 -3.890625 C 1.695312 -3.890625 1.460938 -3.75 1.296875 -3.46875 C 1.140625 -3.195312 1.0625 -2.785156 1.0625 -2.234375 C 1.0625 -1.703125 1.140625 -1.304688 1.296875 -1.046875 C 1.460938 -0.796875 1.703125 -0.671875 2.015625 -0.671875 C 2.234375 -0.671875 2.40625 -0.71875 2.53125 -0.8125 C 2.664062 -0.914062 2.789062 -1.09375 2.90625 -1.34375 L 3.71875 -1.125 C 3.582031 -0.738281 3.367188 -0.441406 3.078125 -0.234375 C 2.796875 -0.0351562 2.441406 0.0625 2.015625 0.0625 C 1.441406 0.0625 0.992188 -0.140625 0.671875 -0.546875 C 0.347656 -0.960938 0.1875 -1.539062 0.1875 -2.28125 C 0.1875 -3.019531 0.347656 -3.59375 0.671875 -4 C 0.992188 -4.414062 1.441406 -4.625 2.015625 -4.625 C 2.453125 -4.625 2.800781 -4.523438 3.0625 -4.328125 C 3.320312 -4.128906 3.503906 -3.828125 3.609375 -3.421875 Z M 3.609375 -3.421875 "/></g></g><g style="fill:#d6d4ce;fill-opacity:1;"><g transform="translate(30.257892, 146.663525)"><path style="stroke:none" d="M 2.390625 -4.171875 L 3.234375 -3.71875 L 2.859375 -3.09375 L 2.015625 -3.59375 L 2.03125 -2.65625 L 1.296875 -2.65625 L 1.3125 -3.59375 L 0.46875 -3.09375 L 0.09375 -3.71875 L 0.9375 -4.171875 L 0.09375 -4.640625 L 0.46875 -5.265625 L 1.3125 -4.75 L 1.296875 -5.6875 L 2.03125 -5.6875 L 2.015625 -4.75 L 2.859375 -5.265625 L 3.234375 -4.640625 Z M 2.390625 -4.171875 "/></g></g><g style="fill:#d6d4ce;fill-opacity:1;"><g transform="translate(46.065969, 145.023849)"><path style="stroke:none" d="M 3.578125 -2.28125 C 3.578125 -1.53125 3.4375 -0.953125 3.15625 -0.546875 C 2.875 -0.140625 2.460938 0.0625 1.921875 0.0625 C 1.390625 0.0625 0.976562 -0.132812 0.6875 -0.53125 C 0.40625 -0.9375 0.265625 -1.519531 0.265625 -2.28125 C 0.265625 -3.039062 0.40625 -3.617188 0.6875 -4.015625 C 0.976562 -4.421875 1.390625 -4.625 1.921875 -4.625 C 2.460938 -4.625 2.875 -4.421875 3.15625 -4.015625 C 3.4375 -3.609375 3.578125 -3.03125 3.578125 -2.28125 Z M 1.921875 -0.625 C 2.484375 -0.625 2.765625 -1.175781 2.765625 -2.28125 C 2.765625 -2.832031 2.691406 -3.242188 2.546875 -3.515625 C 2.410156 -3.796875 2.203125 -3.9375 1.921875 -3.9375 C 1.640625 -3.9375 1.425781 -3.796875 1.28125 -3.515625 C 1.144531 -3.242188 1.078125 -2.832031 1.078125 -2.28125 C 1.078125 -1.175781 1.359375 -0.625 1.921875 -0.625 Z M 1.921875 -0.625 "/></g></g><g style="fill:#d6d4ce;fill-opacity:1;"><g transform="translate(77.973634, 145.023849)"><path style="stroke:none" d="M 4.046875 -2.28125 C 4.046875 -1.539062 3.867188 -0.972656 3.515625 -0.578125 C 3.160156 -0.191406 2.660156 0 2.015625 0 L 0.5 0 L 0.5 -4.5625 L 2.015625 -4.5625 C 2.660156 -4.5625 3.160156 -4.363281 3.515625 -3.96875 C 3.867188 -3.582031 4.046875 -3.019531 4.046875 -2.28125 Z M 3.171875 -2.28125 C 3.171875 -2.8125 3.066406 -3.203125 2.859375 -3.453125 C 2.660156 -3.703125 2.359375 -3.828125 1.953125 -3.828125 L 1.359375 -3.828125 L 1.359375 -0.734375 L 1.96875 -0.734375 C 2.769531 -0.734375 3.171875 -1.25 3.171875 -2.28125 Z M 3.171875 -2.28125 "/></g></g></g></svg>